<?xml version="1.0" standalone="no"?>
  <!DOCTYPE svg PUBLIC "-//W3C//DTD SVG 1.1//EN" "http://www.w3.org/Graphics/SVG/1.1/DTD/svg11.dtd" >
  <svg>
  <metadata>
  Created by font-carrier
  </metadata>
  <defs>
  <font id="ER-Architect1251" horiz-adv-x="864" vert-adv-y="864" >
    <font-face
      
      font-family="ER Architect 1251"
      
      font-weight="400"
      
      font-stretch="normal"
      
      units-per-em="1000"
      
      ascent="862"
      
      descent="-231"
      
    />
      <missing-glyph />

      

      
      <glyph glyph-name="uni21" unicode="&#x21;" d="M80 640Q80 651 91 651Q102 651 102 640L102 208Q102 197 91 197Q80 197 80 208L80 640M60 38Q60 58 70 70.50Q80 83 94 83Q108 83 117.50 68.50Q127 54 127 35Q127 17 116.50 4.50Q106-8 91-8Q78-8 69 6Q60 20 60 38Z"  horiz-adv-x="183" vert-adv-y="1000"  />

      
      <glyph glyph-name="uni22" unicode="&#x22;" d="M197 637Q197 648 208 648Q219 648 219 637L219 438Q219 427 208 427Q197 427 197 438L197 637M47 637Q47 648 58 648Q69 648 69 637L69 438Q69 427 58 427Q47 427 47 438L47 637Z"  horiz-adv-x="259" vert-adv-y="1000"  />

      
      <glyph glyph-name="uni23" unicode="&#x23;" d="M122 495L263 495L319 645Q322 652 329 652Q334 652 338 648Q342 644 340 638L286 495L418 495L475 645Q478 652 484 652Q489 652 493 648Q497 644 495 638L441 495L571 495Q582 495 582 484Q582 473 571 473L433 473L354 262L490 262Q501 262 501 251Q501 240 490 240L345 240L254-5Q251-12 244-12Q239-12 235.50-7.50Q232-3 234 3L322 240L190 240L99-5Q96-12 89-12Q84-12 80-7.50Q76-3 78 3L167 240L42 240Q31 240 31 251Q31 262 42 262L175 262L255 473L122 473Q111 473 111 484Q111 495 122 495M410 473L278 473L199 262L331 262L410 473Z"  horiz-adv-x="613" vert-adv-y="1000"  />

      
      <glyph glyph-name="uni24" unicode="&#x24;" d="M235 681Q235 692 247 692Q258 692 258 681L258-66Q258-77 247-77Q235-77 235-66L235 681M377 530Q382 527 382 521Q382 517 380 514Q374 506 366 512Q328 536 293 546.50Q258 557 225 557Q148 557 98 496Q54 443 54 378Q54 342 70 320.50Q86 299 118 299Q137 299 162.50 309.50Q188 320 218 342Q256 365 286 375Q316 385 341 385Q385 385 407 354.50Q429 324 429 275Q429 190 376 117Q317 35 232 35Q188 35 142.50 57Q97 79 47 131Q42 137 46 143Q50 149 57 149Q61 149 64 146Q108 99 152 77Q196 55 233 55Q308 55 360 131Q407 199 407 277Q407 318 390 343.50Q373 369 339 369Q317 369 291 358.50Q265 348 231 323Q195 301 165.50 291.50Q136 282 111 282Q72 282 51.50 308Q31 334 31 375Q31 448 83 509Q141 578 229 578Q263 578 300 566.50Q337 555 377 530Z"  horiz-adv-x="475" vert-adv-y="1000"  />

      
      <glyph glyph-name="uni25" unicode="&#x25;" d="M358 655Q361 662 367 662Q372 662 376 657.50Q380 653 379 647L174-4Q173-11 165-11Q160-11 156-6.50Q152-2 153 4L358 655M232 494Q215 457 183.50 432Q152 407 115 407Q95 407 75 416Q48 430 34.50 456Q21 482 21 514Q21 532 26 552Q31 572 39 588Q58 624 85 645Q117 670 152 670Q170 670 187 663Q217 650 232 622.50Q247 595 247 562Q247 545 243 527.50Q239 510 232 494M520 73Q503 36 471.50 11Q440-14 403-14Q383-14 363-5Q336 9 322.50 35Q309 61 309 93Q309 111 314 131Q319 151 327 167Q346 203 373 224Q405 249 440 249Q459 249 476 242Q506 229 520.50 201.50Q535 174 535 141Q535 124 531 106.50Q527 89 520 73M211 503Q224 530 224 562Q224 624 178 643Q171 646 162 647Q153 648 152 648Q125 648 100 628.50Q75 609 59 579Q43 549 43 513Q43 456 84 437Q98 430 115 430Q143 430 170 451Q197 472 211 503M500 82Q513 108 513 141Q513 169 501.50 190.50Q490 212 466 222Q459 225 450 226Q441 227 440 227Q413 227 388 207.50Q363 188 347 158Q331 128 331 92Q331 35 372 16Q386 9 403 9Q432 9 458.50 29.50Q485 50 500 82Z"  horiz-adv-x="608" vert-adv-y="1000"  />

      
      <glyph glyph-name="uni26" unicode="&#x26;" d="M518 79Q521 83 526 83Q532 83 536 77Q540 71 535 65L488 12L470 13Q469 13 413 97.50Q357 182 298 275Q231 380 209 421L211 419Q186 449 173.50 480Q161 511 161 536Q161 591 204 626.50Q247 662 299 662Q338 662 363 639.50Q388 617 388 571Q388 497 302 451Q222 410 142 370Q55 310 55 205Q55 105 83 57Q108 14 155 14Q229 14 333 116Q428 209 466 298Q469 304 475 304Q481 304 485 300Q489 296 487 289Q451 201 346 102Q230-8 147-8Q94-8 65 39Q33 92 33 205Q33 322 119 388Q137 402 279 471Q366 513 366 571Q366 606 345.50 623.50Q325 641 295 641Q253 641 217 611.50Q181 582 181 537Q181 513 192 488Q203 463 227 434L229 432Q250 392 316 289Q389 175 480 38L518 79Z"  horiz-adv-x="584" vert-adv-y="1000"  />

      
      <glyph glyph-name="uni27" unicode="&#x27;" d="M44 640Q44 651 55 651Q66 651 66 640L66 435Q66 424 55 424Q44 424 44 435L44 640Z"  horiz-adv-x="106" vert-adv-y="1000"  />

      
      <glyph glyph-name="uni28" unicode="&#x28;" d="M244 650Q247 654 252 654Q263 654 263 642Q263 638 260 635Q175 536 138.50 442.50Q102 349 102 222Q102 87 137-9.50Q172-106 260-206Q266-212 262-218.50Q258-225 251-225Q247-225 244-221Q155-121 117.50-18.50Q80 84 80 222Q80 354 117.50 451Q155 548 244 650Z"  horiz-adv-x="307" vert-adv-y="1000"  />

      
      <glyph glyph-name="uni29" unicode="&#x29;" d="M42 635Q36 641 40 647.50Q44 654 51 654Q55 654 58 650Q145 550 183.50 451.50Q222 353 222 222Q222 82 185.50-18.50Q149-119 58-221Q55-225 50-225Q39-225 39-213Q39-209 42-206Q128-107 163.50-10Q199 87 199 222Q199 350 163.50 442.50Q128 535 42 635Z"  horiz-adv-x="279" vert-adv-y="1000"  />

      
      <glyph glyph-name="uni2a" unicode="&#x2a;" d="M252 653Q255 657 259 657Q267 657 269.50 649.50Q272 642 269 638L97 430Q94 426 90 426Q82 426 79.50 433.50Q77 441 80 445L252 653M263 441Q267 435 263.50 429.50Q260 424 254 424Q250 424 247 428L78 645Q74 650 77 656Q80 662 86 662Q91 662 94 657L263 441M52 510Q39 510 39 523Q39 532 48 532L297 576Q310 576 310 563Q310 554 301 554L52 510Z"  horiz-adv-x="360" vert-adv-y="1000"  />

      
      <glyph glyph-name="uni2b" unicode="&#x2b;" d="M452 227Q463 227 463 216Q463 205 452 205L44 205Q34 205 34 216Q34 227 44 227L452 227M241 413Q241 424 252 424Q263 424 263 413L263 0Q263-11 252-11Q241-11 241 0L241 413Z"  horiz-adv-x="499" vert-adv-y="1000"  />

      
      <glyph glyph-name="uni2c" unicode="&#x2c;" d="M48 35Q48 86 90 86Q115 86 128 69Q141 52 141 19Q142 15 142 5Q142-14 135-33Q128-52 113-67Q93-86 79.50-92Q66-98 47-98Q37-98 31-93Q25-88 25-81Q25-69 43-64Q78-51 83-48Q103-33 103-1Q91-7 80-7Q64-7 56 5Q48 17 48 35Z"  horiz-adv-x="185" vert-adv-y="1000"  />

      
      <glyph glyph-name="uni2d" unicode="&#x2d;" d="M36 232Q24 232 24 244Q24 254 34 254L254 273Q266 273 266 261Q266 251 256 251L36 232Z"  horiz-adv-x="294" vert-adv-y="1000"  />

      
      <glyph glyph-name="uniad" unicode="&#xad;" d="M36 232Q24 232 24 244Q24 254 34 254L254 273Q266 273 266 261Q266 251 256 251L36 232Z"  horiz-adv-x="294" vert-adv-y="1000"  />

      
      <glyph glyph-name="uni2e" unicode="&#x2e;" d="M46 41Q46 58 57.50 69.50Q69 81 84 81Q98 81 109 67.50Q120 54 120 38Q120 21 108.50 9.50Q97-2 81-2Q66-2 56 11Q46 24 46 41Z"  horiz-adv-x="166" vert-adv-y="1000"  />

      
      <glyph glyph-name="uni2f" unicode="&#x2f;" d="M242 646Q245 654 251 654Q265 654 262 639L60 7Q59 0 51 0Q37 0 40 15L242 646Z"  horiz-adv-x="307" vert-adv-y="1000"  />

      
      <glyph glyph-name="uni30" unicode="&#x30;" d="M346 637Q445 637 502.50 567.50Q560 498 560 374Q560 249 464 126Q357-11 216-11Q128-11 77 81Q33 161 33 269Q33 394 119 509Q215 637 346 637M346 615Q229 615 138 495Q55 385 55 269Q55 168 96 94Q142 11 216 11Q345 11 446 140Q537 257 537 374Q537 492 486.50 553.50Q436 615 346 615Z"  horiz-adv-x="599" vert-adv-y="1000"  />

      
      <glyph glyph-name="uni31" unicode="&#x31;" d="M57 513Q51 507 45 510.50Q39 514 39 521Q39 525 42 528L167 653L186 645L186 0Q186-11 175-11Q163-11 163 0L163 620L57 513Z"  horiz-adv-x="264" vert-adv-y="1000"  />

      
      <glyph glyph-name="uni32" unicode="&#x32;" d="M61 432Q61 421 50 421Q39 421 39 432Q39 540 114 605Q181 663 274 663Q350 663 401 622Q457 577 457 499Q457 415 359 318Q358 317 173 161Q70 74 64 20L432 20L432 111Q432 122 443 122Q454 122 454 111L454 9L443-2L53-2L42 9Q42 77 143 169Q237 249 332 329Q435 425 435 499Q435 566 387.50 603Q340 640 272 640Q189 640 129 589Q61 531 61 432Z"  horiz-adv-x="536" vert-adv-y="1000"  />

      
      <glyph glyph-name="uni33" unicode="&#x33;" d="M535 260Q535 145 437 65Q344-11 222-11Q109-11 68 54Q42 95 42 175Q42 185 48 185L61 187Q62 181 64 175Q64 94 83 64Q116 11 222 11Q334 11 421 82Q512 157 512 260Q512 351 462 394Q419 431 350 431Q295 431 244 410Q193 389 182 364Q179 357 169 365Q159 373 164 377L427 603L427 632L108 632L108 524Q108 513 97 513Q86 513 86 524L86 643Q86 654 97 654L438 654Q449 654 449 643L449 598L445 590L273 442Q312 454 356 454Q433 454 479 413Q535 363 535 260Z"  horiz-adv-x="570" vert-adv-y="1000"  />

      
      <glyph glyph-name="uni34" unicode="&#x34;" d="M380 3Q380-8 369-8Q357-8 357 3L357 614L46 229L522 307Q534 307 534 294Q534 285 525 285L21 202L11 221L360 653L380 645L380 3Z"  horiz-adv-x="570" vert-adv-y="1000"  />

      
      <glyph glyph-name="uni35" unicode="&#x35;" d="M445 648Q457 648 457 636Q457 626 447 626L64 591L66 367Q96 404 140 427Q203 460 288 460Q375 460 433 417Q501 366 501 271Q501 149 405 69Q315-6 199-6Q138-6 93 31Q44 71 44 134Q44 149 56 149Q66 149 66 139Q73 81 110 49Q147 17 199 17Q308 17 390 85Q479 159 479 271Q479 357 421 400Q370 438 288 438Q175 438 109 382Q88 364 66 326L44 330L42 601L52 612L445 648Z"  horiz-adv-x="541" vert-adv-y="1000"  />

      
      <glyph glyph-name="uni36" unicode="&#x36;" d="M530 560Q533 556 531 549.50Q529 543 521 543Q515 543 512 548Q480 593 444 613.50Q408 634 367 634Q259 634 161.50 509.50Q64 385 64 263Q64 168 128.50 93.50Q193 19 285 19Q391 19 468.50 87Q546 155 546 255Q546 317 500 344Q463 366 393 366Q303 366 212 293Q144 239 90 157Q87 152 81 152Q76 152 71.50 158Q67 164 71 170Q149 285 239 341Q315 388 393 388Q465 388 510 362Q568 328 568 255Q568 145 484 71Q400-3 285-3Q182-3 112 77.50Q42 158 42 263Q42 393 141 521Q244 655 363 655Q408 655 450 632.50Q492 610 530 560Z"  horiz-adv-x="613" vert-adv-y="1000"  />

      
      <glyph glyph-name="uni37" unicode="&#x37;" d="M66 517Q66 506 55 506Q44 506 44 517L44 597L54 608Q156 621 210 627Q373 647 405 653L418 641Q418 600 347 471Q216 232 213 226Q141 80 141 7Q141-12 131-12Q119-12 119 0Q128 80 193 220Q217 272 315 458Q384 588 393 628L66 587L66 517Z"  horiz-adv-x="460" vert-adv-y="1000"  />

      
      <glyph glyph-name="uni38" unicode="&#x38;" d="M85 35Q60 63 47 94.50Q34 126 34 154Q34 214 83 271Q128 324 212 368Q179 368 151.50 385Q124 402 114 438Q108 461 108 482Q108 530 137 568Q166 606 218 634Q278 668 345 668Q382 668 408.50 655.50Q435 643 448.50 614.50Q462 586 462 559Q462 517 433 479Q410 448 367 420Q385 422 402.50 424Q420 426 435 426Q475 426 506 415.50Q537 405 552 380Q572 340 572 300Q572 244 533 188Q503 145 445 97Q391 53 321 27Q251 1 188 1Q154 1 128.50 9Q103 17 85 35M137 443Q142 414 169.50 402Q197 390 232 390L244 390Q251 390 261 392L295 404Q351 429 389 464Q440 510 440 559Q440 582 428 606Q420 626 397 636Q374 646 343 646Q283 646 231.50 617Q180 588 156 557Q132 526 132 484Q132 468 137 443M296 381L274 374Q173 330 115 272Q57 214 57 153Q57 125 67.50 100.50Q78 76 102 50Q123 23 184 23Q243 23 312.50 48Q382 73 430 114Q484 159 513 200Q549 251 549 301Q549 336 532 370Q526 388 502 395.50Q478 403 441 403Q405 403 367 397Q329 391 296 381Z"  horiz-adv-x="599" vert-adv-y="1000"  />

      
      <glyph glyph-name="uni39" unicode="&#x39;" d="M48 137Q43 151 59 151Q67 151 68 144Q95 76 143 41Q187 9 244 9Q350 9 432 108Q521 215 521 376Q521 489 480 551Q426 633 299 633Q224 633 159 574Q94 515 94 439Q94 380 144.50 335Q195 290 260 290Q346 290 419 347Q501 411 501 504Q501 514 511 514Q524 514 524 502Q524 399 435 330Q355 268 260 268Q186 268 129 319Q72 370 72 439Q72 526 143 591Q214 656 299 656Q435 656 496 564Q543 493 543 376Q543 210 447 95Q357-13 243-13Q181-13 130 24Q79 61 48 137Z"  horiz-adv-x="580" vert-adv-y="1000"  />

      
      <glyph glyph-name="uni3a" unicode="&#x3a;" d="M71 41Q71 58 82.50 69.50Q94 81 109 81Q123 81 134 67.50Q145 54 145 38Q145 21 133.50 9.50Q122-2 106-2Q91-2 81 11Q71 24 71 41M71 375Q71 392 83 404Q95 416 109 416Q124 416 134.50 402.50Q145 389 145 372Q145 355 133.50 343.50Q122 332 106 332Q91 332 81 345Q71 358 71 375Z"  horiz-adv-x="189" vert-adv-y="1000"  />

      
      <glyph glyph-name="uni3b" unicode="&#x3b;" d="M63 376Q63 394 74 405Q85 416 101 416Q115 416 126 402.50Q137 389 137 373Q137 356 125 344Q113 332 98 332Q83 332 73 345Q63 358 63 376M65 42Q65 64 77.50 76.50Q90 89 108 89Q133 89 145 73Q154 62 159 24Q159-5 155-20Q148-45 129.50-63.50Q111-82 97-88.50Q83-95 64-95Q54-95 48-90Q42-85 42-77Q42-64 60-60Q95-47 100-44Q120-30 120 2Q114-1 108-1.50Q102-2 99-3Q83-3 73 10Q63 23 65 42Z"  horiz-adv-x="185" vert-adv-y="1000"  />

      
      <glyph glyph-name="uni037E" unicode="&#x037E;" d="M63 376Q63 394 74 405Q85 416 101 416Q115 416 126 402.50Q137 389 137 373Q137 356 125 344Q113 332 98 332Q83 332 73 345Q63 358 63 376M65 42Q65 64 77.50 76.50Q90 89 108 89Q133 89 145 73Q154 62 159 24Q159-5 155-20Q148-45 129.50-63.50Q111-82 97-88.50Q83-95 64-95Q54-95 48-90Q42-85 42-77Q42-64 60-60Q95-47 100-44Q120-30 120 2Q114-1 108-1.50Q102-2 99-3Q83-3 73 10Q63 23 65 42Z"  horiz-adv-x="185" vert-adv-y="1000"  />

      
      <glyph glyph-name="uni3c" unicode="&#x3c;" d="M407 417Q414 421 419 417Q424 413 424 406Q424 400 418 397L70 212L418 12Q423 9 423 4Q423-1 417.50-5Q412-9 407-6L42 204L42 223L407 417Z"  horiz-adv-x="479" vert-adv-y="1000"  />

      
      <glyph glyph-name="uni3d" unicode="&#x3d;" d="M53 127Q42 127 42 138Q42 150 53 150L449 150Q460 150 460 138Q460 127 449 127L53 127M47 321Q36 321 36 332Q36 343 47 343L443 343Q454 343 454 332Q454 321 443 321L47 321Z"  horiz-adv-x="499" vert-adv-y="1000"  />

      
      <glyph glyph-name="uni3e" unicode="&#x3e;" d="M83 397Q77 400 77 406Q77 412 82.50 416.50Q88 421 94 417L460 223L460 203L91 1Q85-3 79.50 1.50Q74 6 74 12Q74 18 80 21L430 213L83 397Z"  horiz-adv-x="499" vert-adv-y="1000"  />

      
      <glyph glyph-name="uni3f" unicode="&#x3f;" d="M68 512Q65 507 60 507Q52 507 49 513Q46 519 48 524Q89 599 141 635Q187 667 237 667Q297 667 342.50 625Q388 583 388 537Q388 494 313 429Q243 374 174 320Q98 259 98 228Q98 195 115.50 181Q133 167 162 167Q191 167 215.50 180.50Q240 194 240 211L238 219Q238 224 242.50 228Q247 232 252 232Q260 232 260 224Q266 190 234 166.50Q202 143 160 143Q124 143 102 162Q76 185 76 228Q76 271 151 336Q220 391 290 446Q366 507 366 537Q366 573 330 607Q290 645 239 645Q196 645 155 616Q107 582 68 512M124 49Q124 66 135 78Q146 90 162 90Q177 90 187.50 76.50Q198 63 198 46Q198 29 186.50 17.50Q175 6 159 6Q144 6 134 19Q124 32 124 49Z"  horiz-adv-x="427" vert-adv-y="1000"  />

      
      <glyph glyph-name="uni40" unicode="&#x40;" d="M471 312Q471 321 480 321Q493 321 493 308Q491 282 489 251.50Q487 221 487 213Q487 188 489 165.50Q491 143 497 126Q528 103 558 103Q615 103 646 204Q670 282 670 380Q670 489 628 553Q576 632 468 632Q311 632 186 508Q61 384 61 233Q61 148 114.50 83Q168 18 252 18Q290 18 326 30.50Q362 43 404 73Q408 76 414.50 74Q421 72 421 63Q421 58 416 54Q374 24 333 9.50Q292-5 254-5Q162-5 100.50 68Q39 141 39 233Q39 395 169.50 524.50Q300 654 468 654Q586 654 645 566Q693 494 693 380Q693 275 668 195Q633 82 561 82Q543 82 523.50 88.50Q504 95 481 110L477 115Q471 135 468 165Q465 195 465 220Q465 266 468 296Q468 302 471 312M452 247Q389 179 347 154Q310 132 273 132Q244 132 217 145Q179 168 179 215Q179 262 217 329Q248 384 294 432.50Q340 481 380 509Q434 547 475 547Q488 547 501 542.50Q514 538 525 529Q546 507 546 464Q546 415 519 354Q492 293 452 247M435 262Q473 303 499 365Q525 427 525 471Q525 501 511 512Q498 526 477 526Q444 526 394 492Q350 462 309 419.50Q268 377 234.50 314Q201 251 201 208Q201 173 226 165Q235 160 249 157Q263 154 273 154Q312 154 356 187Q389 212 435 262Z"  horiz-adv-x="752" vert-adv-y="1000"  />

      
      <glyph glyph-name="uni41" unicode="&#x41;" d="M213 345L424 345L326 616L213 345M188 343L317 651L337 650L449 343L452 332L572 4Q577-11 561-11Q554-11 551-4L432 323L204 323L67-5Q65-11 59-11Q53-11 49-6Q45-1 47 5L188 343Z"  horiz-adv-x="603" vert-adv-y="1000"  />

      
      <glyph glyph-name="uni42" unicode="&#x42;" d="M105 648L105 620Q145 637 202 654Q283 678 337 678Q379 678 406.50 664Q434 650 443 617Q445 599 445 590Q445 537 411.50 497Q378 457 319 428Q342 431 364 431Q427 431 466 408Q512 381 526 320Q528 304 528 296Q528 208 417 129Q340 74 209 25Q112-11 97-11L83 0L83 648Q83 658 91 658Q98 658 105 648M105 596L105 380Q244 410 322 453Q424 509 424 587Q424 599 421 613Q421 636 402 645.50Q383 655 350 655Q291 655 193 626Q160 617 105 596M105 355L105 16Q175 37 241 65Q351 111 418 161Q507 227 507 292Q507 305 504 317Q497 366 460.50 386.50Q424 407 366 407Q307 407 223 387Q134 362 105 355Z"  horiz-adv-x="570" vert-adv-y="1000"  />

      
      <glyph glyph-name="uni43" unicode="&#x43;" d="M482 558Q487 543 471 543Q463 543 462 550Q446 598 403 622Q370 641 331 641Q322 641 318 640Q207 626 132 538Q48 439 48 280Q48 167 85 96Q129 11 217 11Q284 11 351 59Q418 107 463 186Q466 192 471 192Q476 192 480.50 186.50Q485 181 481 175Q435 91 364 40Q293-11 217-11Q116-11 66 84Q26 160 26 280Q26 450 117 559Q203 662 324 662Q325 663 330 663Q374 663 412 642Q462 614 482 558Z"  horiz-adv-x="524" vert-adv-y="1000"  />

      
      <glyph glyph-name="uni44" unicode="&#x44;" d="M105 628L105 619Q145 640 185 654Q249 676 303 676Q375 676 427 638Q491 592 521 492Q531 455 531 416Q531 296 419 185Q340 107 211 40Q113-11 98-11L83-1L83 628Q83 639 94 639Q105 639 105 628M105 594L105 15Q179 47 242 84Q354 150 421 222Q510 318 510 417Q510 444 508 455.50Q506 467 499 487Q473 578 416 619Q369 653 301 653Q243 653 179 629Q149 618 105 594Z"  horiz-adv-x="565" vert-adv-y="1000"  />

      
      <glyph glyph-name="uni45" unicode="&#x45;" d="M408 368L102 344L102 15L478 55Q490 55 490 43Q490 33 480 33L92-8L80 3L80 588L48 584Q36 584 36 597Q36 607 46 607L80 610L80 632Q80 642 91 642Q102 642 102 632L102 613L442 651Q454 651 454 639Q454 629 444 629L102 591L102 367L406 391Q418 391 418 378Q418 368 408 368Z"  horiz-adv-x="523" vert-adv-y="1000"  />

      
      <glyph glyph-name="uni46" unicode="&#x46;" d="M452 629L105 596L105 369L404 391Q415 391 415 378Q415 368 405 368L105 347L105 14Q105 3 94 3Q83 3 83 14L83 594L48 590Q36 590 36 602Q36 612 46 612L83 616L83 643Q83 653 94 653Q105 653 105 643L105 618L451 651Q462 651 462 639Q462 629 452 629Z"  horiz-adv-x="483" vert-adv-y="1000"  />

      
      <glyph glyph-name="uni47" unicode="&#x47;" d="M613 561Q616 557 614 550.50Q612 544 604 544Q598 544 595 549Q562 596 513 619.50Q464 643 406 643Q274 643 171 540Q58 427 58 252Q58 140 128 72Q192 10 284 10Q295 10 309.50 10.50Q324 11 346 18Q467 52 537 119Q592 172 612 240Q624 280 624 331L366 275Q352 275 352 290Q352 297 360 297L632 356L645 346Q647 334 647 318Q647 266 629 217Q603 145 546 94Q473 28 352-5Q320-14 286-14Q185-14 114 55Q36 131 36 254Q36 436 154 555Q263 665 404 665Q467 665 521 639.50Q575 614 613 561Z"  horiz-adv-x="690" vert-adv-y="1000"  />

      
      <glyph glyph-name="uni48" unicode="&#x48;" d="M70 629L70 363L439 363L439 629Q439 640 450 640Q461 640 461 629L461 0Q461-11 450-11Q439-11 439 0L439 341L70 341L70-3Q70-14 59-14Q48-14 48-3L48 629Q48 640 59 640Q70 640 70 629Z"  horiz-adv-x="504" vert-adv-y="1000"  />

      
      <glyph glyph-name="uni49" unicode="&#x49;" d="M86 21L49 11Q42 10 42 1Q42-14 54-11L154 17Q162 20 162 27Q162 32 158 36Q154 40 149 39L108 28L86 21M108 28L86 21L86 627L47 617Q34 614 34 628Q34 636 42 639L141 667Q155 670 155 654Q155 647 147 645L108 633L108 28Z"  horiz-adv-x="192" vert-adv-y="1000"  />

      
      <glyph glyph-name="uni4a" unicode="&#x4a;" d="M39 184Q39 194 49 194Q61 194 61 182Q60 172 59.50 161.50Q59 151 59 146Q59 73 96 40Q128 11 186 11Q266 11 328.50 62Q391 113 391 188L391 643Q391 653 402 653Q413 653 413 643L413 188Q413 102 342 44Q275-11 186-11Q122-11 83 24Q36 66 36 144Q36 163 39 184Z"  horiz-adv-x="465" vert-adv-y="1000"  />

      
      <glyph glyph-name="uni4b" unicode="&#x4b;" d="M403 648Q407 651 414 649.50Q421 648 421 639Q421 635 417 632L132 371L498 8Q505 1 498-7.50Q491-16 483-8L109 363L109 380L403 648M86 643Q86 653 97 653Q108 653 108 643L108 0Q108-11 97-11Q86-11 86 0L86 643Z"  horiz-adv-x="536" vert-adv-y="1000"  />

      
      <glyph glyph-name="uni4c" unicode="&#x4c;" d="M86 643Q86 653 97 653Q108 653 108 643L108 13L372 53Q377 53 381 48.50Q385 44 385 39Q385 30 376 30L99-11L86 0L86 643Z"  horiz-adv-x="431" vert-adv-y="1000"  />

      
      <glyph glyph-name="uni4d" unicode="&#x4d;" d="M105-3Q105-14 94-14Q83-14 83-3L83 637L104 641Q114 615 124 590Q148 530 180 460Q220 371 265 285Q284 248 298.50 206Q313 164 326 104Q338 173 372 238Q399 290 438 337Q498 411 545 488Q576 540 603 599Q612 620 621 641L643 637L643 0Q643-11 632-11Q620-11 620 0L620 583Q596 529 561 471Q515 395 454 322Q405 264 377 197Q341 113 341 22L319 20Q307 102 287.50 166Q268 230 245 274Q202 356 161 448Q134 508 105 579L105-3Z"  horiz-adv-x="709" vert-adv-y="1000"  />

      
      <glyph glyph-name="uni4e" unicode="&#x4e;" d="M102 0Q102-11 91-11Q80-11 80 0L80 634L101 641Q162 530 198 469.50Q234 409 277 359Q347 276 386 219Q439 142 465 74L465 634Q465 645 477 645Q488 645 488 634L488 0L465-3Q451 58 422.50 115Q394 172 351 231Q317 278 260 344Q212 402 169 476Q135 535 102 595L102 0Z"  horiz-adv-x="527" vert-adv-y="1000"  />

      
      <glyph glyph-name="uni4f" unicode="&#x4f;" d="M355 662Q446 641 486 567Q526 493 526 352Q526 224 436 106.50Q346-11 248-11Q233-11 219-8Q129 15 83 98Q42 171 42 274Q42 404 133.50 534Q225 664 329 664Q346 664 355 662M349 640Q337 643 324 643Q238 643 151 518Q64 393 64 274Q64 175 101 109Q143 35 224 14Q236 11 249 11Q332 11 418 123Q504 235 504 352Q504 492 469 556Q434 620 349 640Z"  horiz-adv-x="560" vert-adv-y="1000"  />

      
      <glyph glyph-name="uni50" unicode="&#x50;" d="M144 637L144 570Q215 613 276 639Q363 676 422 676Q456 676 479.50 665.50Q503 655 517 628Q524 611 524 591Q524 502 380 416Q256 342 144 327L144 3Q144-8 133-8Q122-8 122 3L122 528L95 512Q91 509 84 511.50Q77 514 77 522Q77 527 82 530L122 556L122 637Q122 648 133 648Q144 648 144 637M144 541L144 349Q243 361 367 436Q504 519 504 589Q504 605 497 619Q485 656 433 656Q370 656 247 596Q193 570 144 541Z"  horiz-adv-x="584" vert-adv-y="1000"  />

      
      <glyph glyph-name="uni51" unicode="&#x51;" d="M526 363Q526 301 502.50 237Q479 173 438 118L565-12Q570-18 566-24Q562-30 555-30Q551-30 548-27L424 100Q383 50 336.50 22Q290-6 245-6Q233-6 219-3Q129 21 83 106Q42 181 42 285Q42 413 131 533.50Q220 654 323 654Q337 654 352 651Q445 631 485.50 566Q526 501 526 363M224 19Q236 16 248 16Q285 16 327 43.50Q369 71 407 117L316 211Q313 215 314.50 222Q316 229 325 229Q329 229 332 226L421 136Q458 186 481 246.50Q504 307 504 363Q504 498 469.50 552.50Q435 607 346 629Q332 632 320 632Q232 632 148 518Q64 404 64 285Q64 187 102 117Q144 40 224 19Z"  horiz-adv-x="603" vert-adv-y="1000"  />

      
      <glyph glyph-name="uni52" unicode="&#x52;" d="M100 640L100 596Q156 623 209 640Q278 662 332 662Q372 662 402 648Q432 634 448 603Q455 585 455 565Q455 483 336 417Q228 357 123 357L498 8Q505 1 498-7.50Q491-16 483-8L100 348L100 6Q100-5 89-5Q78-5 78 6L78 560L50 546Q47 544 40.50 547Q34 550 34 558Q34 563 39 566L78 586L78 640Q78 651 89 651Q100 651 100 640M100 569L100 381Q115 377 136 377Q225 377 328 437Q436 500 436 564Q436 578 428 594Q419 618 398 628.50Q377 639 343 639Q294 639 217 614Q163 596 100 569Z"  horiz-adv-x="550" vert-adv-y="1000"  />

      
      <glyph glyph-name="uni53" unicode="&#x53;" d="M511 586Q518 578 509.50 570.50Q501 563 494 571Q466 600 436.50 612Q407 624 376 624Q364 624 347.50 622Q331 620 317 618Q217 600 158 543Q106 492 106 433Q106 393 133.50 367.50Q161 342 211 342Q236 342 260.50 347.50Q285 353 317 366Q382 393 438 393Q504 393 541 354Q578 315 578 255Q578 193 540 135Q497 70 421 29Q385 9 345-1.50Q305-12 268-12Q189-12 134.50 27.50Q80 67 80 126Q80 137 91 137Q102 137 102 126Q102 79 150.50 44.50Q199 10 271 10Q307 10 339.50 18.50Q372 27 410 48Q481 90 521 150Q557 204 557 259Q557 308 525 339Q493 370 436 370Q385 370 323 344.50Q261 319 208 319Q150 319 118 351Q86 383 86 433Q86 502 142 560Q206 626 313 640Q320 641 338 643.50Q356 646 373 646Q410 646 444.50 632.50Q479 619 511 586Z"  horiz-adv-x="642" vert-adv-y="1000"  />

      
      <glyph glyph-name="uni54" unicode="&#x54;" d="M23 570L211 606Q211 611 220 611Q226 611 229 608L457 653Q470 653 470 640Q470 631 461 631L233 587L233 0Q233-11 222-11Q211-11 211 0L211 583L27 548Q14 548 14 561Q14 570 23 570Z"  horiz-adv-x="499" vert-adv-y="1000"  />

      
      <glyph glyph-name="uni55" unicode="&#x55;" d="M84 637Q84 648 95 648Q106 648 106 637L105 180Q105 96 127 61Q159 11 249 11Q316 11 387 82Q464 159 464 245L464 639Q464 650 476 650Q487 650 487 639L487 245Q487 146 405 65Q328-11 249-11Q150-11 111 50Q83 94 83 180L84 637Z"  horiz-adv-x="547" vert-adv-y="1000"  />

      
      <glyph glyph-name="uni56" unicode="&#x56;" d="M9 634Q4 649 20 649Q27 649 30 642Q44 602 70.50 503.50Q97 405 126 284Q159 146 172 75Q193 178 241 287Q275 364 339 477Q386 559 433 641Q436 647 442 647Q448 647 452.50 641.50Q457 636 453 630Q400 538 348 447Q281 328 244 235Q194 109 183 0L161 0Q155 61 122 206Q94 331 60 458.50Q26 586 9 634Z"  horiz-adv-x="499" vert-adv-y="1000"  />

      
      <glyph glyph-name="uni57" unicode="&#x57;" d="M44 635Q44 646 55 646Q66 646 66 635Q66 606 87.50 504Q109 402 131 299Q161 156 171 87Q187 163 227 292Q286 485 289 495Q319 599 319 635L341 635Q341 594 368 486Q380 436 425 274Q465 127 478 68Q493 142 532 283Q562 392 592.50 503Q623 614 623 641Q623 652 634 652Q645 652 645 641Q645 603 609 473.50Q573 344 537 218Q497 70 490 3L468 2Q461 54 431 168Q429 177 375 372Q341 497 329 557Q317 503 275 376Q227 228 211 172Q180 60 180 0L158 0Q158 77 129 222Q121 261 74 470Q44 603 44 635Z"  horiz-adv-x="699" vert-adv-y="1000"  />

      
      <glyph glyph-name="uni58" unicode="&#x58;" d="M212 347Q166 433 122 518Q78 603 68 633Q66 640 70 644Q74 648 80 648Q88 648 89 641Q97 614 138 535Q145 521 225 369Q298 486 333 546Q380 627 380 643Q380 653 392 653Q403 653 403 643Q403 625 380 580Q368 556 319 475Q283 414 239 345Q281 268 311 209Q345 143 370 87Q395 31 400 5Q400-8 387-8Q378-8 378 1Q372 28 349.50 79Q327 130 295 192Q278 225 225 323Q148 198 142 188Q98 115 77 73Q51 21 51 1Q51-11 41-11Q29-11 29 1Q32 25 59.50 80.50Q87 136 127 205Q153 250 212 347Z"  horiz-adv-x="445" vert-adv-y="1000"  />

      
      <glyph glyph-name="uni59" unicode="&#x59;" d="M68 633Q66 640 70 644Q74 648 80 648Q88 648 89 641Q97 614 138 535Q145 521 225 369Q298 486 333 546Q380 627 380 643Q380 653 392 653Q403 653 403 643Q403 627 378 581Q358 544 316 477.50Q274 411 233 347L233 0Q233-11 222-11Q211-11 211 0L211 347Q166 433 122 519Q78 605 68 633Z"  horiz-adv-x="445" vert-adv-y="1000"  />

      
      <glyph glyph-name="uni5a" unicode="&#x5a;" d="M105 570Q105 560 95 560Q83 560 83 572L86 633L97 643L452 654L461 637L67 12L422 25L429 77Q429 86 439 86Q452 86 452 73L443 12L432 3L47-11L38 6L431 632Q385 632 242 626Q195 624 108 620L105 570Z"  horiz-adv-x="499" vert-adv-y="1000"  />

      
      <glyph glyph-name="uni5b" unicode="&#x5b;" d="M250 648Q263 648 263 635Q263 626 254 626L66 586L66-194L253-158Q266-158 266-171Q266-180 257-180L57-219L44-208L44 596L54 607L250 648Z"  horiz-adv-x="297" vert-adv-y="1000"  />

      
      <glyph glyph-name="uni5c" unicode="&#x5c;" d="M45 636Q43 643 47 647Q51 651 57 651Q65 651 66 644L262 18Q267 3 251 3Q243 3 242 10L45 636Z"  horiz-adv-x="307" vert-adv-y="1000"  />

      
      <glyph glyph-name="uni5d" unicode="&#x5d;" d="M52 587Q39 587 39 600Q39 609 48 609L253 651L266 640L266-163L258-175L53-222Q39-222 39-207Q39-199 47-199L244-154L244 626L52 587Z"  horiz-adv-x="312" vert-adv-y="1000"  />

      
      <glyph glyph-name="uni5e" unicode="&#x5e;" d="M103 431Q100 427 96 427Q90 427 85.50 432.50Q81 438 85 444L237 649L255 649L416 444Q419 440 417 433.50Q415 427 406 427Q402 427 399 431L247 625L103 431Z"  horiz-adv-x="470" vert-adv-y="1000"  />

      
      <glyph glyph-name="uni5f" unicode="&#x5f;" d="M14-102Q3-102 3-91Q3-80 14-80L474-80Q485-80 485-91Q485-102 474-102L14-102Z"  horiz-adv-x="484" vert-adv-y="1000"  />

      
      <glyph glyph-name="uni60" unicode="&#x60;" d="M45 632Q38 638 45.50 646Q53 654 60 648L190 521Q197 515 190 506.50Q183 498 175 504L45 632Z"  horiz-adv-x="226" vert-adv-y="1000"  />

      
      <glyph glyph-name="uni61" unicode="&#x61;" d="M39 45Q39 112 118 163Q211 223 367 223L367 296Q367 357 347 390Q324 428 276 428Q243 428 202.50 399Q162 370 115 315Q112 311 107 311Q96 311 96 323Q96 327 99 330Q151 389 188 416Q234 450 276 450Q335 450 365 402Q390 362 390 296L390 0Q390-11 379-11Q367-11 367 0L367 85Q303 37 239 12Q182-10 133-10Q93-10 68 5Q43 20 39 45M367 113L367 201Q217 201 129 145Q55 98 61 47Q57 34 77.50 23Q98 12 133 12Q183 12 237 33Q301 58 367 113Z"  horiz-adv-x="448" vert-adv-y="1000"  />

      
      <glyph glyph-name="uni62" unicode="&#x62;" d="M367 383Q369 373 370 360Q371 347 371 336Q371 233 289 143Q231 80 137 28Q66-11 54-11L40-1L40 619Q40 630 51 630Q62 630 62 619L62 298Q118 371 178 410Q238 449 286 449Q352 449 367 383M344 379Q339 427 286 427Q239 427 184 389Q121 346 62 261L62 16Q195 74 271.50 158.50Q348 243 348 334Q348 342 347.50 352Q347 362 344 379Z"  horiz-adv-x="411" vert-adv-y="1000"  />

      
      <glyph glyph-name="uni63" unicode="&#x63;" d="M370 377Q374 371 369.50 365.50Q365 360 359 360Q353 360 350 366Q329 406 305 424.50Q281 443 254 443Q188 443 126 348.50Q64 254 64 169Q64 87 96 47Q124 12 172 12Q223 12 277.50 48.50Q332 85 358 135Q361 141 368 141Q373 141 377 136.50Q381 132 379 126Q353 73 291.50 32Q230-9 170-9Q113-9 80 30Q42 75 42 169Q42 259 107 358Q177 464 252 464Q285 464 314 444Q343 424 370 377Z"  horiz-adv-x="441" vert-adv-y="1000"  />

      
      <glyph glyph-name="uni64" unicode="&#x64;" d="M416 634L416 306L416 276L416 0Q416-11 405-11Q393-11 393 0L393 200Q355 120 277.50 56Q200-8 132-8Q101-8 77 7Q55 25 45.50 48Q36 71 36 103Q36 199 126.50 300.50Q217 402 309 402Q348 402 379 380L393 363L393 634Q393 645 405 645Q416 645 416 634M90 26Q108 11 134 11Q201 11 288 97Q375 183 393 265L393 322Q385 349 364 363Q341 383 310 383Q233 383 143.50 282.50Q54 182 54 98Q54 49 90 26Z"  horiz-adv-x="475" vert-adv-y="1000"  />

      
      <glyph glyph-name="uni65" unicode="&#x65;" d="M65 248Q52 204 52 165Q52 97 89 50Q99 34 122.50 25Q146 16 174 16Q239 16 300 55Q369 100 393 175Q396 183 403 183Q417 183 414 168Q387 86 314 38Q248-6 176-6Q141-6 114.50 4Q88 14 69 39.50Q50 65 39.50 100Q29 135 29 172Q29 264 81.50 346.50Q134 429 202 447Q222 451 231 451.50Q240 452 245 452Q296 452 338.50 426Q381 400 402 354L394 338L65 248M73 274L376 355Q356 390 321.50 409.50Q287 429 244 429Q224 429 208 425Q170 417 132.50 374.50Q95 332 73 274Z"  horiz-adv-x="455" vert-adv-y="1000"  />

      
      <glyph glyph-name="uni66" unicode="&#x66;" d="M330 436L177 393L177 0Q177-11 166-11Q155-11 155 0L155 385L47 356Q34 353 34 367Q34 375 42 378L155 410L155 569Q155 616 180.50 640.50Q206 665 244 665Q275 665 300 648.50Q325 632 334 600Q339 585 323 585Q317 585 314 593Q307 615 286.50 628.50Q266 642 244 642Q216 642 196.50 623.50Q177 605 177 569L177 417L324 458Q338 461 338 446Q338 439 330 436Z"  horiz-adv-x="374" vert-adv-y="1000"  />

      
      <glyph glyph-name="uni67" unicode="&#x67;" d="M362 436Q373 425 373 419Q380 419 380 409L380-35Q380-105 335-141Q295-173 234-173Q188-173 149-153.50Q110-134 99-102Q99-88 113-88Q119-88 119-95Q126-120 157.50-135Q189-150 230-150Q282-150 317-124Q358-93 358-35L357 299Q350 276 338 248Q323 213 295 155Q255 86 208 43Q156-4 112-4Q98-4 84 2Q65 13 56 40.50Q47 68 47 104Q47 158 65.50 216.50Q84 275 115 312Q173 376 240 411Q296 440 338 440Q354 440 362 436M132 297Q103 265 86 207.50Q69 150 69 96Q69 30 93 22Q101 17 111 17Q145 17 193 60Q241 103 275.50 165.50Q310 228 335 302Q357 368 357 402Q357 417 351 417Q349 419 340 419Q306 419 255 394Q186 360 132 297Z"  horiz-adv-x="436" vert-adv-y="1000"  />

      
      <glyph glyph-name="uni68" unicode="&#x68;" d="M105 637L105 322Q147 381 199 421Q256 464 300 464Q336 464 356.50 433Q377 402 377 332L377 0Q377-11 366-11Q355-11 355 0L355 332Q355 389 339 415.50Q323 442 295 442Q255 442 201.50 395.50Q148 349 105 283L105 0Q105-11 94-11Q83-11 83 0L83 637Q83 648 94 648Q105 648 105 637Z"  horiz-adv-x="436" vert-adv-y="1000"  />

      
      <glyph glyph-name="uni69" unicode="&#x69;" d="M84 597Q84 608 95 608Q106 608 106 597L106 562Q106 551 95 551Q84 551 84 562L84 597M86 443Q86 454 97 454Q108 454 108 443L108 0Q108-11 97-11Q86-11 86 0L86 443Z"  horiz-adv-x="183" vert-adv-y="1000"  />

      
      <glyph glyph-name="uni6a" unicode="&#x6a;" d="M239 601Q239 612 250 612Q261 612 261 601L261 562Q261 551 250 551Q239 551 239 562L239 601M236 446Q236 457 248 457Q259 457 259 446L259 44L259-25Q259-87 224-122Q193-153 148-153Q107-153 76-126Q45-99 45-53Q45-42 56-42Q67-42 67-53Q67-88 91.50-109.50Q116-131 149-131Q185-131 210.50-104.50Q236-78 236-25L236 44L236 446Z"  horiz-adv-x="326" vert-adv-y="1000"  />

      
      <glyph glyph-name="uni6b" unicode="&#x6b;" d="M66 634L66 266L283 457Q287 460 294.50 458.50Q302 457 302 448Q302 443 298 440L80 249L334 11Q341 5 334-3.50Q327-12 319-6L66 232L66 3Q66-8 55-8Q43-8 43 3L44 634Q44 645 55 645Q66 645 66 634Z"  horiz-adv-x="391" vert-adv-y="1000"  />

      
      <glyph glyph-name="uni6c" unicode="&#x6c;" d="M86 640Q86 651 97 651Q108 651 108 640L108 0Q108-11 97-11Q86-11 86 0L86 640Z"  horiz-adv-x="174" vert-adv-y="1000"  />

      
      <glyph glyph-name="uni6d" unicode="&#x6d;" d="M584 363Q585 369 585 375Q585 381 585 384Q585 420 559 420Q521 420 445 350Q375 286 338 229L338 0Q338-11 327-11Q316-11 316 0L316 220L315 233L316 363Q317 369 317 375Q317 381 317 384Q317 420 291 420Q252 420 173 347Q100 280 66 224L66 0Q66-11 55-11Q44-11 44 0L44 446Q44 457 55 457Q66 457 66 446L66 260Q119 328 170 375Q241 440 283 440Q306 440 320 422Q334 404 338 363L337 264Q390 332 441 378Q509 440 551 440Q574 440 588.50 422.50Q603 405 607 363L607 0Q607-11 596-11Q584-11 584 0L584 363Z"  horiz-adv-x="660" vert-adv-y="1000"  />

      
      <glyph glyph-name="uni6e" unicode="&#x6e;" d="M72 443L72 263Q118 332 177 384Q242 442 285 442Q310 442 324.50 423Q339 404 343 360L343-3Q343-14 332-14Q321-14 321-3L321 360Q322 367 322 379Q322 421 291 421Q250 421 180.50 357.50Q111 294 71 221L72-3Q72-14 61-14Q50-14 50-3L50 223L50 227L50 443Q50 454 61 454Q72 454 72 443Z"  horiz-adv-x="389" vert-adv-y="1000"  />

      
      <glyph glyph-name="uni6f" unicode="&#x6f;" d="M96 21Q63 43 47.50 74Q32 105 32 141Q32 239 122.50 336.50Q213 434 303 434Q343 434 372 411Q397 391 408.50 361.50Q420 332 420 294Q420 191 349 95Q274-7 182-7Q139-7 96 21M109 40Q125 29 144 23.50Q163 18 183 18Q266 18 341 100Q416 182 416 272Q416 307 402.50 337Q389 367 359 392Q340 407 319 414.50Q298 422 276 422Q194 422 125 333.50Q56 245 56 152Q56 116 68.50 87.50Q81 59 109 40Z"  horiz-adv-x="460" vert-adv-y="1000"  />

      
      <glyph glyph-name="uni70" unicode="&#x70;" d="M63 449L63 332Q95 391 145 434Q202 483 254 483Q279 483 299.50 472Q320 461 338 435Q361 396 361 334Q361 221 297 115Q229 2 147 2Q125 2 103.50 10.50Q82 19 62 38L63-216Q63-227 52-227Q41-227 41-216L41 449Q41 460 52 460Q63 460 63 449M63 275L63 70Q81 45 102 33Q123 21 144 21Q214 21 279 129Q341 233 341 336Q341 390 319 424Q299 462 260 462Q206 462 142.50 400Q79 338 66 280L63 275Z"  horiz-adv-x="399" vert-adv-y="1000"  />

      
      <glyph glyph-name="uni71" unicode="&#x71;" d="M416 454Q432 452 432 443L432-186L510-106Q517-99 525.50-106Q534-113 526-121L429-221L410-213L409 373Q377 246 313 137Q232-1 152-1Q109-1 69 40Q53 59 44 91.50Q35 124 35 158Q35 273 105 361Q188 465 325 465Q350 465 369 463Q388 461 416 454M86 54Q101 33 116.50 23.50Q132 14 149 14Q201 14 266 110Q315 182 363 298Q402 391 410 427L410 432Q366 443 321 443Q196 443 121 345Q57 261 57 156Q57 89 86 54Z"  horiz-adv-x="574" vert-adv-y="1000"  />

      
      <glyph glyph-name="uni72" unicode="&#x72;" d="M105 449L105 295Q144 338 183 381Q264 467 306 467Q318 467 331 459Q341 447 343.50 415.50Q346 384 346 379Q346 371 346 369.50Q346 368 346 362.50Q346 357 335 357Q324 357 324 368Q322 394 321 419Q320 444 317 444Q314 450 308 450Q286 450 219 385Q163 331 105 261L105 0Q105-11 94-11Q83-11 83 0L83 449Q83 460 94 460Q105 460 105 449Z"  horiz-adv-x="364" vert-adv-y="1000"  />

      
      <glyph glyph-name="uni73" unicode="&#x73;" d="M356 454Q365 454 365 445Q365 432 353 432Q330 436 311.50 437Q293 438 270 438Q166 438 106 392Q55 353 55 302Q55 277 69.50 261.50Q84 246 112 246Q141 246 181 268Q256 309 316 309Q367 309 394.50 279.50Q422 250 422 205Q422 164 399 124Q376 84 333.50 55Q291 26 248.50 10Q206-6 166-6Q127-6 97 11.50Q67 29 51 67Q46 83 62 83Q68 83 71 77Q83 46 108 31Q133 16 167 16Q200 16 240 31Q280 46 318 73Q359 106 380.50 142.50Q402 179 402 212Q402 244 381 263.50Q360 283 319 283Q291 283 261.50 275Q232 267 188.50 246.50Q145 226 108 226Q73 226 53.50 246.50Q34 267 34 298Q34 358 91 406Q159 463 267 463Q308 463 356 454Z"  horiz-adv-x="479" vert-adv-y="1000"  />

      
      <glyph glyph-name="uni74" unicode="&#x74;" d="M373 440L180 390L180 15Q256 44 296.50 70Q337 96 398 155Q404 160 410 156Q416 152 416 145Q416 141 413 138Q350 78 303 49Q261 23 173-11L158-1L158 384L47 354Q34 354 34 369Q34 377 42 377L158 407L158 532Q158 543 169 543Q180 543 180 532L180 413L367 463Q381 463 381 448Q381 440 373 440Z"  horiz-adv-x="443" vert-adv-y="1000"  />

      
      <glyph glyph-name="uni75" unicode="&#x75;" d="M324-6L324 103Q294 56 240 22Q186-12 139-12Q98-12 76 12Q50 40 50 97L50 443Q50 454 61 454Q72 454 72 443L72 97Q72 55 89.50 36Q107 17 137 17Q193 17 258.50 70.50Q324 124 324 171L324 443Q324 454 335 454Q346 454 346 443L346-6Q346-17 335-17Q324-17 324-6Z"  horiz-adv-x="397" vert-adv-y="1000"  />

      
      <glyph glyph-name="uni76" unicode="&#x76;" d="M42 447Q42 459 55 459Q64 459 64 451Q68 415 73 379Q86 286 98 217Q114 125 133 46Q155 125 237 255Q243 264 362 439Q365 444 371 444Q378 444 381.50 438.50Q385 433 380 426Q285 290 238 211Q147 59 147-6L126-9Q106 53 85 169Q69 254 54 359Q48 403 42 447Z"  horiz-adv-x="422" vert-adv-y="1000"  />

      
      <glyph glyph-name="uni77" unicode="&#x77;" d="M44 452Q44 463 55 463Q66 463 66 452Q66 417 88 281.50Q110 146 133 48Q144 87 179 194Q238 372 238 452L260 453Q260 404 278 333Q292 279 320 195Q343 126 367 58Q378 104 415 182Q477 312 479 316Q510 392 510 446Q510 463 520 463Q532 463 532 452Q524 383 486 290Q452 212 417 130Q382 48 382 8L361 5Q347 49 319 134Q267 290 251 365Q240 307 217 237Q194 167 172 99.50Q150 32 144-2L122-3Q99 84 71.50 246Q44 408 44 452Z"  horiz-adv-x="570" vert-adv-y="1000"  />

      
      <glyph glyph-name="uni78" unicode="&#x78;" d="M377 454Q373 442 348 406Q318 364 235 257Q319 160 348 100Q373 48 373 0Q373-11 362-11Q351-11 351 0Q351 54 312 118Q285 162 222 237Q198 205 149 140Q108 85 88 55Q60 13 54-4Q53-11 45-11Q31-11 34 4Q45 34 98 108Q137 163 207 254Q142 331 124 356Q84 411 71 454Q71 468 86 468Q93 468 93 460Q104 416 158 348Q171 332 221 273Q287 358 294 367Q355 447 355 460Q355 468 363 468Q377 468 377 454Z"  horiz-adv-x="431" vert-adv-y="1000"  />

      
      <glyph glyph-name="uni79" unicode="&#x79;" d="M443 449Q428 413 414 377Q370 268 346 211Q303 109 266 26L263 18Q254-2 231-50Q213-88 207-99Q196-120 169.50-134.50Q143-149 114-149Q79-149 57-127Q31-100 31-49Q31-38 43-38Q54-38 54-49Q54-90 72-110Q87-127 115-127Q137-127 157-116Q177-105 188-88Q208-53 243 27L66 448Q61 463 77 463Q83 463 86 457L256 54Q283 117 331 232Q394 385 396 389Q409 422 423 456Q426 463 433 463Q436 463 441 459.50Q446 456 443 449Z"  horiz-adv-x="485" vert-adv-y="1000"  />

      
      <glyph glyph-name="uni7a" unicode="&#x7a;" d="M104 410Q104 399 93 399Q82 399 82 410L82 437L93 448Q168 449 208 450Q329 454 364 466L377 450Q347 405 317 360Q217 211 191 173Q120 70 79 17Q119 23 187.50 26Q256 29 346 29L346 41Q346 51 357 51Q368 51 368 41L368 18L357 7Q351 7 340.50 7Q330 7 319 7Q240 7 162.50 3Q85-1 54-11L42 7Q53 16 117 107Q161 170 243 291Q300 375 343 439Q308 433 242.50 429.50Q177 426 104 426L104 410Z"  horiz-adv-x="427" vert-adv-y="1000"  />

      
      <glyph glyph-name="uni7b" unicode="&#x7b;" d="M332 648Q343 648 343 637Q343 626 332 626Q232 626 205 585Q182 550 182 421Q182 394 182 365.50Q182 337 183 307Q183 270 170 247Q157 224 135 213Q159 202 172.50 181Q186 160 186 122Q186 101 185.50 80Q185 59 185 38Q185-108 225-157Q259-199 332-199Q343-199 343-211Q343-222 332-222Q250-222 209-173Q162-116 162 41Q162 61 162 81.50Q162 102 163 122Q163 169 134 188Q114 201 76 201Q64 201 56 200.50Q48 200 43 200L43 223Q63 222 75 222Q112 222 132 236Q161 256 161 307L161 397Q161 547 185 590Q217 648 332 648Z"  horiz-adv-x="393" vert-adv-y="1000"  />

      
      <glyph glyph-name="uni7c" unicode="&#x7c;" d="M57 643Q57 653 68 653Q79 653 79 643L79 0Q79-11 68-11Q57-11 57 0L57 643Z"  horiz-adv-x="130" vert-adv-y="1000"  />

      
      <glyph glyph-name="uni7d" unicode="&#x7d;" d="M37 626Q26 626 26 637Q26 648 37 648Q151 648 184 590Q209 546 209 396L209 307Q209 256 237 236Q257 222 294 222Q303 222 311 222Q319 222 326 223L326 200Q307 201 294 201Q256 201 236 188Q206 169 206 122Q206 101 206 79Q206 57 207 35Q207-120 161-174Q120-222 37-222Q26-222 26-211Q26-199 37-199Q110-199 145-156Q185-107 185 44Q185 61 184.50 78Q184 95 184 112L184 122Q184 159 198 180.50Q212 202 235 212Q212 224 201 244Q187 269 187 307Q187 336 187 363Q187 390 188 416Q188 549 166 584Q139 626 37 626Z"  horiz-adv-x="384" vert-adv-y="1000"  />

      
      <glyph glyph-name="uni7e" unicode="&#x7e;" d="M66 166Q66 155 55 155Q44 155 44 166Q44 235 84 275Q119 310 168 310Q207 310 235 287Q263 264 263 224Q263 203 283.50 188.50Q304 174 332 174Q373 174 400 202Q432 236 432 302Q432 313 443 313Q454 313 454 302Q454 228 413 187Q378 152 328 152Q292 152 266.50 171.50Q241 191 241 224Q241 252 218.50 269.50Q196 287 164 287Q123 287 97 260Q66 228 66 166Z"  horiz-adv-x="499" vert-adv-y="1000"  />

      
      <glyph glyph-name="unia4" unicode="&#xa4;" d="M141 188L93 143L86 135L78 134Q72 134 67 138L62 147L62 157L70 167L117 212Q104 230 96 251Q88 272 88 295Q87 305 90 324Q94 340 99 350Q104 364 116 379L70 425Q63 431 63 440Q61 447 67 451Q72 457 79 457L85 454Q91 450 93 448L139 403Q177 432 224 432Q272 432 307 403L351 448Q363 457 367 457Q375 457 380 450.50Q385 444 385 440L381 430L375 425L331 379Q342 363 351 338Q355 328 357.50 318.50Q360 309 360 295L356 269Q350 238 331 212L375 167Q385 158 385 151L379 139Q377 136 366 134L351 143L308 188Q268 160 224 160Q210 160 203 161Q196 162 179 167.50Q162 173 141 188M327 295Q327 337 295 368Q282 381 262 391Q250 396 243 397.50Q236 399 224 399Q182 399 150 368Q131 348 124 319L122 308Q120 297 121 295Q121 253 152 223Q183 193 224 193Q263 193 295 224Q315 243 325 278L327 295Z"  horiz-adv-x="450" vert-adv-y="1000"  />

      
      <glyph glyph-name="unia7" unicode="&#xa7;" d="M314 545L331 461Q334 452 330 448.50Q326 445 323 445Q315 447 313 449L307 461L295 521L159 521Q128 521 110 500Q97 484 97 464L99 444Q100 435 120 415Q147 390 241 341L290 317Q358 282 388 256Q414 233 420 205L421 193Q421 175 407 161Q387 141 346 141Q364 120 368 103L371 82Q371 71 366 52.50Q361 34 340.50 19.50Q320 5 289 5L129 5L111 89L111 100Q117 104 120 105Q126 105 128.50 102Q131 99 132.50 95.50Q134 92 135 89L148 28L283 28Q319 28 336 52Q346 69 346 86L344 104Q342 116 322 134Q300 157 217 201L161 229Q83 270 55.50 296Q28 322 22 345L21 356Q21 372 35 389Q53 409 97 409Q81 426 75 448L73 472L76 494Q82 515 103 530Q124 545 151 545L314 545M120 387L108 385Q74 385 56 373Q45 362 45 344Q50 326 77 304Q89 295 114 281Q146 263 173 248L227 220Q295 185 323 162Q326 165 335 165Q372 165 385.50 177Q399 189 396 205Q394 213 389 220L375 237Q354 261 285 294L229 323L161 359L120 387Z"  horiz-adv-x="450" vert-adv-y="1000"  />

      
      <glyph glyph-name="unia9" unicode="&#xa9;" d="M355 662Q444 641 485 566.50Q526 492 526 352Q526 225 436 107Q346-11 248-11L219-8Q129 14 83 98Q42 171 42 274Q42 403 133.50 533.50Q225 664 329 664Q348 664 355 662M349 640L324 643Q239 643 151.50 518Q64 393 64 274Q64 174 101 109Q142 37 224 14L249 11Q331 11 417.50 123Q504 235 504 352Q504 493 469.50 556Q435 619 349 640M440 477Q443 471 440 466.50Q437 462 429 460Q423 460 420 466Q399 504 374.50 523.50Q350 543 324 543Q258 543 196 448Q166 403 150 357.50Q134 312 134 269Q134 188 166 147Q193 112 242 112Q293 112 347 148Q401 184 428 235Q431 241 438 241Q445 238 447 236Q449 234 449 226Q424 174 362 132.50Q300 91 240 91Q183 91 150 130Q112 176 112 269Q112 360 177 458Q247 564 322 564Q355 564 383 544.50Q411 525 440 477Z"  horiz-adv-x="560" vert-adv-y="1000"  />

      
      <glyph glyph-name="uniab" unicode="&#xab;" d="M414 463Q420 468 426 464Q432 460 432 453Q432 449 428 446L221 255L428 61Q432 58 432 53Q432 47 426 43Q420 39 414 44L198 247L198 263L414 463M253 463Q261 470 268.50 461.50Q276 453 268 446L60 255L268 61Q275 55 268 46Q261 37 253 44L37 247L37 263L253 463Z"  horiz-adv-x="508" vert-adv-y="1000"  />

      
      <glyph glyph-name="uniac" unicode="&#xac;" d="M28 393Q18 393 17 404Q17 414 28 415L478 415L474 450Q474 462 486 462Q495 462 496 452L500 415L527 415Q537 415 538 404Q538 394 527 393L502 393L535 47Q535 38 523 36Q514 36 513 46L480 393L28 393Z"  horiz-adv-x="550" vert-adv-y="1000"  />

      
      <glyph glyph-name="uniae" unicode="&#xae;" d="M476 73Q480 69 478 61Q475 55 468 54L461 57L184 316L184 70Q184 58 173 58Q164 58 162 70L162 477L145 469Q141 466 135 469Q131 471 130 480Q133 486 135 488L162 503L162 540Q162 549 173 550Q183 550 184 540L184 511Q219 528 268 543Q317 558 351 558Q364 558 376 556.50Q388 555 404 547Q427 538 440 513L445 485Q445 424 360 373Q280 327 205 327L476 73M526 352Q526 225 436 107Q346-11 248-11L219-8Q129 14 83 98Q42 171 42 274Q42 403 133.50 533.50Q225 664 329 664Q348 664 355 662Q444 641 485 566.50Q526 492 526 352M504 352Q504 493 469.50 556Q435 619 349 640L324 643Q239 643 151.50 518Q64 393 64 274Q64 174 101 109Q142 37 224 14L249 11Q331 11 417.50 123Q504 235 504 352M425 510Q419 527 402.50 535Q386 543 363 543Q326 543 270 524Q241 514 229 509Q217 504 183 489L183 347L208 344Q273 344 350 389Q431 437 431 486Q431 498 425 510Z"  horiz-adv-x="560" vert-adv-y="1000"  />

      
      <glyph glyph-name="unib0" unicode="&#xb0;" d="M190 518Q184 486 155 454Q112 411 77 411Q39 411 20 454Q8 477 8 500L10 518Q18 550 52.50 587.50Q87 625 123 625Q158 625 182 582Q193 560 193 540L190 518M160 518L162 533Q162 552 149 569Q136 592 117 595Q102 595 73 569Q49 548 40 518L39 505Q39 487 51 466Q67 443 84 440Q98 440 126 464Q154 488 160 518Z"  horiz-adv-x="200" vert-adv-y="1000"  />

      
      <glyph glyph-name="unib1" unicode="&#xb1;" d="M445 439Q458 442 458 428Q458 419 450 418L51 333Q38 330 38 344Q38 353 46 354L445 439M241 583Q241 593 252 594Q262 594 263 583L263 170Q263 160 252 159Q242 159 241 170L241 583M445 159Q458 162 458 148Q458 139 450 138L51 53Q38 50 38 64Q38 73 46 74L445 159Z"  horiz-adv-x="499" vert-adv-y="1000"  />

      
      <glyph glyph-name="unib5" unicode="&#xb5;" d="M346-6Q346-16 335-17Q325-17 324-6L324 103Q294 57 239 22.50Q184-12 139-12Q99-12 76 12L71 18L71-210Q71-220 60-221Q50-221 49-210L49 283L50 288L50 443Q50 453 61 454Q71 454 72 443L72 97Q72 54 90 35.50Q108 17 137 17Q193 17 258.50 70.50Q324 124 324 171L324 443Q324 453 335 454Q345 454 346 443L346-6Z"  horiz-adv-x="397" vert-adv-y="1000"  />

      
      <glyph glyph-name="uni03BC" unicode="&#x03BC;" d="M346-6Q346-16 335-17Q325-17 324-6L324 103Q294 57 239 22.50Q184-12 139-12Q99-12 76 12L71 18L71-210Q71-220 60-221Q50-221 49-210L49 283L50 288L50 443Q50 453 61 454Q71 454 72 443L72 97Q72 54 90 35.50Q108 17 137 17Q193 17 258.50 70.50Q324 124 324 171L324 443Q324 453 335 454Q345 454 346 443L346-6Z"  horiz-adv-x="397" vert-adv-y="1000"  />

      
      <glyph glyph-name="unib6" unicode="&#xb6;" d="M337 543Q337 552 348 553Q358 553 359 543L359-220Q359-230 348-231Q338-231 337-220L337 543M411 543Q411 552 422 553Q432 553 433 543L433-220Q433-230 422-231Q412-231 411-220L411 543M113 151Q80 173 64.50 204Q49 235 49 271Q49 369 139.50 466.50Q230 564 320 564Q360 564 389 541Q414 521 425.50 491.50Q437 462 437 424Q437 321 366 225Q291 123 199 123Q156 123 113 151M126 170Q142 159 161 153.50Q180 148 200 148Q283 148 358 230Q433 312 433 402Q433 437 419.50 467Q406 497 376 522Q357 537 336 544.50Q315 552 293 552Q211 552 142 463.50Q73 375 73 282Q73 246 85.50 217.50Q98 189 126 170Z"  horiz-adv-x="574" vert-adv-y="1000"  />

      
      <glyph glyph-name="unibb" unicode="&#xbb;" d="M43 45Q37 40 31 44Q25 48 25 55Q25 59 29 62L236 253L29 447Q25 450 25 455Q25 461 31.50 465Q38 469 43 464L259 261L259 245L43 45M204 45Q196 38 188.50 46.50Q181 55 189 62L397 253L189 447Q182 453 189 462Q196 471 204 464L420 261L420 245L204 45Z"  horiz-adv-x="461" vert-adv-y="1000"  />

      
      <glyph glyph-name="uni2013" unicode="&#x2013;" d="M36 232Q24 232 24 244Q24 253 34 254L254 273Q266 273 266 261Q266 252 256 251L36 232Z"  horiz-adv-x="294" vert-adv-y="1000"  />

      
      <glyph glyph-name="uni2014" unicode="&#x2014;" d="M22 232Q10 232 10 244Q10 253 20 254L530 276Q542 276 542 264Q542 255 532 254L22 232Z"  horiz-adv-x="550" vert-adv-y="1000"  />

      
      <glyph glyph-name="uni2018" unicode="&#x2018;" d="M161 507Q166 502 163 495Q160 489 153 489L146 492L5 634Q2 638 3 645Q6 650 12 652Q18 650 20 648L161 507Z"  horiz-adv-x="192" vert-adv-y="1000"  />

      
      <glyph glyph-name="uni2019" unicode="&#x2019;" d="M191 634L50 492Q44 486 38 489Q32 492 32 500L35 507L176 648L184 652Q194 652 195 641L191 634Z"  horiz-adv-x="192" vert-adv-y="1000"  />

      
      <glyph glyph-name="uni201A" unicode="&#x201A;" d="M146 74Q151 79 158 76Q164 73 164 66L161 59L20-82L12-86Q3-86 2-76L5-68L146 74Z"  horiz-adv-x="192" vert-adv-y="1000"  />

      
      <glyph glyph-name="uni201C" unicode="&#x201C;" d="M311 527L315 519Q315 509 305 508L297 512L155 654Q152 658 153 665Q156 670 162 672Q168 670 170 668L311 527M159 527Q164 522 161 515Q158 509 151 509L144 512L3 654Q-1 658 1 665Q4 670 10 672Q16 670 18 668L159 527Z"  horiz-adv-x="350" vert-adv-y="1000"  />

      
      <glyph glyph-name="uni201D" unicode="&#x201D;" d="M347 654L206 512Q200 506 194 509Q188 512 188 520L191 527L332 668L340 672Q350 672 351 661L347 654M195 654L53 512Q49 508 41 510Q35 513 35 519Q37 525 39 527L180 668L188 672Q198 672 199 661L195 654Z"  horiz-adv-x="350" vert-adv-y="1000"  />

      
      <glyph glyph-name="uni201E" unicode="&#x201E;" d="M297 74Q301 78 308 76Q313 73 315 67Q313 61 311 59L170-82L162-86Q153-86 152-76L155-68L297 74M144 74Q149 79 156 76Q162 73 162 66L159 59L18-82L10-86Q1-86 0-76L3-68L144 74Z"  horiz-adv-x="350" vert-adv-y="1000"  />

      
      <glyph glyph-name="uni2020" unicode="&#x2020;" d="M158-99L158 384L47 354Q34 354 34 369Q34 376 42 377L158 407L158 532Q158 542 169 543Q179 543 180 532L180 413L283 443Q297 443 297 428Q297 421 289 420L180 390L180-98Q180-110 169-110Q159-110 158-99Z"  horiz-adv-x="325" vert-adv-y="1000"  />

      
      <glyph glyph-name="uni2021" unicode="&#x2021;" d="M289 100L180 70L180-98Q180-110 169-110Q159-110 158-99L158 64L47 34Q34 34 34 49Q34 56 42 57L158 87L158 384L47 354Q34 354 34 369Q34 376 42 377L158 407L158 532Q158 542 169 543Q179 543 180 532L180 413L283 443Q297 443 297 428Q297 421 289 420L180 390L180 93L283 123Q297 123 297 108Q297 101 289 100Z"  horiz-adv-x="325" vert-adv-y="1000"  />

      
      <glyph glyph-name="uni2022" unicode="&#x2022;" d="M481 285Q481 238 445.50 201Q410 164 360 164Q312 164 274 199Q239 236 239 285Q239 334 275 370Q311 406 360 406Q407 406 444 370.50Q481 335 481 285Z"  horiz-adv-x="700" vert-adv-y="1000"  />

      
      <glyph glyph-name="uni2026" unicode="&#x2026;" d="M16 41Q16 58 27.50 69.50Q39 81 54 81Q68 81 79 67.50Q90 54 90 38Q90 23 79.50 11.50Q69 0 51-2Q36-2 26 11Q16 24 16 41M136 41Q136 58 147.50 69.50Q159 81 174 81Q188 81 199 67.50Q210 54 210 38Q210 23 199.50 11.50Q189 0 171-2Q156-2 146 11Q136 24 136 41M256 41Q256 58 267.50 69.50Q279 81 294 81Q308 81 319 67.50Q330 54 330 38Q330 23 319.50 11.50Q309 0 291-2Q276-2 266 11Q256 24 256 41Z"  horiz-adv-x="350" vert-adv-y="1000"  />

      
      <glyph glyph-name="uni2030" unicode="&#x2030;" d="M315 518Q309 486 280 454Q237 411 202 411Q164 411 145 454Q133 477 133 500L135 518Q143 550 177.50 587.50Q212 625 248 625Q283 625 307 582Q318 560 318 540L315 518M285 518L287 533Q287 552 274 569Q261 592 242 595Q227 595 198 569Q174 548 165 518L164 505Q164 487 176 466Q192 443 209 440Q223 440 251 464Q279 488 285 518M575 396L169 272L157 270L149 274Q147 277 147 284L153 294L166 300L572 423L583 426L591 419Q593 417 593 411L591 406L587 401L582 398L575 396M320 97Q317 84 308 65L284 33Q244-10 207-10Q174-10 148 32Q137 57 137 79L139 97Q147 129 181.50 166Q216 203 252 203Q287 203 311 160Q322 141 322 117L320 97M290 97L292 112Q292 131 279 148Q265 171 247 174Q228 174 202 148L180 123L170 102L168 85Q168 67 180 44Q198 20 214 19Q229 19 255.50 42.50Q282 66 290 97M582 97Q576 66 546 33Q506-10 470-10Q435-10 411 32Q400 57 400 79L402 97Q410 129 444.50 166Q479 203 515 203Q551 203 573 160Q585 140 585 119L582 97M552 97L554 112Q554 131 541 148Q528 171 509 174Q494 174 466 149Q438 124 432 97L431 84Q431 63 442 44Q460 20 476 19Q491 19 517.50 42.50Q544 66 552 97Z"  horiz-adv-x="700" vert-adv-y="1000"  />

      
      <glyph glyph-name="uni2039" unicode="&#x2039;" d="M407 417Q413 420 419 417Q424 414 424 406Q424 400 418 397L70 212L418 12Q422 10 423 4Q422 2 421-0.50Q420-3 416.50-5.50Q413-8 407-6L42 204L42 223L407 417Z"  horiz-adv-x="479" vert-adv-y="1000"  />

      
      <glyph glyph-name="uni203A" unicode="&#x203A;" d="M83 397Q77 400 77 406Q77 412 82.50 416Q88 420 94 417L460 223L460 203L91 1Q85-2 79 1Q76 5 74 12Q74 18 80 21L430 213L83 397Z"  horiz-adv-x="499" vert-adv-y="1000"  />

      
      <glyph glyph-name="uni2122" unicode="&#x2122;" d="M437 131Q437 121 427 120Q418 120 417 131L417 305Q420 329 407 329Q391 329 359.50 299Q328 269 308 239L308 131Q308 121 298 120Q287 120 287 131L286 242L287 305Q290 329 277 330Q269 330 256.50 322Q244 314 225 295Q194 265 176 237L176 131Q176 121 166 120Q157 120 156 131L156 344Q156 353 166 354Q175 354 176 344L176 268Q204 301 226 319Q257 344 278 344Q289 344 297 335.50Q305 327 308 305L307 270Q330 298 356 320Q387 345 407 345Q433 345 437 305L437 131M146 200L143 193Q114 166 90.50 151Q67 136 26 120L15 127L15 309L-34 296Q-42 296-44 308Q-44 317-36 317L15 331L15 386Q15 396 25 397Q34 397 35 386L35 336L117 359Q129 359 129 346Q129 337 121 337L35 314L35 146Q68 157 83 169Q94 176 109 189Q117 196 131 209Q134 212 140 208.50Q146 205 146 200Z"  horiz-adv-x="443" vert-adv-y="1000"  />

      
      <glyph glyph-name="uni0403" unicode="&#x0403;" d="M105 14Q105 4 94 3Q84 3 83 14L83 594L48 590Q36 590 36 602Q36 611 46 612L83 616L83 643Q83 652 94 653Q104 653 105 643L105 618L451 651Q460 651 462 639Q462 630 452 629L105 596L105 369L105 14M347 790Q352 795 359 792Q365 789 365 782L362 775L237 651L229 647Q220 647 219 657L222 665L347 790Z"  horiz-adv-x="483" vert-adv-y="1000"  />

      
      <glyph glyph-name="uni040C" unicode="&#x040C;" d="M403 648Q404 649 414 649Q420 649 421 639L417 632L132 371L498 8Q504 2 498-7Q492-16 483-8L109 363L109 380L403 648M86 643Q86 652 97 653Q107 653 108 643L108 0Q108-10 97-11Q87-11 86 0L86 643M347 790Q352 795 359 792Q365 789 365 782L362 775L237 651L229 647Q220 647 219 657L222 665L347 790Z"  horiz-adv-x="536" vert-adv-y="1000"  />

      
      <glyph glyph-name="uni040B" unicode="&#x040B;" d="M560 0Q560-11 549-11Q538-11 538 0L538 382Q538 439 516.50 465.50Q495 492 457 492Q404 492 337 444.50Q270 397 228 333L228 0Q228-11 217-11Q206-11 206 0L206 583L22 548Q10 545 10 560Q10 569 18 570L228 610L452 653Q465 653 465 640Q465 631 456 631L228 587L228 372Q269 431 334 473Q403 518 461 518Q506 518 531 488Q560 453 560 382L560 0Z"  horiz-adv-x="593" vert-adv-y="1000"  />

      
      <glyph glyph-name="uni040F" unicode="&#x040F;" d="M487-37Q487-47 476-48Q464-48 464-37L464 145Q442 100 405 64.50Q368 29 332 9.50Q296-10 259-10L259-160Q259-170 248-171Q238-171 237-160L237-11Q193-11 161 5Q129 21 111 50Q97 72 90 103.50Q83 135 83 180L84 637Q84 647 95 648Q105 648 106 637L105 180Q105 96 127 61Q159 11 249 11Q316 11 387 82Q464 159 464 245L464 285L464 639Q464 648 476 650Q486 650 487 639L487 245L487-37Z"  horiz-adv-x="547" vert-adv-y="1000"  />

      
      <glyph glyph-name="uni0452" unicode="&#x0452;" d="M408 332Q408 206 369.50 94Q331-18 270-90Q265-96 260-96Q250-96 250-85Q250-80 254-76Q310 1 344 96Q386 213 386 332Q386 390 367.50 416Q349 442 316 442Q269 442 208.50 395.50Q148 349 105 283L105 0Q105-11 94-11Q83-11 83 0L83 484L-27 454Q-40 454-40 469Q-40 474-32 477L83 507L83 637Q83 648 94 648Q105 648 105 637L106 513L209 543Q223 543 223 528Q223 523 215 520L105 490L105 322Q148 382 206 423Q269 468 320 468Q361 468 384.50 436Q408 404 408 332Z"  horiz-adv-x="436" vert-adv-y="1000"  />

      
      <glyph glyph-name="uni045C" unicode="&#x045C;" d="M426 9Q429 7 431 0Q431-12 417-12L408-9L88 234L88 250L340 425Q346 429 355 426Q362 423 363 416L357 407L120 241L426 9M97 0Q97-10 83-11Q68-11 68 0L68 418Q68 426 83 428Q96 428 97 418L97 0M327 650Q332 655 339 652Q345 649 345 642L342 635L217 511L209 507Q200 507 199 517L202 525L327 650Z"  horiz-adv-x="456" vert-adv-y="1000"  />

      
      <glyph glyph-name="uni045B" unicode="&#x045B;" d="M377 0Q377-11 366-11Q355-11 355 0L355 332Q355 389 339 415.50Q323 442 295 442Q255 442 201.50 395.50Q148 349 105 283L105 0Q105-11 94-11Q83-11 83 0L83 484L-27 454Q-40 454-40 469Q-40 474-32 477L83 507L83 637Q83 648 94 648Q105 648 105 637L106 513L209 543Q223 543 223 528Q223 523 215 520L105 490L105 322Q147 381 199 421Q256 464 300 464Q336 464 356.50 433Q377 402 377 332L377 0Z"  horiz-adv-x="436" vert-adv-y="1000"  />

      
      <glyph glyph-name="uni040E" unicode="&#x040E;" d="M466 648Q450 608 435 569Q412 512 360 387Q318 286 272 183L268 174L207 45Q194 21 165 5.50Q136-10 105-10Q66-10 41 15Q13 44 13 100Q13 113 26 113Q38 113 38 100Q38 56 57 35Q76 14 105 14Q129 14 151.50 26Q174 38 186 57Q210 102 246 184L52 647Q49 654 53 659Q57 664 64 664Q71 664 74 657L261 214Q304 313 344 410Q360 448 414 582Q429 619 444 656Q447 664 455 664Q473 664 466 648M347 770Q353 776 359 772.50Q365 769 365 762Q365 758 362 755L237 631Q234 627 229 627Q219 627 219 637Q219 642 222 645L347 770Z"  horiz-adv-x="485" vert-adv-y="1000"  />

      
      <glyph glyph-name="uni045E" unicode="&#x045E;" d="M443 449Q428 413 414 377Q370 268 346 211Q303 109 266 26L263 18Q254-2 231-50Q213-88 207-99Q196-120 169.50-134.50Q143-149 114-149Q79-149 57-127Q31-100 31-49Q31-38 43-38Q54-38 54-49Q54-90 72-110Q87-127 115-127Q137-127 157-116Q177-105 188-88Q208-53 243 27L66 448Q61 463 77 463Q83 463 86 457L256 54Q283 117 331 232Q394 385 396 389Q409 422 423 456Q426 463 433 463Q436 463 441 459.50Q446 456 443 449M327 650Q333 656 339 652.50Q345 649 345 642Q345 638 342 635L217 511Q214 507 209 507Q199 507 199 517Q199 522 202 525L327 650Z"  horiz-adv-x="485" vert-adv-y="1000"  />

      
      <glyph glyph-name="uni0408" unicode="&#x0408;" d="M39 184Q39 193 49 194Q61 194 61 182Q61 169 59 161L59 146Q59 74 96 40Q128 11 186 11Q265 11 328 62Q391 113 391 188L391 643Q391 652 402 653Q412 653 413 643L413 188Q413 102 342 44Q275-11 186-11Q153-11 128.50-3Q104 5 83 24Q36 66 36 144L39 184Z"  horiz-adv-x="465" vert-adv-y="1000"  />

      
      <glyph glyph-name="uni0490" unicode="&#x0490;" d="M465 734L462 640Q462 629 451 629Q440 629 440 640L443 734Q443 745 454 745Q465 745 465 734M452 629L105 596L105 369L105 14Q105 3 94 3Q83 3 83 14L83 594L48 590Q36 590 36 602Q36 612 46 612L83 616L83 643Q83 653 94 653Q105 653 105 643L105 618L451 651Q462 651 462 639Q462 629 452 629Z"  horiz-adv-x="483" vert-adv-y="1000"  />

      
      <glyph glyph-name="unia6" unicode="&#xa6;" d="M57 643Q57 652 68 653Q78 653 79 643L79 410Q79 400 68 399Q58 399 57 410L57 643M57 233Q57 242 68 243Q78 243 79 233L79 0Q79-10 68-11Q58-11 57 0L57 233Z"  horiz-adv-x="130" vert-adv-y="1000"  />

      
      <glyph glyph-name="uni0401" unicode="&#x0401;" d="M408 368L102 344L102 15L478 55Q490 55 490 43Q490 33 480 33L92-8L80 3L80 588L48 584Q36 584 36 597Q36 607 46 607L80 610L80 632Q80 642 91 642Q102 642 102 632L102 613L442 651Q454 651 454 639Q454 629 444 629L102 591L102 367L406 391Q418 391 418 378Q418 368 408 368M447 856Q452 861 458.50 858Q465 855 465 849Q465 844 461 841L320 700Q317 696 312 696Q302 696 302 706Q302 711 305 714L447 856M294 856Q300 862 306 858.50Q312 855 312 848Q312 844 309 841L168 700Q165 696 160 696Q150 696 150 706Q150 711 153 714L294 856Z"  horiz-adv-x="523" vert-adv-y="1000"  />

      
      <glyph glyph-name="uni0404" unicode="&#x0404;" d="M474 554Q479 539 463 539Q455 539 454 546Q438 594 395 618Q362 637 323 637Q314 637 310 636Q202 623 127 544Q40 453 40 310Q50 307 73 312Q230 347 316 360Q323 357 323 348Q323 339 316 336L40 276Q40 163 77 92Q121 7 209 7Q276 7 343 55Q410 103 455 182Q458 188 463 188Q468 188 472.50 182.50Q477 177 473 171Q427 87 356 36Q285-15 209-15Q108-15 58 80Q18 156 18 276Q18 446 109 555Q195 658 316 658Q317 659 322 659Q366 659 404 638Q454 610 474 554Z"  horiz-adv-x="524" vert-adv-y="1000"  />

      
      <glyph glyph-name="uni0407" unicode="&#x0407;" d="M86 21L49 11Q42 10 42 1Q42-14 54-11L154 17Q162 20 162 27Q162 32 158 36Q154 40 149 39L108 28L86 21M108 28L86 21L86 627L47 617Q34 614 34 628Q34 636 42 639L141 667Q155 670 155 654Q155 647 147 645L108 633L108 28M317 856Q322 861 328.50 858Q335 855 335 849Q335 844 331 841L190 700Q187 696 182 696Q172 696 172 706Q172 711 175 714L317 856M164 856Q170 862 176 858.50Q182 855 182 848Q182 844 179 841L38 700Q35 696 30 696Q20 696 20 706Q20 711 23 714L164 856Z"  horiz-adv-x="192" vert-adv-y="1000"  />

      
      <glyph glyph-name="uni0456" unicode="&#x0456;" d="M84 597Q84 608 95 608Q106 608 106 597L106 562Q106 551 95 551Q84 551 84 562L84 597M86 443Q86 454 97 454Q108 454 108 443L108 0Q108-11 97-11Q86-11 86 0L86 443Z"  horiz-adv-x="183" vert-adv-y="1000"  />

      
      <glyph glyph-name="uni0491" unicode="&#x0491;" d="M366 514L363 420Q363 409 352 409Q341 409 341 420L344 514Q344 525 355 525Q366 525 366 514M363 420Q363 409 351 407L309 412L268 413Q200 413 143 389Q140 388 135 383Q130 378 127 375Q120 368 117 344Q117 325 122.50 293Q128 261 139 217L153 169Q170 104 170 66Q170 36 149 15L139 8Q124-3 102 0Q88 0 73 8.50Q58 17 42 32Q34 42 37 48Q44 61 54 53Q67 42 79 33.50Q91 25 101 23Q119 20 132 32Q136 35 140 45L145 64Q146 68 146 76Q146 106 130 160L115 216L98 284L93 328L95 357Q99 376 114 394L133 409L154 420Q179 430 205.50 434Q232 438 265 438Q304 438 354 429Q363 429 363 420Z"  horiz-adv-x="364" vert-adv-y="1000"  />

      
      <glyph glyph-name="uni0451" unicode="&#x0451;" d="M65 248Q52 204 52 165Q52 97 89 50Q99 34 122.50 25Q146 16 174 16Q239 16 300 55Q369 100 393 175Q396 183 403 183Q417 183 414 168Q387 86 314 38Q248-6 176-6Q141-6 114.50 4Q88 14 69 39.50Q50 65 39.50 100Q29 135 29 172Q29 264 81.50 346.50Q134 429 202 447Q222 451 231 451.50Q240 452 245 452Q296 452 338.50 426Q381 400 402 354L394 338L65 248M73 274L376 355Q356 390 321.50 409.50Q287 429 244 429Q224 429 208 425Q170 417 132.50 374.50Q95 332 73 274M367 656Q372 661 378.50 658Q385 655 385 649Q385 644 381 641L240 500Q237 496 232 496Q222 496 222 506Q222 511 225 514L367 656M214 656Q220 662 226 658.50Q232 655 232 648Q232 644 229 641L88 500Q85 496 80 496Q70 496 70 506Q70 511 73 514L214 656Z"  horiz-adv-x="455" vert-adv-y="1000"  />

      
      <glyph glyph-name="uni2116" unicode="&#x2116;" d="M770 627Q791 612 802.50 589.50Q814 567 814 543Q814 481 762 424Q710 367 652 367Q622 367 600.50 383.50Q579 400 569.50 421.50Q560 443 560 469Q560 532 606 589.50Q652 647 709 647Q741 647 770 627M488 0L465-3Q451 58 422.50 115Q394 172 351 231Q317 278 260 344Q212 402 169 476Q135 535 102 595L102 0Q102-11 91-11Q80-11 80 0L80 634L101 641Q162 530 198 469.50Q234 409 277 359Q347 276 386 219Q439 142 465 74L465 634Q465 645 477 645Q488 645 488 634L488 0M756 608Q741 617 724 617Q678 617 630.50 566.50Q583 516 583 464Q583 427 612 404Q631 389 654 389Q700 389 740 444.50Q780 500 780 554Q780 592 756 608M561 244Q550 244 550 255Q550 266 561 266L823 266Q834 266 834 255Q834 244 823 244L561 244Z"  horiz-adv-x="864" vert-adv-y="1000"  />

      
      <glyph glyph-name="uni0454" unicode="&#x0454;" d="M414 361Q416 356 412 352Q408 348 402 348Q395 348 393 354Q378 386 336 401Q307 411 272 411Q184 403 122 351Q53 293 45 201Q68 204 128 214Q204 228 278 236Q286 233 286 226Q286 219 278 216L45 177Q45 106 76 61Q113 7 186 7Q242 7 298.50 37.50Q355 68 393 119Q397 123 403 123Q409 123 413 119Q417 115 413 110Q374 55 312.50 21.50Q251-12 186-12Q99-12 56 50Q21 101 21 179Q21 288 98 357Q168 420 270 429Q275 430 286 430Q322 430 356 415Q398 396 414 361Z"  horiz-adv-x="445" vert-adv-y="1000"  />

      
      <glyph glyph-name="uni0458" unicode="&#x0458;" d="M239 601Q239 611 250 612Q260 612 261 601L261 562Q261 552 250 551Q240 551 239 562L239 601M236 446Q236 455 248 457Q258 457 259 446L259 44L259-25Q259-87 224-122Q193-153 148-153Q108-153 76.50-125.50Q45-98 45-53Q45-43 56-42Q66-42 67-53Q67-86 91.50-108.50Q116-131 149-131Q184-131 210-104.50Q236-78 236-25L236 44L236 446Z"  horiz-adv-x="326" vert-adv-y="1000"  />

      
      <glyph glyph-name="uni0405" unicode="&#x0405;" d="M511 586Q517 578 509 570Q501 564 494 571Q468 598 437.50 611Q407 624 376 624L347 622L317 618Q218 600 158 543Q106 491 106 433Q106 394 133 367Q161 342 211 342Q239 342 263 348Q287 354 317 366Q382 393 438 393Q503 393 540.50 353.50Q578 314 578 255Q578 192 540 135Q498 70 421 29Q385 9 345-1Q327-6 307.50-9Q288-12 268-12Q191-12 135.50 27Q80 66 80 126Q80 136 91 137Q101 137 102 126Q102 80 150.50 45Q199 10 271 10Q310 10 340 18Q370 26 410 48Q481 90 521 150Q557 204 557 259Q557 307 525 339Q509 354 487.50 362Q466 370 436 370Q384 370 321.50 344.50Q259 319 208 319Q150 319 118 351Q86 383 86 433Q86 469 99 499Q112 529 142 560Q204 625 313 640L338 643L373 646Q410 646 444 632Q478 620 511 586Z"  horiz-adv-x="642" vert-adv-y="1000"  />

      
      <glyph glyph-name="uni0455" unicode="&#x0455;" d="M356 454Q365 454 365 445Q365 434 353 432L311 437L270 438Q167 438 106 392Q55 353 55 302Q55 278 69 261Q84 246 112 246Q141 246 181 268Q257 309 316 309Q367 309 394.50 279Q422 249 422 205Q422 163 399.50 124Q377 85 333.50 55.50Q290 26 246.50 10Q203-6 166-6Q125-6 96 11.50Q67 29 51 67Q46 83 62 83Q68 83 71 77Q83 47 107.50 31.50Q132 16 167 16Q199 16 239 31Q279 46 318 73Q356 104 380 142Q402 180 402 212Q402 243 380.50 263Q359 283 319 283Q300 283 290.50 282Q281 281 255 274Q229 267 188 246Q145 226 108 226Q73 226 53 246Q34 268 34 298Q34 358 91 406Q159 463 267 463Q306 463 356 454Z"  horiz-adv-x="479" vert-adv-y="1000"  />

      
      <glyph glyph-name="uni0457" unicode="&#x0457;" d="M86 443Q86 454 97 454Q108 454 108 443L108 0Q108-11 97-11Q86-11 86 0L86 443M287 656Q292 661 298.50 658Q305 655 305 649Q305 644 301 641L160 500Q157 496 152 496Q142 496 142 506Q142 511 145 514L287 656M134 656Q140 662 146 658.50Q152 655 152 648Q152 644 149 641L8 500Q5 496 0 496Q-10 496-10 506Q-10 511-7 514L134 656Z"  horiz-adv-x="183" vert-adv-y="1000"  />

      
      <glyph glyph-name="uni0410" unicode="&#x0410;" d="M185 334L188 343L317 651L337 650L449 343L452 332L572 4Q577-11 561-11Q554-11 551-4L432 323L204 323L67-5Q65-11 59-11Q42-11 47 5L185 334M213 345L424 345L326 616L213 345Z"  horiz-adv-x="603" vert-adv-y="1000"  />

      
      <glyph glyph-name="uni0411" unicode="&#x0411;" d="M105 355L105 16Q175 37 241 65Q351 111 418 161Q507 227 507 292Q507 305 504 317Q497 366 460.50 386.50Q424 407 366 407Q307 407 223 387Q134 362 105 355M280 648Q228 638 161 616Q139 609 105 596L105 380L319 428Q342 431 364 431Q427 431 466 408Q512 381 526 320Q528 304 528 296Q528 208 417 129Q340 74 209 25Q112-11 97-11L83 0L83 648Q83 658 91 658Q98 658 105 648L105 620Q121 627 150 637Q216 660 280 674L442 701Q454 701 454 689Q454 679 444 679Q425 675 365 664Q323 656 280 648Z"  horiz-adv-x="570" vert-adv-y="1000"  />

      
      <glyph glyph-name="uni0412" unicode="&#x0412;" d="M105 648L105 620Q145 637 202 654Q283 678 337 678Q379 678 406.50 664Q434 650 443 617Q445 599 445 590Q445 537 411.50 497Q378 457 319 428Q342 431 364 431Q427 431 466 408Q512 381 526 320Q528 304 528 296Q528 208 417 129Q340 74 209 25Q112-11 97-11L83 0L83 648Q83 658 91 658Q98 658 105 648M105 596L105 380Q244 410 322 453Q424 509 424 587Q424 599 421 613Q421 636 402 645.50Q383 655 350 655Q291 655 193 626Q160 617 105 596M105 355L105 16Q175 37 241 65Q351 111 418 161Q507 227 507 292Q507 305 504 317Q497 366 460.50 386.50Q424 407 366 407Q307 407 223 387Q134 362 105 355Z"  horiz-adv-x="570" vert-adv-y="1000"  />

      
      <glyph glyph-name="uni0413" unicode="&#x0413;" d="M105 14Q105 3 94 3Q83 3 83 14L83 594L48 590Q36 590 36 602Q36 612 46 612L83 616L83 643Q83 653 94 653Q105 653 105 643L105 618L451 651Q462 651 462 639Q462 629 452 629L105 596L105 369L105 14Z"  horiz-adv-x="483" vert-adv-y="1000"  />

      
      <glyph glyph-name="uni0414" unicode="&#x0414;" d="M592-153Q587-159 585-159Q581-159 578-153Q578-145 578-134Q583-66 583-55Q583-18 576-7L33-8Q26-8 26-35Q26-48 31-103Q33-125 33-138Q33-146 31.50-150.50Q30-155 18-155Q12-155 12-148Q9-118 6-87Q0-25 0-2Q0 4 0 8Q0 12 2 13L51 16Q53 16 88 100Q119 175 153 258Q170 300 188 343L317 651L337 650L449 343Q477 256 492 209Q538 67 555 21Q573 17 579 16.50Q585 16 589.50 16.50Q594 17 596-3Q598-23 598-55Q598-127 592-153M532 21Q527 40 500 121Q484 171 450 269Q437 307 424 345L326 616L213 345L79 19Q257 19 309 20Q361 21 532 21Z"  horiz-adv-x="603" vert-adv-y="1000"  />

      
      <glyph glyph-name="uni0415" unicode="&#x0415;" d="M408 368L102 344L102 15L478 55Q490 55 490 43Q490 33 480 33L92-8L80 3L80 588L48 584Q36 584 36 597Q36 607 46 607L80 610L80 632Q80 642 91 642Q102 642 102 632L102 613L442 651Q454 651 454 639Q454 629 444 629L102 591L102 367L406 391Q418 391 418 378Q418 368 408 368Z"  horiz-adv-x="523" vert-adv-y="1000"  />

      
      <glyph glyph-name="uni0416" unicode="&#x0416;" d="M811 648Q756 636 700 583Q644 530 608 456L592 419Q580 391 575 371.50Q570 352 570 337Q571 319 571 310Q571 170 606 106Q641 42 726 22Q732 20 732 12Q732-2 720 0Q630 21 589 105.50Q548 190 548 346Q524 314 490 223Q461 144 440 74Q430 37 420 0Q420-11 409-11Q398-11 398 0L398 580L383 543Q359 477 342 434Q294 311 244 206Q204 120 144 62Q80 0 15-8Q2-8 2 3Q2 14 15 14Q70 26 126 79Q182 132 218 206L234 243Q247 271 251.50 290.50Q256 310 256 325Q255 343 255 352Q255 492 220 556Q185 620 100 640Q94 642 94 650Q94 664 106 662Q196 641 236.50 563.50Q277 486 277 344Q326 457 345 505Q352 523 358 541L398 634Q400 637 401 638Q406 643 409 643Q415 643 420 635L420 75Q421 90 422 105Q431 152 460 221Q501 318 582 456Q635 547 687 599Q749 662 811 670Q825 670 825 659Q825 648 811 648Z"  horiz-adv-x="832" vert-adv-y="1000"  />

      
      <glyph glyph-name="uni0417" unicode="&#x0417;" d="M526 320Q528 304 528 296Q528 208 417 129Q340 74 209 25Q112-11 97-11L83 0L105 16Q175 37 241 65Q351 111 418 161Q507 227 507 292Q507 305 504 317Q497 366 460.50 386.50Q424 407 366 407Q307 407 223 387Q134 362 105 355L105 380Q244 410 322 453Q424 509 424 587Q424 599 421 613Q421 636 402 645.50Q383 655 350 655Q291 655 193 626Q160 617 105 596L83 596L83 648Q83 658 91 658Q98 658 105 648L105 620Q145 637 202 654Q283 678 337 678Q379 678 406.50 664Q434 650 443 617Q445 599 445 590Q445 537 411.50 497Q378 457 319 428Q342 431 364 431Q427 431 466 408Q512 381 526 320Z"  horiz-adv-x="570" vert-adv-y="1000"  />

      
      <glyph glyph-name="uni0418" unicode="&#x0418;" d="M488 18Q488 7 477 7Q465 7 465 18L465 578Q447 531 417 481Q391 437 353 387Q325 350 277 293Q236 245 198 182Q149 96 101 11L80 18L80 652Q80 663 91 663Q102 663 102 652L102 57Q111 72 151 144Q206 242 260 308Q343 405 388 476Q445 567 465 655L488 652L488 18Z"  horiz-adv-x="527" vert-adv-y="1000"  />

      
      <glyph glyph-name="uni0419" unicode="&#x0419;" d="M488 18Q488 7 477 7Q465 7 465 18L465 578Q447 531 417 481Q391 437 353 387Q325 350 277 293Q236 245 198 182Q149 96 101 11L80 18L80 652Q80 663 91 663Q102 663 102 652L102 57Q111 72 151 144Q206 242 260 308Q343 405 388 476Q445 567 465 655L488 652L488 18M347 770Q353 776 359 772.50Q365 769 365 762Q365 758 362 755L237 631Q234 627 229 627Q219 627 219 637Q219 642 222 645L347 770Z"  horiz-adv-x="527" vert-adv-y="1000"  />

      
      <glyph glyph-name="uni041A" unicode="&#x041A;" d="M403 648Q407 651 414 649.50Q421 648 421 639Q421 635 417 632L132 371L498 8Q505 1 498-7.50Q491-16 483-8L109 363L109 380L403 648M86 643Q86 653 97 653Q108 653 108 643L108 0Q108-11 97-11Q86-11 86 0L86 643Z"  horiz-adv-x="536" vert-adv-y="1000"  />

      
      <glyph glyph-name="uni041B" unicode="&#x041B;" d="M461 14Q466-1 450-1Q443-1 440 6Q426 46 399.50 144.50Q373 243 344 364Q311 502 298 573Q277 470 229 361Q195 284 131 171Q84 89 37 7Q34 1 28 1Q22 1 18 6.50Q14 12 17 18Q69 109 122 201Q189 320 226 413Q276 539 287 648L309 648Q315 587 348 442Q376 317 410 189.50Q444 62 461 14Z"  horiz-adv-x="499" vert-adv-y="1000"  />

      
      <glyph glyph-name="uni041C" unicode="&#x041C;" d="M105-3Q105-14 94-14Q83-14 83-3L83 637L104 641Q114 615 124 590Q148 530 180 460Q220 371 265 285Q284 248 298.50 206Q313 164 326 104Q338 173 372 238Q399 290 438 337Q498 411 545 488Q576 540 603 599Q612 620 621 641L643 637L643 0Q643-11 632-11Q620-11 620 0L620 583Q596 529 561 471Q515 395 454 322Q405 264 377 197Q341 113 341 22L319 20Q307 102 287.50 166Q268 230 245 274Q202 356 161 448Q134 508 105 579L105-3Z"  horiz-adv-x="709" vert-adv-y="1000"  />

      
      <glyph glyph-name="uni041D" unicode="&#x041D;" d="M70 629L70 363L439 363L439 629Q439 640 450 640Q461 640 461 629L461 0Q461-11 450-11Q439-11 439 0L439 341L70 341L70-3Q70-14 59-14Q48-14 48-3L48 629Q48 640 59 640Q70 640 70 629Z"  horiz-adv-x="504" vert-adv-y="1000"  />

      
      <glyph glyph-name="uni041E" unicode="&#x041E;" d="M355 662Q446 641 486 567Q526 493 526 352Q526 224 436 106.50Q346-11 248-11Q233-11 219-8Q129 15 83 98Q42 171 42 274Q42 404 133.50 534Q225 664 329 664Q346 664 355 662M349 640Q337 643 324 643Q238 643 151 518Q64 393 64 274Q64 175 101 109Q143 35 224 14Q236 11 249 11Q332 11 418 123Q504 235 504 352Q504 492 469 556Q434 620 349 640Z"  horiz-adv-x="560" vert-adv-y="1000"  />

      
      <glyph glyph-name="uni041F" unicode="&#x041F;" d="M485 621L461 621L461 0Q461-11 449-11Q437-11 437 0L437 621L70 621L70-3Q70-14 59-14Q48-14 48-3L48 621L19 621Q8 621 8 632Q8 643 19 643L485 643Q497 643 497 632Q497 621 485 621Z"  horiz-adv-x="504" vert-adv-y="1000"  />

      
      <glyph glyph-name="uni0420" unicode="&#x0420;" d="M144 637L144 570Q215 613 276 639Q363 676 422 676Q456 676 479.50 665.50Q503 655 517 628Q524 611 524 591Q524 502 380 416Q256 342 144 327L144 3Q144-8 133-8Q122-8 122 3L122 528L95 512Q91 509 84 511.50Q77 514 77 522Q77 527 82 530L122 556L122 637Q122 648 133 648Q144 648 144 637M144 541L144 349Q243 361 367 436Q504 519 504 589Q504 605 497 619Q485 656 433 656Q370 656 247 596Q193 570 144 541Z"  horiz-adv-x="584" vert-adv-y="1000"  />

      
      <glyph glyph-name="uni0421" unicode="&#x0421;" d="M482 558Q487 543 471 543Q463 543 462 550Q446 598 403 622Q370 641 331 641Q322 641 318 640Q207 626 132 538Q48 439 48 280Q48 167 85 96Q129 11 217 11Q284 11 351 59Q418 107 463 186Q466 192 471 192Q476 192 480.50 186.50Q485 181 481 175Q435 91 364 40Q293-11 217-11Q116-11 66 84Q26 160 26 280Q26 450 117 559Q203 662 324 662Q325 663 330 663Q374 663 412 642Q462 614 482 558Z"  horiz-adv-x="524" vert-adv-y="1000"  />

      
      <glyph glyph-name="uni0422" unicode="&#x0422;" d="M23 570L211 606Q211 611 220 611Q226 611 229 608L457 653Q470 653 470 640Q470 631 461 631L233 587L233 0Q233-11 222-11Q211-11 211 0L211 583L27 548Q14 548 14 561Q14 570 23 570Z"  horiz-adv-x="499" vert-adv-y="1000"  />

      
      <glyph glyph-name="uni0423" unicode="&#x0423;" d="M466 648Q450 608 435 569Q412 512 360 387Q318 286 272 183L268 174L207 45Q194 21 165 5.50Q136-10 105-10Q66-10 41 15Q13 44 13 100Q13 113 26 113Q38 113 38 100Q38 56 57 35Q76 14 105 14Q129 14 151.50 26Q174 38 186 57Q210 102 246 184L52 647Q49 654 53 659Q57 664 64 664Q71 664 74 657L261 214Q304 313 344 410Q360 448 414 582Q429 619 444 656Q447 664 455 664Q473 664 466 648Z"  horiz-adv-x="485" vert-adv-y="1000"  />

      
      <glyph glyph-name="uni0424" unicode="&#x0424;" d="M186 21L149 11Q142 10 142 1Q142-14 154-11L254 17Q262 20 262 27Q262 32 258 36Q254 40 249 39L208 28L186 21M208 28L186 21L186 627L147 617Q134 614 134 628Q134 636 142 639L241 667Q255 670 255 654Q255 647 247 645L208 633L208 28M66 131Q33 153 17.50 184Q2 215 2 251Q2 349 92.50 446.50Q183 544 273 544Q313 544 342 521Q367 501 378.50 471.50Q390 442 390 404Q390 301 319 205Q244 103 152 103Q109 103 66 131M79 150Q95 139 114 133.50Q133 128 153 128Q236 128 311 210Q386 292 386 382Q386 417 372.50 447Q359 477 329 502Q310 517 289 524.50Q268 532 246 532Q164 532 95 443.50Q26 355 26 262Q26 226 38.50 197.50Q51 169 79 150Z"  horiz-adv-x="410" vert-adv-y="1000"  />

      
      <glyph glyph-name="uni0425" unicode="&#x0425;" d="M212 347Q166 433 122 518Q78 603 68 633Q66 640 70 644Q74 648 80 648Q88 648 89 641Q97 614 138 535Q145 521 225 369Q298 486 333 546Q380 627 380 643Q380 653 392 653Q403 653 403 643Q403 625 380 580Q368 556 319 475Q283 414 239 345Q281 268 311 209Q345 143 370 87Q395 31 400 5Q400-8 387-8Q378-8 378 1Q372 28 349.50 79Q327 130 295 192Q278 225 225 323Q148 198 142 188Q98 115 77 73Q51 21 51 1Q51-11 41-11Q29-11 29 1Q32 25 59.50 80.50Q87 136 127 205Q153 250 212 347Z"  horiz-adv-x="445" vert-adv-y="1000"  />

      
      <glyph glyph-name="uni0426" unicode="&#x0426;" d="M217-167Q211-164 209-161Q207-158 207-156Q207-152 209-149.50Q211-147 212-147Q229-142 342-120Q380-113 453-99Q460-99 463-86Q463-84 464-80L464 148Q432 80 369 34.50Q306-11 249-11Q150-11 111 50Q83 94 83 180L84 637Q84 648 95 648Q106 648 106 637L105 180Q105 96 127 61Q159 11 249 11Q316 11 387 82Q464 159 464 245L464 639Q464 650 476 650Q487 650 487 639L487 245L487-99Q483-116 469-122Q437-126 329-146Q291-153 217-167Z"  horiz-adv-x="547" vert-adv-y="1000"  />

      
      <glyph glyph-name="uni0427" unicode="&#x0427;" d="M487 4Q486-6 475-6Q464-6 464 4L464 398Q432 330 369 284.50Q306 239 249 239Q150 239 111 300Q83 344 83 430L84 637Q84 648 95 648Q106 648 106 637L105 430Q105 346 127 311Q159 261 249 261Q316 261 387 332Q464 409 464 495L464 639Q464 650 476 650Q487 650 487 639L487 495L487 4Z"  horiz-adv-x="547" vert-adv-y="1000"  />

      
      <glyph glyph-name="uni0428" unicode="&#x0428;" d="M607-16Q607 14 609 60Q611 106 611 123Q582 63 534.50 23.50Q487-16 444-16Q387-16 349 31Q316 72 309 126Q280 64 232 24Q184-16 140-16Q58-16 26 46Q3 91 3 180L3 637Q3 654 17 654Q31 654 31 637L30 180Q30 98 47 64Q71 16 140 16Q192 16 247 86Q307 162 307 245L307 637Q307 654 321 654Q335 654 335 637L334 180Q334 117 351 78Q378 16 444 16Q496 16 551 86Q611 162 611 245L611 639Q611 656 626 656Q640 656 640 639L640 245L640-16Q640-48 625-48Q607-48 607-16Z"  horiz-adv-x="699" vert-adv-y="1000"  />

      
      <glyph glyph-name="uni0429" unicode="&#x0429;" d="M640-99Q634-120 621-126Q597-130 509-150Q478-157 418-171Q406-164 406-155Q406-149 409-144Q409-143 412-142Q426-137 517-115Q547-108 607-94Q610-94 610.50-89.50Q611-85 611-80L611 123Q582 63 534.50 23.50Q487-16 444-16Q387-16 349 31Q316 72 309 126Q280 64 232 24Q184-16 140-16Q58-16 26 46Q3 91 3 180L3 637Q3 654 17 654Q31 654 31 637L30 180Q30 98 47 64Q71 16 140 16Q192 16 247 86Q307 162 307 245L307 637Q307 654 321 654Q335 654 335 637L334 180Q334 117 351 78Q378 16 444 16Q496 16 551 86Q611 162 611 245L611 639Q611 656 626 656Q640 656 640 639L640 245L640-99Z"  horiz-adv-x="699" vert-adv-y="1000"  />

      
      <glyph glyph-name="uni042A" unicode="&#x042A;" d="M576 320Q578 304 578 296Q578 208 467 129Q390 74 259 25Q162-11 147-11L133 0L133 630Q106 630 86.50 627Q67 624 46 610Q42 594 41 574Q40 554 40 525Q40 485 42 452.50Q44 420 46 395Q46 384 35 384Q24 384 24 395Q21 422 20 440Q16 494 16 537Q16 579 17.50 594.50Q19 610 24 628Q41 641 68.50 646.50Q96 652 123 652Q153 652 155 648L155 620L155 380Q224 395 269.50 407Q315 419 369 428Q392 431 414 431Q477 431 516 408Q562 381 576 320M554 317Q547 366 510.50 386.50Q474 407 416 407Q357 407 273 387Q184 362 155 355L155 16Q225 37 291 65Q401 111 468 161Q557 227 557 292Q557 305 554 317Z"  horiz-adv-x="610" vert-adv-y="1000"  />

      
      <glyph glyph-name="uni042B" unicode="&#x042B;" d="M105 355L105 16Q175 37 241 65Q351 111 418 161Q507 227 507 292Q507 305 504 317Q497 366 460.50 386.50Q424 407 366 407Q307 407 223 387Q134 362 105 355M319 428Q342 431 364 431Q427 431 466 408Q512 381 526 320Q528 304 528 296Q528 208 417 129Q340 74 209 25Q112-11 97-11L83 0L83 648Q83 658 91 658Q98 658 105 648L105 620L105 380Q174 395 219.50 407Q265 419 319 428M576 640Q576 651 587 651Q598 651 598 640L598 0Q598-11 587-11Q576-11 576 0L576 640Z"  horiz-adv-x="652" vert-adv-y="1000"  />

      
      <glyph glyph-name="uni042C" unicode="&#x042C;" d="M105 355L105 16Q175 37 241 65Q351 111 418 161Q507 227 507 292Q507 305 504 317Q497 366 460.50 386.50Q424 407 366 407Q307 407 223 387Q134 362 105 355M319 428Q342 431 364 431Q427 431 466 408Q512 381 526 320Q528 304 528 296Q528 208 417 129Q340 74 209 25Q112-11 97-11L83 0L83 648Q83 658 91 658Q98 658 105 648L105 620L105 380Q174 395 219.50 407Q265 419 319 428Z"  horiz-adv-x="570" vert-adv-y="1000"  />

      
      <glyph glyph-name="uni042D" unicode="&#x042D;" d="M458 386Q458 499 421 570Q377 655 289 655Q222 655 155 607Q88 559 43 480Q40 474 35 474Q30 474 25.50 479.50Q21 485 25 491Q71 575 142 626Q213 677 289 677Q390 677 440 582Q480 506 480 386Q480 216 389 107Q303 4 182 4Q181 3 176 3Q132 3 94 24Q44 52 24 108Q19 123 35 123Q43 123 44 116Q60 68 103 44Q136 25 175 25Q184 25 188 26Q296 39 371 118Q458 209 458 352Q441 351 425 350Q268 315 182 302Q175 306 175 314Q175 322 182 326L458 386Z"  horiz-adv-x="524" vert-adv-y="1000"  />

      
      <glyph glyph-name="uni042E" unicode="&#x042E;" d="M727 352Q727 222 644 103Q561-16 471-16Q459-16 445-13Q362 11 319 95Q281 169 281 274Q280 290 280 299Q280 309 281 315L113 315L113 0Q113-17 97-17Q81-17 81 0L81 640Q81 656 97 656Q113 656 113 640L113 357L282 357Q307 477 384.50 573Q462 669 545 669Q561 669 569 667Q653 645 690 570Q727 495 727 352M707 352Q707 493 674.50 558.50Q642 624 564 645Q553 648 542 648Q463 648 382 522Q301 396 301 274Q301 174 335 106Q373 31 448 9Q459 6 471 6Q547 6 627 119.50Q707 233 707 352Z"  horiz-adv-x="750" vert-adv-y="1000"  />

      
      <glyph glyph-name="uni042F" unicode="&#x042F;" d="M501 592Q511 592 511 578Q511 572 508 567.50Q505 563 500 566Q494 568 485.50 569Q477 570 462 570L462 6Q462-5 451-5Q440-5 440 6L440 348L57-8Q52-13 45.50-9Q39-5 39 1Q39 5 42 8L417 357Q362 346 317 339Q272 332 231 332Q165 332 132 352Q92 377 92 433Q132 511 238 556Q332 596 440 596L440 640Q440 651 451 651Q462 651 462 640L462 596Q479 596 487.50 595Q496 594 501 592M440 381L440 569Q423 572 405 572Q319 572 226.50 528.50Q134 485 112 424Q124 386 156 370Q188 354 241 354Q277 354 325 361Q373 368 440 381Z"  horiz-adv-x="550" vert-adv-y="1000"  />

      
      <glyph glyph-name="uni0430" unicode="&#x0430;" d="M39 45Q39 112 118 163Q211 223 367 223L367 296Q367 357 347 390Q324 428 276 428Q243 428 202.50 399Q162 370 115 315Q112 311 107 311Q96 311 96 323Q96 327 99 330Q151 389 188 416Q234 450 276 450Q335 450 365 402Q390 362 390 296L390 0Q390-11 379-11Q367-11 367 0L367 85Q303 37 239 12Q182-10 133-10Q93-10 68 5Q43 20 39 45M367 113L367 201Q217 201 129 145Q55 98 61 47Q57 34 77.50 23Q98 12 133 12Q183 12 237 33Q301 58 367 113Z"  horiz-adv-x="448" vert-adv-y="1000"  />

      
      <glyph glyph-name="uni0431" unicode="&#x0431;" d="M62 261L62 16Q195 74 271.50 158.50Q348 243 348 334Q348 342 347.50 352Q347 362 344 379Q339 427 286 427Q239 427 184 389Q121 346 62 261M110 595Q131 609 140 615Q156 625 172 631Q207 643 244 643Q253 643 261.50 644Q270 645 279 646Q287 646 298 643Q323 636 326 634Q339 628 344 615Q348 609 348.50 607.50Q349 606 344 603Q341 601 330 603Q323 604 312.50 610Q302 616 298 617Q277 623 261 623Q253 623 239.50 621Q226 619 218 617Q174 608 138 581Q122 569 107.50 549.50Q93 530 80 513Q76 509 69 467Q62 425 62 419L62 298Q118 371 178 410Q238 449 286 449Q352 449 367 383Q369 373 370 360Q371 347 371 336Q371 233 289 143Q231 80 137 28Q66-11 54-11L40-1L40 252Q35 259 39 266Q40 267 40 286.50Q40 306 40 320L40 338L40 355L40 369L40 381Q40 398 40 409Q40 420 39 429Q39 441 44.50 482Q50 523 54 529Q68 543 90 570Q97 579 110 595Z"  horiz-adv-x="411" vert-adv-y="1000"  />

      
      <glyph glyph-name="uni0432" unicode="&#x0432;" d="M425 218Q426 213 426 202Q426 145 330 91Q261 52 152 20Q68-5 56-5L39 6L39 430Q39 440 49 440Q59 440 67 430L67 419Q104 429 150 439Q218 453 259 453Q299 453 323 444Q347 435 355 412Q357 400 357 394Q357 362 335 337Q313 312 273 293Q335 293 369 279Q412 261 425 218M326 407Q326 420 311.50 426.50Q297 433 272 433Q238 433 183 421.50Q128 410 67 392L67 262Q180 280 245 307Q328 342 328 390Q328 401 326 407M397 214Q391 244 361.50 257Q332 270 285 270Q234 270 167 257Q92 240 67 235L67 25Q225 63 312 108Q399 153 399 198Q399 209 397 214Z"  horiz-adv-x="450" vert-adv-y="1000"  />

      
      <glyph glyph-name="uni0433" unicode="&#x0433;" d="M466 156Q416 85 387 59Q325 3 253 3Q238 3 230 4Q153 13 107 45.50Q61 78 61 120Q61 160 104 196Q153 236 244 259Q302 273 333.50 303.50Q365 334 365 365Q365 418 297 418Q259 418 207.50 395.50Q156 373 91 321Q87 318 80.50 320Q74 322 74 331Q74 335 79 338Q143 394 199.50 418.50Q256 443 304 443Q350 443 376 422Q402 401 402 368Q402 331 366 297Q325 258 245 235.50Q165 213 124 182Q87 154 87 124Q87 91 127.50 64.50Q168 38 232 27Q239 26 244.50 26Q250 26 252 26Q318 26 370 74Q407 114 444 155Q454 164 464 163Q465 159 466 156Z"  horiz-adv-x="479" vert-adv-y="1000"  />

      
      <glyph glyph-name="uni0434" unicode="&#x0434;" d="M90 26Q108 11 134 11Q201 11 288 97Q375 183 393 265L393 322Q385 349 364 363Q341 383 310 383Q233 383 143.50 282.50Q54 182 54 98Q54 49 90 26M393 200Q355 120 277.50 56Q200-8 132-8Q101-8 77 7Q55 25 45.50 48Q36 71 36 103Q36 199 126.50 300.50Q217 402 309 402Q348 402 379 380L393 363Q386 398 381 418Q364 479 336 512Q317 535 268 587Q252 604 223 634Q220 645 230 645Q241 645 246 634Q275 605 291 588Q341 536 360.50 510Q380 484 393 434.50Q406 385 410.50 364.50Q415 344 415.50 329Q416 314 416 306L416 276L393 200Z"  horiz-adv-x="475" vert-adv-y="1000"  />

      
      <glyph glyph-name="uni0435" unicode="&#x0435;" d="M65 248Q52 204 52 165Q52 97 89 50Q99 34 122.50 25Q146 16 174 16Q239 16 300 55Q369 100 393 175Q396 183 403 183Q417 183 414 168Q387 86 314 38Q248-6 176-6Q141-6 114.50 4Q88 14 69 39.50Q50 65 39.50 100Q29 135 29 172Q29 264 81.50 346.50Q134 429 202 447Q222 451 231 451.50Q240 452 245 452Q296 452 338.50 426Q381 400 402 354L394 338L65 248M73 274L376 355Q356 390 321.50 409.50Q287 429 244 429Q224 429 208 425Q170 417 132.50 374.50Q95 332 73 274Z"  horiz-adv-x="455" vert-adv-y="1000"  />

      
      <glyph glyph-name="uni0436" unicode="&#x0436;" d="M689 442Q645 435 597 400Q549 365 520 319Q510 306 506 299Q492 278 490 268Q485 250 485 234Q485 226 487 215Q489 204 489 201Q489 113 518.50 71.50Q548 30 618 18Q626 16 626 9Q626 4 622 0Q618-4 611-4Q460 23 460 212Q433 183 403 124Q352 5 349-1Q348-11 335-11Q321-11 321 1L339 382L334 376Q311 325 296 293Q249 195 210 132Q175 75 122 35.50Q69-4 13-9Q-6-9-6 2Q-6 13 12 13Q58 21 105 55.50Q152 90 182 137L196 159Q206 177 210.50 191.50Q215 206 215 214Q214 224 214 229Q214 322 183 373.50Q152 425 84 437Q77 438 77 447Q77 461 91 459Q166 446 203 387Q240 328 240 239Q271 280 292 334Q298 351 306 379L344 440Q347 442 348 442Q354 445 357 445Q363 445 369 438L354 71Q376 130 408 192Q440 254 492 323Q537 383 582 417Q637 459 689 464Q707 464 707 453Q707 442 689 442Z"  horiz-adv-x="707" vert-adv-y="1000"  />

      
      <glyph glyph-name="uni0437" unicode="&#x0437;" d="M460 169Q460 93 375 39Q294-12 189-12Q90-12 54 32Q31 60 31 114Q31 125 40 125Q48 127 54 127Q59 119 59 114Q59 64 75 45Q103 12 189 12Q283 12 354 56Q430 103 430 169Q430 213 407 238Q384 263 345 271L248 243Q218 237 200 234.50Q182 232 145 228Q129 230 129 239Q129 244 133 249Q134 250 137 253Q191 259 230 266Q301 279 343 301Q373 317 394 343.50Q415 370 415 393Q415 405 409 414Q402 428 384 435Q366 442 341 442Q299 442 235 425Q200 416 137 394L95 379Q86 376 80 381Q74 386 74 393Q74 399 81 402L114 415Q164 433 217 445Q285 461 335 461Q371 461 396.50 452.50Q422 444 435 424Q442 411 442 394Q442 365 424.50 335Q407 305 380 288Q417 274 438.50 245Q460 216 460 169Z"  horiz-adv-x="485" vert-adv-y="1000"  />

      
      <glyph glyph-name="uni0438" unicode="&#x0438;" d="M324-6L324 103Q294 56 240 22Q186-12 139-12Q98-12 76 12Q50 40 50 97L50 443Q50 454 61 454Q72 454 72 443L72 97Q72 55 89.50 36Q107 17 137 17Q193 17 258.50 70.50Q324 124 324 171L324 443Q324 454 335 454Q346 454 346 443L346-6Q346-17 335-17Q324-17 324-6Z"  horiz-adv-x="397" vert-adv-y="1000"  />

      
      <glyph glyph-name="uni0439" unicode="&#x0439;" d="M324-6L324 103Q294 56 240 22Q186-12 139-12Q98-12 76 12Q50 40 50 97L50 443Q50 454 61 454Q72 454 72 443L72 97Q72 55 89.50 36Q107 17 137 17Q193 17 258.50 70.50Q324 124 324 171L324 443Q324 454 335 454Q346 454 346 443L346-6Q346-17 335-17Q324-17 324-6M267 650Q273 656 279 652.50Q285 649 285 642Q285 638 282 635L157 511Q154 507 149 507Q139 507 139 517Q139 522 142 525L267 650Z"  horiz-adv-x="397" vert-adv-y="1000"  />

      
      <glyph glyph-name="uni043A" unicode="&#x043A;" d="M426 9Q431 5 431 0Q431-12 417-12Q413-12 408-9L88 234L88 250L340 425Q347 430 355 426Q363 422 363 416Q363 412 357 407L120 241L426 9M97 0Q97-11 83-11Q68-11 68 0L68 418Q68 428 83 428Q97 428 97 418L97 0Z"  horiz-adv-x="456" vert-adv-y="1000"  />

      
      <glyph glyph-name="uni043B" unicode="&#x043B;" d="M397 11Q399 5 394 0Q389-5 381-5Q372-5 369 2Q354 34 315 151Q272 278 253 353Q234 292 192 222Q163 174 111 104Q73 53 35 3Q32-3 24-3Q17-3 11.50 2.50Q6 8 10 15Q55 74 100 133Q156 208 188 271Q231 353 240 426L267 426Q276 362 327 205Q374 59 397 11Z"  horiz-adv-x="412" vert-adv-y="1000"  />

      
      <glyph glyph-name="uni043C" unicode="&#x043C;" d="M552 0Q552-11 537-11Q522-11 522 0L522 362Q500 326 472 292Q435 247 389 205Q349 169 325 125Q295 71 295 9L267 8Q245 120 204 175Q173 221 140 276Q116 316 94 357L94-2Q94-14 80-14Q66-14 66-2L66 418L91 423Q103 398 112 381Q165 282 229 188Q257 148 277 87Q287 118 304 146Q327 184 369 223Q440 289 489 362Q505 386 525 423L552 418L552 0Z"  horiz-adv-x="603" vert-adv-y="1000"  />

      
      <glyph glyph-name="uni043D" unicode="&#x043D;" d="M397 0Q397-11 383-11Q368-11 368 0L368 217L65 217L65-2Q65-13 51-13Q36-13 36-2L36 449Q36 460 51 460Q65 460 65 449L65 241L368 241L368 449Q368 460 383 460Q397 460 397 449L397 0Z"  horiz-adv-x="428" vert-adv-y="1000"  />

      
      <glyph glyph-name="uni043E" unicode="&#x043E;" d="M96 21Q63 43 47.50 74Q32 105 32 141Q32 239 122.50 336.50Q213 434 303 434Q343 434 372 411Q397 391 408.50 361.50Q420 332 420 294Q420 191 349 95Q274-7 182-7Q139-7 96 21M109 40Q125 29 144 23.50Q163 18 183 18Q266 18 341 100Q416 182 416 272Q416 307 402.50 337Q389 367 359 392Q340 407 319 414.50Q298 422 276 422Q194 422 125 333.50Q56 245 56 152Q56 116 68.50 87.50Q81 59 109 40Z"  horiz-adv-x="460" vert-adv-y="1000"  />

      
      <glyph glyph-name="uni043F" unicode="&#x043F;" d="M72 443L72 263Q118 332 177 384Q242 442 285 442Q310 442 324.50 423Q339 404 343 360L343-3Q343-14 332-14Q321-14 321-3L321 360Q322 367 322 379Q322 421 291 421Q250 421 180.50 357.50Q111 294 71 221L72-3Q72-14 61-14Q50-14 50-3L50 223L50 227L50 443Q50 454 61 454Q72 454 72 443Z"  horiz-adv-x="389" vert-adv-y="1000"  />

      
      <glyph glyph-name="uni0440" unicode="&#x0440;" d="M63 449L63 332Q95 391 145 434Q202 483 254 483Q279 483 299.50 472Q320 461 338 435Q361 396 361 334Q361 221 297 115Q229 2 147 2Q125 2 103.50 10.50Q82 19 62 38L63-216Q63-227 52-227Q41-227 41-216L41 449Q41 460 52 460Q63 460 63 449M63 275L63 70Q81 45 102 33Q123 21 144 21Q214 21 279 129Q341 233 341 336Q341 390 319 424Q299 462 260 462Q206 462 142.50 400Q79 338 66 280L63 275Z"  horiz-adv-x="399" vert-adv-y="1000"  />

      
      <glyph glyph-name="uni0441" unicode="&#x0441;" d="M368 377Q372 371 367.50 365.50Q363 360 357 360Q351 360 348 366Q327 406 303 424.50Q279 443 252 443Q186 443 124 348.50Q62 254 62 169Q62 87 94 47Q122 12 170 12Q221 12 275.50 48.50Q330 85 356 135Q359 141 366 141Q371 141 375 136.50Q379 132 377 126Q351 73 289.50 32Q228-9 168-9Q111-9 78 30Q40 75 40 169Q40 259 105 358Q175 464 250 464Q283 464 312 444Q341 424 368 377Z"  horiz-adv-x="408" vert-adv-y="1000"  />

      
      <glyph glyph-name="uni0442" unicode="&#x0442;" d="M584 363Q585 369 585 375Q585 381 585 384Q585 420 559 420Q521 420 445 350Q375 286 338 229L338 0Q338-11 327-11Q316-11 316 0L316 220L315 233L316 363Q317 369 317 375Q317 381 317 384Q317 420 291 420Q252 420 173 347Q100 280 66 224L66 0Q66-11 55-11Q44-11 44 0L44 446Q44 457 55 457Q66 457 66 446L66 260Q119 328 170 375Q241 440 283 440Q306 440 320 422Q334 404 338 363L337 264Q390 332 441 378Q509 440 551 440Q574 440 588.50 422.50Q603 405 607 363L607 0Q607-11 596-11Q584-11 584 0L584 363Z"  horiz-adv-x="660" vert-adv-y="1000"  />

      
      <glyph glyph-name="uni0443" unicode="&#x0443;" d="M443 449Q428 413 414 377Q370 268 346 211Q303 109 266 26L263 18Q254-2 231-50Q213-88 207-99Q196-120 169.50-134.50Q143-149 114-149Q79-149 57-127Q31-100 31-49Q31-38 43-38Q54-38 54-49Q54-90 72-110Q87-127 115-127Q137-127 157-116Q177-105 188-88Q208-53 243 27L66 448Q61 463 77 463Q83 463 86 457L256 54Q283 117 331 232Q394 385 396 389Q409 422 423 456Q426 463 433 463Q436 463 441 459.50Q446 456 443 449Z"  horiz-adv-x="485" vert-adv-y="1000"  />

      
      <glyph glyph-name="uni0444" unicode="&#x0444;" d="M291 431Q322 415 336.50 386.50Q351 358 351 322Q351 225 269 122Q187 19 104 19Q79 19 53 34Q27 49 14.50 77Q2 105 2 143Q2 243 73 342Q148 446 233 446Q262 446 291 431M210 477L180 469L180-206Q180-210 178-213.50Q176-217 167-217Q162-217 159.50-215Q157-213 156-212L156 465L126 459Q110 456 110 468Q110 476 120 477L204 496Q219 498 219 485Q219 479 210 477M278 414Q267 420 249 420Q182 420 103.50 319.50Q25 219 25 132Q25 103 34.50 83Q44 63 66 50Q88 37 109 37Q180 37 248 145Q312 247 312 338Q312 359 308 374Q300 403 278 414Z"  horiz-adv-x="349" vert-adv-y="1000"  />

      
      <glyph glyph-name="uni0445" unicode="&#x0445;" d="M377 454Q373 442 348 406Q318 364 235 257Q319 160 348 100Q373 48 373 0Q373-11 362-11Q351-11 351 0Q351 54 312 118Q285 162 222 237Q198 205 149 140Q108 85 88 55Q60 13 54-4Q53-11 45-11Q31-11 34 4Q45 34 98 108Q137 163 207 254Q142 331 124 356Q84 411 71 454Q71 468 86 468Q93 468 93 460Q104 416 158 348Q171 332 221 273Q287 358 294 367Q355 447 355 460Q355 468 363 468Q377 468 377 454Z"  horiz-adv-x="431" vert-adv-y="1000"  />

      
      <glyph glyph-name="uni0446" unicode="&#x0446;" d="M417 159L416-64Q412-77 399-81L183-111Q172-107 172-102Q172-99 175-96.50Q178-94 179-94Q192-90 290-76Q322-72 385-62Q389-62 392-52L392 89Q363 46 311 18Q259-10 212-10Q127-10 93 31Q69 60 69 117L69 439Q69 449 81 449Q93 449 93 439L92 117Q92 63 110 41Q136 9 212 9Q267 9 327 55Q392 105 392 159L392 440Q392 449 405 449Q417 449 417 440L417 159Z"  horiz-adv-x="465" vert-adv-y="1000"  />

      
      <glyph glyph-name="uni0447" unicode="&#x0447;" d="M417 322L416 3Q415-5 403-5Q392-5 392 3L392 252Q363 209 311.50 180.50Q260 152 212 152Q127 152 93 193Q69 222 69 279L69 439Q69 449 81 449Q93 449 93 439L92 279Q92 225 110 203Q135 172 212 172Q268 172 327 217Q392 266 392 322L392 440Q392 449 405 449Q417 449 417 440L417 322Z"  horiz-adv-x="465" vert-adv-y="1000"  />

      
      <glyph glyph-name="uni0448" unicode="&#x0448;" d="M350 67Q350 38 358.50 24.50Q367 11 384 11Q424 11 498 83Q564 146 600 206L600 460Q600 471 611 471Q622 471 622 460L622-16Q622-27 611-27Q600-27 600-16L600 170Q547 102 496 55Q425-10 383-10Q360-10 346 8Q332 26 328 67L329 166Q276 98 225 52Q157-10 115-10Q92-10 77.50 7.50Q63 25 59 67L59 460Q59 471 71 471Q82 471 82 460L82 67Q82 13 116 13Q154 13 227 82Q290 142 328 201L328 460Q328 471 339 471Q350 471 350 460L349 210L350 67Z"  horiz-adv-x="660" vert-adv-y="1000"  />

      
      <glyph glyph-name="uni0449" unicode="&#x0449;" d="M608-54Q579-57 483-74Q465-77 434-83Q422-78 422-71Q422-66 424-63.50Q426-61 428-60Q480-52 520-46Q600-34 600-29L600 170Q547 102 496 55Q425-10 383-10Q360-10 346 8Q332 26 328 67L329 166Q276 98 225 52Q157-10 115-10Q92-10 77.50 7.50Q63 25 59 67L59 460Q59 471 71 471Q82 471 82 460L82 67Q82 16 115 16Q154 16 226 83Q289 142 328 201L328 460Q328 471 339 471Q350 471 350 460L350 210L351 197L350 67Q350 13 384 13Q424 13 498 84Q564 147 600 206L600 460Q600 471 611 471Q622 471 622 460L622-16Q622-30 619.50-40.50Q617-51 608-54Z"  horiz-adv-x="660" vert-adv-y="1000"  />

      
      <glyph glyph-name="uni044A" unicode="&#x044A;" d="M492 209Q494 199 494 193Q494 136 398 83Q333 47 220 15Q136-9 124-9L111-1L111 446Q88 446 73 444.50Q58 443 41 434Q38 425 37 400Q36 375 36 370Q36 325 39 279Q39 270 41 257Q41 247 30 247Q18 247 18 257Q16 271 16 280Q11 338 11 378Q11 429 18 450Q32 458 55.50 462Q79 466 99 466Q130 466 134 462L135 443L135 249Q202 260 229 266Q271 275 314 280Q324 281 333.50 281.50Q343 282 356 282Q410 282 445 265.50Q480 249 492 209M469 206Q463 237 433.50 250Q404 263 356 263Q308 263 236 250Q185 240 135 230L135 13Q289 49 380 97Q471 145 471 190Q471 201 469 206Z"  horiz-adv-x="519" vert-adv-y="1000"  />

      
      <glyph glyph-name="uni044B" unicode="&#x044B;" d="M511 0Q511-10 500-10Q488-10 488 0L488 456Q488 466 500 466Q511 466 511 456L511 0M449 209Q451 199 451 193Q451 136 355 83Q290 47 177 15Q93-9 81-9L69-1L69 461Q69 470 77 470Q85 470 91 462L92 443L92 249Q161 261 187 266Q230 275 271 280Q281 281 290.50 281.50Q300 282 313 282Q367 282 402 265.50Q437 249 449 209M426 206Q420 237 390.50 250Q361 263 313 263Q264 263 193 250Q142 240 92 230L92 13Q246 49 337 96.50Q428 144 428 190Q428 201 426 206Z"  horiz-adv-x="572" vert-adv-y="1000"  />

      
      <glyph glyph-name="uni044C" unicode="&#x044C;" d="M449 209Q451 199 451 193Q451 136 355 83Q290 47 177 15Q93-9 81-9L69-1L69 461Q69 470 77 470Q85 470 91 462L92 443L92 249Q161 261 187 266Q230 275 271 280Q281 281 290.50 281.50Q300 282 313 282Q367 282 402 265.50Q437 249 449 209M426 206Q420 237 390.50 250Q361 263 313 263Q264 263 193 250Q142 240 92 230L92 13Q246 49 337 96.50Q428 144 428 190Q428 201 426 206Z"  horiz-adv-x="485" vert-adv-y="1000"  />

      
      <glyph glyph-name="uni044D" unicode="&#x044D;" d="M411 251Q411 142 334 73Q264 10 162 1Q157 0 146 0Q109 0 76 15Q35 33 18 69Q16 74 20 78Q24 82 30 82Q37 82 39 76Q54 44 96 29Q125 19 160 19Q248 27 310 79Q379 137 387 229Q361 225 335 222Q240 204 154 194Q147 197 147 204Q147 211 154 214L387 253Q387 324 356 369Q319 423 246 423Q190 423 133.50 392.50Q77 362 39 311Q36 307 29 307Q23 307 19 311Q15 315 19 320Q58 375 119.50 408.50Q181 442 246 442Q333 442 376 380Q411 329 411 251Z"  horiz-adv-x="445" vert-adv-y="1000"  />

      
      <glyph glyph-name="uni044E" unicode="&#x044E;" d="M621 229Q621 143 549.50 65.50Q478-12 401-12Q385-12 377-10Q306 6 271.50 57.50Q237 109 237 178Q237 190 237 202L99 202L99 0Q99-13 83-13Q67-13 67 0L67 416Q67 429 83 429Q99 429 99 416L99 234L238 234Q260 312 324 373Q392 438 462 438Q470 438 484 436Q557 422 589 373Q621 324 621 229M599 229Q599 318 570.50 361Q542 404 478 417Q466 419 460 419Q395 419 327 337.50Q259 256 259 178Q259 113 288.50 67.50Q318 22 382 8Q394 6 401 6Q465 6 532 79Q599 152 599 229Z"  horiz-adv-x="638" vert-adv-y="1000"  />

      
      <glyph glyph-name="uni044F" unicode="&#x044F;" d="M426 431Q436 431 436 420Q436 414 432.50 410.50Q429 407 424 410L396 411L396 4Q396-6 384-6Q372-6 372 4L372 222L49-7Q43-12 37-9Q31-6 31 0Q31 4 35 7L345 229Q315 224 271.50 219Q228 214 199 214Q142 214 112 228Q76 245 76 282Q114 339 202 386Q290 433 372 433L372 460Q372 470 384 470Q396 470 396 460L396 433Q409 433 415.50 432.50Q422 432 426 431M372 250L372 412Q363 413 358 413Q292 413 206 366.50Q120 320 97 276Q108 253 135.50 242.50Q163 232 204 232Q228 232 262.50 235Q297 238 372 250Z"  horiz-adv-x="468" vert-adv-y="1000"  />

      
      <glyph glyph-name="uni040A" unicode="&#x040A;" d="M822 301Q824 285 824 277Q824 189 713 110Q636 55 505 6Q408-30 393-30L379-19L379 330L70 241L70-3Q70-14 59-14Q48-14 48-3L48 629Q48 640 59 640Q70 640 70 629L70 263L379 353L379 629Q379 640 390 640Q401 640 401 629L401 361Q470 376 515.50 388Q561 400 615 409Q638 412 660 412Q723 412 762 389Q808 362 822 301M800 298Q793 347 756.50 367.50Q720 388 662 388Q603 388 519 368Q430 343 401 336L401-3Q471 18 537 46Q647 92 714 142Q803 208 803 273Q803 286 800 298Z"  horiz-adv-x="851" vert-adv-y="1000"  />

      
      <glyph glyph-name="uni045A" unicode="&#x045A;" d="M699 209Q701 199 701 193Q701 136 605 83Q540 47 427 15Q343-9 331-9L319-1L319 224L65 172L65-2Q65-13 51-13Q36-13 36-2L36 449Q36 460 51 460Q65 460 65 449L65 191L319 243L319 461Q319 471 331 471Q342 471 342 461L342 249Q411 261 437 266Q480 275 521 280Q531 281 540.50 281.50Q550 282 563 282Q617 282 652 265.50Q687 249 699 209M676 206Q670 237 640.50 250Q611 263 563 263Q514 263 443 250Q392 240 342 230L342 13Q496 49 587 96.50Q678 144 678 190Q678 201 676 206Z"  horiz-adv-x="710" vert-adv-y="1000"  />

      
      </font>
</defs>
</svg>
