<?xml version="1.0" standalone="no"?>
  <!DOCTYPE svg PUBLIC "-//W3C//DTD SVG 1.1//EN" "http://www.w3.org/Graphics/SVG/1.1/DTD/svg11.dtd" >
  <svg>
  <metadata>
  Created by font-carrier
  </metadata>
  <defs>
  <font id="NautilusPompilius" horiz-adv-x="2799" vert-adv-y="2799" >
    <font-face
      
      font-family="Nautilus Pompilius"
      
      font-weight="400"
      
      font-stretch="normal"
      
      units-per-em="2048"
      
      ascent="1536"
      
      descent="-512"
      
    />
      <missing-glyph />

      

      
      <glyph glyph-name="uni21" unicode="&#x21;" d="M618 1530L330 459Q319 415 286 393Q253 371 211 371Q174 371 145 389L344 1425Q358 1492 407 1524Q456 1556 520 1556Q577 1556 618 1530M39 94Q42 154 85 196Q128 238 188 238Q248 238 288.50 196Q329 154 326 94Q321 34 277.50-7.50Q234-49 174-49Q114-49 74.50-7.50Q35 34 39 94Z"  horiz-adv-x="569" vert-adv-y="2048"  />

      
      <glyph glyph-name="uni22" unicode="&#x22;" d="M100 1024Q82 1024 69.50 1038.50Q57 1053 57 1077Q135 1166 135 1247Q135 1279 111.50 1330.50Q88 1382 88 1419Q88 1475 129 1515.50Q170 1556 229 1556Q291 1556 333 1513Q375 1470 375 1411Q375 1303 285.50 1184Q196 1065 100 1024M465 1024Q447 1024 434.50 1038.50Q422 1053 422 1077Q500 1166 500 1247Q500 1279 476.50 1330.50Q453 1382 453 1419Q453 1475 494 1515.50Q535 1556 594 1556Q656 1556 697.50 1513.50Q739 1471 739 1411Q739 1303 649.50 1184Q560 1065 465 1024Z"  horiz-adv-x="720" vert-adv-y="2048"  />

      
      <glyph glyph-name="uni23" unicode="&#x23;" d="M1061 928L911 928L846 618L1055 618Q1063 554 1042.50 517.50Q1022 481 958 481L815 481L709-16Q653-21 617.50 13.50Q582 48 594 106L674 481L381 481L274-16Q218-21 183 13.50Q148 48 160 106L240 481L23 481Q7 535 33.50 576.50Q60 618 119 618L270 618L336 928L125 928Q109 982 135.50 1023.50Q162 1065 221 1065L367 1065L463 1516Q601 1509 578 1393L508 1065L801 1065L897 1516Q1035 1509 1012 1393L942 1065L1157 1065Q1165 1001 1145 964.50Q1125 928 1061 928M477 928L412 618L705 618L770 928L477 928Z"  horiz-adv-x="1110" vert-adv-y="2048"  />

      
      <glyph glyph-name="uni24" unicode="&#x24;" d="M942 1800L879 1561Q985 1532 1039.50 1455Q1094 1378 1094 1288Q1094 1205 1048.50 1146Q1003 1087 928 1087Q898 1087 861.50 1108.50Q825 1130 809 1169Q857 1183 885 1230Q913 1277 913 1331Q913 1386 881 1424Q849 1462 788 1462Q697 1462 646.50 1390Q596 1318 596 1214Q596 1155 619.50 1100.50Q643 1046 681 1002.50Q719 959 764.50 916Q810 873 855.50 828Q901 783 939 734.50Q977 686 1000.50 622Q1024 558 1024 487Q1024 264 882.50 129.50Q741-5 518-14L453-260Q444-292 420.50-308Q397-324 367-324Q342-324 319-309L377-6Q227 25 146.50 132Q66 239 66 373Q66 439 87.50 499.50Q109 560 148.50 608Q188 656 251 684.50Q314 713 391 713Q445 713 485.50 677.50Q526 642 526 586Q526 555 512 520Q414 553 345 501Q276 449 276 358Q276 270 334 205.50Q392 141 492 141Q612 141 675.50 222.50Q739 304 739 426Q739 493 716.50 551.50Q694 610 658 654.50Q622 699 578 741.50Q534 784 490.50 828.50Q447 873 411 921.50Q375 970 352.50 1036Q330 1102 330 1178Q330 1339 438 1449.50Q546 1560 715 1575L745 1724Q755 1773 790.50 1796Q826 1819 872 1819Q917 1819 942 1800Z"  horiz-adv-x="1167" vert-adv-y="2048"  />

      
      <glyph glyph-name="uni26" unicode="&#x26;" d="M506 1169Q506 999 633 824Q760 649 958 494Q997 606 997 735Q997 780 991 827Q931 824 901 786Q874 821 874 859Q874 897 897 928Q920 959 967.50 979Q1015 999 1077 999Q1134 999 1222.50 984Q1311 969 1376.50 969Q1442 969 1499 999Q1524 967 1523.50 926Q1523 885 1502 850.50Q1481 816 1439 792Q1397 768 1346 768Q1309 768 1271 775Q1233 782 1184.50 795Q1136 808 1112 813Q1126 731 1126 670Q1126 519 1085 401Q1318 247 1454 221Q1454 93 1396.50 24.50Q1339-44 1276-23Q1131 27 946 170Q859 79 745.50 31.50Q632-16 514-16Q407-16 322 17Q237 50 185 106.50Q133 163 105.50 233.50Q78 304 78 383Q78 475 114.50 561Q151 647 227 717Q303 787 408 817Q317 1007 317 1169Q317 1261 363 1345Q409 1429 494 1482.50Q579 1536 682 1536Q838 1536 923 1457.50Q1008 1379 1008 1251Q1008 1067 848 1067Q818 1067 781.50 1088.50Q745 1110 729 1149Q775 1172 800 1216.50Q825 1261 825 1305Q825 1359 786.50 1390Q748 1421 688 1421Q603 1421 554.50 1359Q506 1297 506 1169M551 168Q704 168 821 279Q601 483 465 711Q395 661 356 580.50Q317 500 317 416Q317 310 377 239Q437 168 551 168Z"  horiz-adv-x="1705" vert-adv-y="2048"  />

      
      <glyph glyph-name="uni27" unicode="&#x27;" d="M-41 1104L41 1393Q66 1466 108 1501Q150 1536 199 1536Q241 1536 270 1516L100 1161Q65 1090 10 1090Q-16 1090-41 1104Z"  horiz-adv-x="270" vert-adv-y="2048"  />

      
      <glyph glyph-name="uni28" unicode="&#x28;" d="M377 223Q377 62 425-98Q473-258 555-371Q523-427 455-442Q369-374 303.50-280.50Q238-187 201.50-87.50Q165 12 147 107.50Q129 203 129 293Q129 465 169.50 635Q210 805 292 970Q374 1135 512 1284.50Q650 1434 831 1546Q898 1519 907 1458Q753 1326 645 1171.50Q537 1017 480.50 854.50Q424 692 400.50 540.50Q377 389 377 223Z"  horiz-adv-x="778" vert-adv-y="2048"  />

      
      <glyph glyph-name="uni29" unicode="&#x29;" d="M408 881Q408 1042 359.50 1202Q311 1362 229 1475Q261 1531 330 1546Q416 1478 481.50 1384.50Q547 1291 583.50 1191.50Q620 1092 637.50 996.50Q655 901 655 811Q655 639 614.50 469Q574 299 492 134Q410-31 272-180.50Q134-330-47-442Q-114-415-123-354Q408 99 408 881Z"  horiz-adv-x="757" vert-adv-y="2048"  />

      
      <glyph glyph-name="uni2a" unicode="&#x2a;" d="M180 1282Q185 1313 210.50 1336Q236 1359 272 1361.50Q308 1364 348 1331L442 1245L492 1479Q539 1496 583.50 1460.50Q628 1425 612 1354L588 1245L784 1374Q813 1360 828.50 1330Q844 1300 833.50 1262.50Q823 1225 780 1198L645 1112L803 977Q798 946 772.50 923Q747 900 711 897.50Q675 895 635 928L539 1014L492 782Q445 765 400 800.50Q355 836 371 907L393 1014L199 885Q170 899 154.50 929Q139 959 149.50 996.50Q160 1034 203 1061L338 1147L180 1282Z"  horiz-adv-x="997" vert-adv-y="2048"  />

      
      <glyph glyph-name="uni2b" unicode="&#x2b;" d="M172 678Q156 696 155 726Q154 756 166.50 785Q179 814 211.50 835Q244 856 289 856L469 856L532 1135Q590 1156 645 1112.50Q700 1069 680 983L651 856L901 856Q916 833 917 802.50Q918 772 906 744Q894 716 862 697Q830 678 784 678L610 678L549 385Q528 370 498.50 377.50Q469 385 443 402.50Q417 420 403 457Q389 494 399 537L430 678L172 678Z"  horiz-adv-x="1054" vert-adv-y="2048"  />

      
      <glyph glyph-name="uni2c" unicode="&#x2c;" d="M-8-295Q-27-301-40-284.50Q-53-268-43-242Q11-196 40-142Q69-88 72-41.50Q75 5 66 42.50Q57 80 39 104Q47 161 88.50 200.50Q130 240 188 240Q250 240 286 201Q322 162 322 102Q322-12 228-128.50Q134-245-8-295Z"  horiz-adv-x="485" vert-adv-y="2048"  />

      
      <glyph glyph-name="uni2d" unicode="&#x2d;" d="M145 502Q76 502 43 461Q16 498 16 535Q16 590 66 628Q116 666 199 666Q244 666 320 656.50Q396 647 430 647Q493 647 543 678Q567 639 567 604Q567 545 517 500Q467 455 389 455Q347 455 269.50 478.50Q192 502 145 502Z"  horiz-adv-x="686" vert-adv-y="2048"  />

      
      <glyph glyph-name="uni2e" unicode="&#x2e;" d="M39 94Q42 154 85 196Q128 238 188 238Q248 238 288.50 196Q329 154 326 94Q321 34 277.50-7.50Q234-49 174-49Q114-49 74.50-7.50Q35 34 39 94Z"  horiz-adv-x="532" vert-adv-y="2048"  />

      
      <glyph glyph-name="uni2f" unicode="&#x2f;" d="M788 1389L80-16Q25-16-1 30Q-27 76 0 131L709 1536Q771 1536 794.50 1494Q818 1452 788 1389Z"  horiz-adv-x="786" vert-adv-y="2048"  />

      
      <glyph glyph-name="uni30" unicode="&#x30;" d="M1093 1179Q1093 1179 1097.50 1142.50Q1102 1106 1102 1012Q1102 918 1090.50 820.50Q1079 723 1053 621.50Q1027 520 989 427.50Q951 335 895 253Q839 171 771 111.50Q703 52 612 17Q521-18 418-18Q327-18 259 9.50Q191 37 150 82Q109 127 84 196.50Q59 266 50 339Q41 412 41 506Q41 600 52.50 697.50Q64 795 90 896.50Q116 998 154 1090.50Q192 1183 248 1265Q304 1347 372 1406.50Q440 1466 531 1501Q622 1536 725 1536Q816 1536 884 1508.50Q952 1481 993 1436Q1034 1391 1059 1321.50Q1084 1252 1093 1179M307 451Q307 294 348.50 205.50Q390 117 465 117Q527 117 580 158.50Q633 200 670 266.50Q707 333 737 421.50Q767 510 785 600Q803 690 815 782.50Q827 875 831.50 944.50Q836 1014 836 1067Q836 1224 794.50 1312.50Q753 1401 678 1401Q616 1401 563 1359.50Q510 1318 473 1251.50Q436 1185 406 1096.50Q376 1008 358 918Q340 828 328 735.50Q316 643 311.50 573.50Q307 504 307 451Z"  horiz-adv-x="1101" vert-adv-y="2048"  />

      
      <glyph glyph-name="uni31" unicode="&#x31;" d="M657 1520L356 104Q342 37 293 5Q244-27 180-27Q124-27 82 0L326 1139Q236 1104 152 1104Q133 1104 117.50 1127Q102 1150 101 1178.50Q100 1207 117 1233Q186 1248 248.50 1278.50Q311 1309 368.50 1356.50Q426 1404 464.50 1443Q503 1482 557 1542Q613 1551 657 1520Z"  horiz-adv-x="616" vert-adv-y="2048"  />

      
      <glyph glyph-name="uni32" unicode="&#x32;" d="M426 1106Q323 1067 259 1111.50Q195 1156 195 1260Q195 1346 251.50 1413Q308 1480 395.50 1513Q483 1546 582 1546Q663 1546 736 1524Q809 1502 868.50 1459Q928 1416 963.50 1343.50Q999 1271 999 1178Q999 1088 963 1006Q927 924 867 858Q807 792 733.50 730.50Q660 669 581 610Q502 551 432 493.50Q362 436 304.50 366.50Q247 297 221 227Q335 227 406 229Q477 231 560.50 238Q644 245 699 259.50Q754 274 807.50 299.50Q861 325 901 362Q954 240 931 154.50Q908 69 844 23Q780-23 700-23Q586-23 445.50-5Q305 13 195 39Q169 15 128 6.50Q87-2 49 8Q36 75 47.50 149.50Q59 224 90 283Q124 349 180 418Q236 487 296.50 545.50Q357 604 423 666.50Q489 729 547.50 792Q606 855 653.50 921Q701 987 728.50 1066Q756 1145 756 1227Q756 1317 708 1363Q660 1409 590 1409Q505 1409 453 1354.50Q401 1300 401 1206Q401 1164 426 1106Z"  horiz-adv-x="1019" vert-adv-y="2048"  />

      
      <glyph glyph-name="uni33" unicode="&#x33;" d="M1102 1499Q1065 1345 934 1182.50Q803 1020 625 872Q713 864 778.50 834Q844 804 880.50 759Q917 714 934.50 662.50Q952 611 952 551Q952 403 887.50 273.50Q823 144 705 64Q587-16 444-16Q256-16 149.50 69Q43 154 43 307Q43 364 59 418.50Q75 473 106.50 519Q138 565 191 593Q244 621 311 621Q368 621 409 580Q450 539 442 465Q357 485 308.50 441.50Q260 398 260 317Q260 234 304 180.50Q348 127 432 127Q543 127 614.50 236Q686 345 686 530Q686 804 424 766Q396 814 418 874Q541 980 629 1070Q717 1160 784 1266Q756 1267 653 1282.50Q550 1298 473 1298Q413 1298 345.50 1279.50Q278 1261 238 1237Q197 1376 258.50 1456Q320 1536 436 1536Q523 1536 647.50 1515.50Q772 1495 825 1495Q929 1495 1030 1544Q1079 1536 1102 1499Z"  horiz-adv-x="1038" vert-adv-y="2048"  />

      
      <glyph glyph-name="uni34" unicode="&#x34;" d="M41 522Q142 627 271.50 860.50Q401 1094 401 1219Q401 1300 374 1358.50Q347 1417 299 1444Q376 1533 467 1536Q551 1538 595 1495.50Q639 1453 639 1356Q639 1236 509.50 992Q380 748 250 618Q303 627 362.50 625Q422 623 450 619Q478 615 527 607Q576 599 608 596L776 1405Q790 1472 839 1504Q888 1536 952 1536Q1009 1536 1051 1509L864 614Q906 626 954 651Q987 533 948 471.50Q909 410 819 397L758 104Q744 37 695 5Q646-27 582-27Q525-27 483 0L567 401Q537 403 483 409Q429 415 405.50 416.50Q382 418 323.50 420Q265 422 225 416Q182 414 129 399Q60 437 41 522Z"  horiz-adv-x="1050" vert-adv-y="2048"  />

      
      <glyph glyph-name="uni35" unicode="&#x35;" d="M815 1233Q664 1233 432 1282L346 891Q434 918 520 918Q627 918 708.50 888.50Q790 859 838 807Q886 755 910 691Q934 627 934 551Q934 403 869.50 273.50Q805 144 687 64Q569-16 426-16Q238-16 131.50 69Q25 154 25 307Q25 364 41 418.50Q57 473 88.50 519Q120 565 173 593Q226 621 293 621Q350 621 391 580Q432 539 424 465Q339 485 290.50 441.50Q242 398 242 317Q242 234 286 180.50Q330 127 414 127Q528 127 598 230Q668 333 668 530Q668 643 615 717Q562 791 455 791Q394 791 305 766Q281 771 253.50 791Q226 811 213 836L354 1534Q481 1512 580.50 1503.50Q680 1495 801.50 1505Q923 1515 1018 1554Q1022 1508 1022 1475Q1022 1366 970.50 1299.50Q919 1233 815 1233Z"  horiz-adv-x="1042" vert-adv-y="2048"  />

      
      <glyph glyph-name="uni36" unicode="&#x36;" d="M772 1577Q908 1577 969 1519Q1030 1461 1030 1378Q1030 1355 1021 1328.50Q1012 1302 993 1274.50Q974 1247 936 1233Q898 1219 848 1227Q880 1450 733 1450Q659 1450 593 1397.50Q527 1345 478 1254.50Q429 1164 394 1054.50Q359 945 338 821Q466 936 602 936Q779 936 874 830Q969 724 969 565Q969 483 947.50 401.50Q926 320 880.50 244Q835 168 772 110Q709 52 619.50 17Q530-18 426-18Q330-18 255.50 22.50Q181 63 135 134.50Q89 206 66 298Q43 390 43 498Q43 618 65.50 743.50Q88 869 130 989.50Q172 1110 236.50 1216.50Q301 1323 379.50 1403.50Q458 1484 559.50 1530.50Q661 1577 772 1577M508 778Q426 778 322 705Q313 616 313 530Q313 307 351 216Q389 125 473 125Q534 125 589.50 195.50Q645 266 676 367.50Q707 469 707 565Q707 659 657.50 718.50Q608 778 508 778Z"  horiz-adv-x="1071" vert-adv-y="2048"  />

      
      <glyph glyph-name="uni37" unicode="&#x37;" d="M414 106Q414 39 360 7Q306-25 238-25Q181-25 139 2Q139 137 175 287.50Q211 438 267.50 572.50Q324 707 399 839.50Q474 972 547.50 1076Q621 1180 694 1264Q611 1261 499 1279.50Q387 1298 305 1298Q247 1298 178 1279Q109 1260 70 1237Q29 1378 92 1477.50Q155 1577 268 1577Q374 1577 459.50 1555.50Q545 1534 618 1516.50Q691 1499 780 1507Q851 1512 944 1544Q970 1514 978.50 1479.50Q987 1445 967 1417Q816 1247 704.50 1065.50Q593 884 532 715Q471 546 442.50 396Q414 246 414 106Z"  horiz-adv-x="860" vert-adv-y="2048"  />

      
      <glyph glyph-name="uni38" unicode="&#x38;" d="M991 1262Q994 1160 930.50 1057Q867 954 748 883Q795 846 829.50 808Q864 770 896.50 717Q929 664 946 593Q963 522 963 436Q963 350 934 275Q905 200 855 146Q805 92 739 53Q673 14 599-5.50Q525-25 449-25Q326-25 232 30Q138 85 90.50 173Q43 261 43 365Q43 511 123.50 629Q204 747 367 821Q300 883 263.50 950Q227 1017 227 1108Q227 1212 264.50 1299.50Q302 1387 363.50 1442.50Q425 1498 500 1528.50Q575 1559 653 1559Q807 1559 897.50 1474Q988 1389 991 1262M692 383Q692 447 673 501.50Q654 556 617 599.50Q580 643 544.50 675Q509 707 457 747Q447 754 442 758Q372 683 331.50 583.50Q291 484 291 381Q291 277 338.50 212Q386 147 485 147Q571 147 631.50 209Q692 271 692 383M473 1202Q473 1157 487 1120Q501 1083 533.50 1049.50Q566 1016 592 995.50Q618 975 668 940Q702 978 731 1039.50Q760 1101 772 1167.50Q784 1234 779.50 1292.50Q775 1351 739 1388.50Q703 1426 639 1425Q571 1423 522 1365.50Q473 1308 473 1202Z"  horiz-adv-x="993" vert-adv-y="2048"  />

      
      <glyph glyph-name="uni39" unicode="&#x39;" d="M311-18Q175-18 114 39.50Q53 97 53 180Q53 198 58 218.50Q63 239 76.50 262.50Q90 286 109.50 303.50Q129 321 162 330Q195 339 236 332Q204 109 350 109Q448 109 531 201Q614 293 665.50 430Q717 567 745 735Q617 623 481 623Q391 623 319.50 658Q248 693 204.50 753.50Q161 814 138 890.50Q115 967 115 1055Q115 1128 136.50 1201Q158 1274 203 1341.50Q248 1409 311 1461.50Q374 1514 463.50 1545.50Q553 1577 657 1577Q753 1577 827.50 1536.50Q902 1496 948 1424.50Q994 1353 1017 1261Q1040 1169 1040 1061Q1040 941 1017.50 815.50Q995 690 953 569.50Q911 449 846.50 342.50Q782 236 703.50 155.50Q625 75 523.50 28.50Q422-18 311-18M575 780Q661 780 760 852Q770 950 770 1028Q770 1251 732 1342.50Q694 1434 610 1434Q553 1434 507 1398.50Q461 1363 433.50 1306.50Q406 1250 391.50 1185Q377 1120 377 1055Q377 978 396.50 918Q416 858 461.50 819Q507 780 575 780Z"  horiz-adv-x="1081" vert-adv-y="2048"  />

      
      <glyph glyph-name="uni3a" unicode="&#x3a;" d="M86 813Q89 873 132.50 914.50Q176 956 236 956Q296 956 336 914.50Q376 873 373 813Q368 753 324.50 711.50Q281 670 221 670Q161 670 121.50 711.50Q82 753 86 813M8 211Q11 271 54.50 312.50Q98 354 158 354Q218 354 258 312.50Q298 271 295 211Q290 151 246.50 109.50Q203 68 143 68Q83 68 43.50 109.50Q4 151 8 211Z"  horiz-adv-x="425" vert-adv-y="2048"  />

      
      <glyph glyph-name="uni3b" unicode="&#x3b;" d="M115 813Q118 873 161 914.50Q204 956 264 956Q324 956 364 914.50Q404 873 401 813Q396 753 353 711.50Q310 670 250 670Q190 670 150.50 711.50Q111 753 115 813M-8-295Q-27-301-40-284.50Q-53-268-43-242Q11-196 40-142Q69-88 72-41.50Q75 5 66 42.50Q57 80 39 104Q47 161 88.50 200.50Q130 240 188 240Q250 240 286 201Q322 162 322 102Q322-12 228-128.50Q134-245-8-295Z"  horiz-adv-x="485" vert-adv-y="2048"  />

      
      <glyph glyph-name="uni3c" unicode="&#x3c;" d="M709 1012Q437 712 225 543Q345 336 582 82Q545 47 499 28.50Q453 10 405.50 17Q358 24 328 63Q321 72 291 111.50Q261 151 252.50 162Q244 173 217 208.50Q190 244 179.50 258.50Q169 273 145.50 305Q122 337 110.50 354.50Q99 372 79.50 400.50Q60 429 47 450.50Q34 472 18.50 497.50Q3 523-10 547Q187 723 461 1030Q499 1072 549 1079.50Q599 1087 640.50 1067Q682 1047 709 1012Z"  horiz-adv-x="688" vert-adv-y="2048"  />

      
      <glyph glyph-name="uni3d" unicode="&#x3d;" d="M508 477L43 477Q25 495 25 530Q25 577 60.50 616Q96 655 160 655L625 655Q641 629 641 594Q641 547 607 512Q573 477 508 477M578 805L113 805Q94 824 94 858Q94 905 129.50 944Q165 983 229 983L694 983Q711 956 711 922Q711 875 677 840Q643 805 578 805Z"  horiz-adv-x="731" vert-adv-y="2048"  />

      
      <glyph glyph-name="uni3e" unicode="&#x3e;" d="M-20 82Q121 236 232.50 347Q344 458 461 551Q345 756 106 1012Q143 1047 189 1065.50Q235 1084 282.50 1076.50Q330 1069 360 1030Q367 1021 406.50 969.50Q446 918 455 906Q464 894 497.50 849Q531 804 544 786Q557 768 584 729.50Q611 691 626.50 666.50Q642 642 662 609.50Q682 577 698 547Q505 375 227 63Q189 21 139.50 14Q90 7 48.50 27Q7 47-20 82Z"  horiz-adv-x="688" vert-adv-y="2048"  />

      
      <glyph glyph-name="uni3f" unicode="&#x3f;" d="M231 1135Q193 1090 131 1090Q10 1090 10 1257Q10 1390 115.50 1483.50Q221 1577 377 1577Q466 1577 542.50 1544Q619 1511 670 1439Q721 1367 721 1268Q721 1201 705 1144Q689 1087 653 1034Q617 981 588.50 947.50Q560 914 506 860Q463 815 442.50 792.50Q422 770 387.50 724.50Q353 679 336.50 643Q320 607 306.50 555.50Q293 504 293 449Q293 395 245 371.50Q197 348 115 373Q115 450 127.50 519Q140 588 154.50 633.50Q169 679 200 734Q231 789 248.50 814.50Q266 840 305 893Q343 943 363 972Q383 1001 408 1048.50Q433 1096 444 1146Q455 1196 455 1255Q455 1326 422.50 1363.50Q390 1401 344 1401Q271 1401 229.50 1352Q188 1303 188 1235Q188 1169 231 1135M49 121Q52 181 95.50 222.50Q139 264 199 264Q259 264 299 222.50Q339 181 336 121Q331 61 287.50 19Q244-23 184-23Q124-23 84.50 19Q45 61 49 121Z"  horiz-adv-x="722" vert-adv-y="2048"  />

      
      <glyph glyph-name="uni40" unicode="&#x40;" d="M786 244Q654 244 651 385Q552 244 440 244Q392 244 357 267.50Q322 291 305 329Q288 367 281 404.50Q274 442 274 481Q274 596 315.50 710Q357 824 432 895Q523 977 616 977Q715 977 748 905Q781 969 860 969Q903 969 928 950L829 483Q806 377 877 377Q947 377 1006 436Q1065 495 1097.50 588.50Q1130 682 1130 784Q1130 883 1107.50 961.50Q1085 1040 1036.50 1100Q988 1160 906.50 1192.50Q825 1225 713 1225Q535 1225 402.50 1133.50Q270 1042 203.50 888.50Q137 735 137 543Q137 314 254.50 175.50Q372 37 604 37Q727 37 840 78Q953 119 1006 180Q1043 172 1058.50 147Q1074 122 1069.50 96.50Q1065 71 1049 51Q1000-14 890.50-53Q781-92 612-92Q448-92 317-43.50Q186 5 101 92Q16 179-29 297.50Q-74 416-74 557Q-74 682-43.50 795Q-13 908 52.50 1006Q118 1104 212 1175Q306 1246 440.50 1286.50Q575 1327 737 1327Q861 1327 961 1298Q1061 1269 1128.50 1219Q1196 1169 1241.50 1100Q1287 1031 1307 954.50Q1327 878 1327 793Q1327 662 1257.50 536.50Q1188 411 1061 327.50Q934 244 786 244M520 406Q591 406 657 485L733 852Q643 910 567 825Q509 760 481 670.50Q453 581 453 492Q453 452 471.50 429Q490 406 520 406Z"  horiz-adv-x="1331" vert-adv-y="2048"  />

      
      <glyph glyph-name="uni41" unicode="&#x41;" d="M1341 186Q1251 95 1157 39.50Q1063-16 987-16Q950-16 916.50-8.50Q883-1 851.50 16Q820 33 801 61Q782 89 773.50 130Q765 171 778 227L848 559L618 559Q485 252 360 118Q235-16 98-16Q19-16-29.50 57.50Q-78 131-78 264Q-78 418 96 418Q155 418 199 383Q156 285 156 172L156 154Q209 174 259 217.50Q309 261 374.50 355.50Q440 450 506 589.50Q572 729 654 952.50Q736 1176 823 1466L782 1466Q653 1466 590.50 1407Q528 1348 528 1266Q528 1195 569 1147Q523 1126 481 1126Q406 1126 360.50 1183.50Q315 1241 315 1321Q315 1372 334.50 1419Q354 1466 393.50 1507Q433 1548 500.50 1572.50Q568 1597 655 1597Q741 1597 851.50 1583.50Q962 1570 1035 1557.50Q1108 1545 1198 1541Q1288 1537 1333 1556Q1362 1539 1362 1503Q1362 1471 1342.50 1447Q1323 1423 1290 1423L1282 1423L1049 330Q1017 178 1116 178Q1161 178 1221.50 211Q1282 244 1325 281Q1360 266 1360 231Q1360 208 1341 186M1036 1448Q943 1458 924 1460Q790 990 668 678L872 678L1036 1448Z"  horiz-adv-x="1325" vert-adv-y="2048"  />

      
      <glyph glyph-name="uni42" unicode="&#x42;" d="M969 1255Q969 1373 908.50 1427Q848 1481 721 1481Q618 1481 518 1441Q418 1401 348.50 1322Q279 1243 279 1145Q279 1072 319 1026Q275 1006 231 1006Q156 1006 111 1063Q66 1120 66 1200Q66 1282 128.50 1354Q191 1426 290.50 1474Q390 1522 512 1549.50Q634 1577 754 1577Q834 1577 897.50 1569Q961 1561 1018 1541Q1075 1521 1112.50 1488Q1150 1455 1172 1402.50Q1194 1350 1194 1280Q1194 1158 1108 1033.50Q1022 909 872 829L874 827Q1028 827 1106 755Q1184 683 1184 567Q1184 473 1134.50 371Q1085 269 1000.50 182.50Q916 96 789 40Q662-16 522-16Q349-16 229 27Q109 70 109 139Q109 175 129 204Q149 233 190 246Q234 208 285 180L518 1282Q532 1349 581 1381Q630 1413 694 1413Q751 1413 793 1386L674 831Q796 868 882.50 997Q969 1126 969 1255M743 739Q700 739 651 727L520 115L522 115Q625 115 718 179.50Q811 244 866.50 346.50Q922 449 922 557Q922 640 876.50 689.50Q831 739 743 739Z"  horiz-adv-x="1275" vert-adv-y="2048"  />

      
      <glyph glyph-name="uni43" unicode="&#x43;" d="M733 1577Q805 1577 861 1554Q917 1531 950.50 1493.50Q984 1456 1001 1411Q1018 1366 1018 1317Q1018 1232 971.50 1170Q925 1108 852 1108Q820 1108 783.50 1129.50Q747 1151 731 1190Q776 1208 801 1250Q826 1292 825 1333.50Q824 1375 793 1406.50Q762 1438 705 1438Q617 1438 532.50 1323Q448 1208 394 1016Q340 824 340 616Q340 522 356.50 444Q373 366 406.50 304.50Q440 243 497 208.50Q554 174 629 174Q805 174 995 281Q1030 266 1030 231Q1030 204 1012 186Q810-16 514-16Q397-16 306.50 32.50Q216 81 161 165.50Q106 250 78.50 355.50Q51 461 51 582Q51 775 105.50 957.50Q160 1140 251 1276Q342 1412 469 1494.50Q596 1577 733 1577Z"  horiz-adv-x="995" vert-adv-y="2048"  />

      
      <glyph glyph-name="uni44" unicode="&#x44;" d="M139 313Q203 313 297 258Q334 318 358 424L541 1282Q555 1349 604 1381Q653 1413 717 1413Q773 1413 815 1386L621 496Q573 284 471 154Q554 115 629 115Q725 115 807.50 166.50Q890 218 947 303Q1004 388 1045 498.50Q1086 609 1105 727Q1124 845 1124 963Q1124 1048 1111.50 1123Q1099 1198 1070 1264Q1041 1330 998.50 1377Q956 1424 892.50 1451.50Q829 1479 750 1479Q631 1479 538.50 1451.50Q446 1424 390.50 1377Q335 1330 307 1271Q279 1212 279 1145Q279 1072 319 1026Q275 1006 231 1006Q156 1006 111 1063Q66 1120 66 1200Q66 1278 111.50 1345.50Q157 1413 244.50 1465Q332 1517 471.50 1547Q611 1577 788 1577Q943 1577 1061.50 1528Q1180 1479 1250 1393.50Q1320 1308 1354.50 1200.50Q1389 1093 1389 967Q1389 829 1358.50 690Q1328 551 1266 424Q1204 297 1118 199Q1032 101 912.50 42.50Q793-16 657-16Q519-16 387 74Q269-16 109-16Q29-16-22.50 22.50Q-74 61-74 127Q-74 199-16 256Q42 313 139 313M123 135Q191 135 246 190Q180 246 141 246Q100 246 74.50 227.50Q49 209 49 186Q49 163 69.50 149Q90 135 123 135Z"  horiz-adv-x="1415" vert-adv-y="2048"  />

      
      <glyph glyph-name="uni45" unicode="&#x45;" d="M281 1169Q281 1245 311 1317.50Q341 1390 395 1448Q449 1506 534 1541.50Q619 1577 721 1577Q888 1577 971.50 1504Q1055 1431 1055 1323Q1055 1234 1008 1171Q961 1108 887 1108Q857 1108 820.50 1129.50Q784 1151 768 1190Q813 1203 840.50 1247Q868 1291 868 1341Q868 1392 837.50 1427Q807 1462 748 1462Q635 1462 568.50 1372.50Q502 1283 502 1163Q502 1059 555.50 977Q609 895 711 870Q717 828 690 793Q593 786 519.50 728.50Q446 671 410.50 591.50Q375 512 375 426Q375 315 437 239.50Q499 164 618 164Q716 164 815.50 192.50Q915 221 995 281Q1030 266 1030 231Q1030 204 1012 186Q911 85 765.50 34.50Q620-16 473-16Q376-16 300 17Q224 50 178.50 107Q133 164 109.50 235.50Q86 307 86 389Q86 544 182.50 679.50Q279 815 444 866Q362 920 321.50 999Q281 1078 281 1169Z"  horiz-adv-x="995" vert-adv-y="2048"  />

      
      <glyph glyph-name="uni46" unicode="&#x46;" d="M279 1118Q279 1045 319 999Q275 979 233 979Q157 979 111.50 1035Q66 1091 66 1169Q66 1250 94 1316Q122 1382 170 1424.50Q218 1467 275.50 1498.50Q333 1530 399.50 1546.50Q466 1563 522.50 1570Q579 1577 633 1577Q700 1577 796.50 1565.50Q893 1554 961 1545.50Q1029 1537 1119.50 1547Q1210 1557 1292 1593Q1325 1458 1265 1371Q1205 1284 1092 1284Q1079 1284 1064.50 1285.50Q1050 1287 1032.50 1291.50Q1015 1296 1001.50 1299.50Q988 1303 967 1311Q946 1319 934 1323.50Q922 1328 897.50 1339Q873 1350 863.50 1354Q854 1358 827 1370.50Q800 1383 793 1386L678 850Q699 848 746.50 841Q794 834 817.50 832.50Q841 831 876.50 835.50Q912 840 942 854Q962 830 960 801Q958 772 943.50 746.50Q929 721 898 703.50Q867 686 829 686Q802 686 772.50 691.50Q743 697 706.50 707Q670 717 651 721L522 115Q508 48 459 16Q410-16 346-16Q275-16 238 10L563 1452Q510 1447 460.50 1424Q411 1401 370 1361Q329 1321 304 1258Q279 1195 279 1118Z"  horiz-adv-x="991" vert-adv-y="2048"  />

      
      <glyph glyph-name="uni47" unicode="&#x47;" d="M514-16Q397-16 306.50 32.50Q216 81 161 165.50Q106 250 78.50 355.50Q51 461 51 582Q51 775 105.50 957.50Q160 1140 251 1276Q342 1412 469 1494.50Q596 1577 733 1577Q906 1577 979 1457Q1034 1367 1010 1254Q989 1154 922 1109Q886 1085 844 1085Q814 1085 777.50 1106.50Q741 1128 725 1167Q776 1197 796.50 1257.50Q817 1318 793 1367.50Q769 1417 705 1417Q639 1417 573 1350Q507 1283 455.50 1174Q404 1065 372 916.50Q340 768 340 616Q340 522 356.50 444Q373 366 406.50 304.50Q440 243 497 208.50Q554 174 629 174Q725 174 805.50 277Q886 380 899 561Q880 557 834.50 544Q789 531 755 524.50Q721 518 688 518Q637 518 595 542Q553 566 532 601Q511 636 510.50 677Q510 718 535 750Q590 720 651.50 720Q713 720 797.50 735Q882 750 936 750Q987 750 1026.50 731Q1066 712 1085.50 683.50Q1105 655 1105 620Q1105 585 1083 553Q1061 575 1024 578Q1012 426 964 308.50Q916 191 844.50 122Q773 53 689.50 18.50Q606-16 514-16Z"  horiz-adv-x="1171" vert-adv-y="2048"  />

      
      <glyph glyph-name="uni48" unicode="&#x48;" d="M1393 186Q1290 90 1204 37Q1118-16 1036-16Q996-16 963.50-8Q931 0 900 19.50Q869 39 853 72.50Q837 106 831 158Q825 210 842 281L950 795Q807 745 631 741L498 115Q484 48 435 16Q386-16 322-16Q250-16 213 10L543 1466L532 1466Q403 1466 341 1407Q279 1348 279 1266Q279 1193 319 1147Q272 1126 231 1126Q156 1126 111 1183.50Q66 1241 66 1321Q66 1372 85.50 1419Q105 1466 144.50 1507Q184 1548 251.50 1572.50Q319 1597 406 1597Q461 1597 533 1583.50Q605 1570 653 1558Q701 1546 757.50 1542Q814 1538 838 1556Q866 1539 866 1503Q866 1471 847 1447Q828 1423 795 1423L776 1423L659 881Q795 881 971 897L1079 1405Q1093 1472 1142 1504Q1191 1536 1255 1536Q1308 1536 1354 1509L1100 330Q1084 246 1103 212Q1122 178 1167 178Q1212 178 1272.50 211Q1333 244 1376 281Q1411 266 1411 231Q1411 207 1393 186Z"  horiz-adv-x="1376" vert-adv-y="2048"  />

      
      <glyph glyph-name="uni49" unicode="&#x49;" d="M532 1466Q403 1466 341 1407Q279 1348 279 1266Q279 1193 319 1147Q272 1126 231 1126Q156 1126 111 1183.50Q66 1241 66 1321Q66 1372 85.50 1419Q105 1466 144.50 1507Q184 1548 251.50 1572.50Q319 1597 406 1597Q461 1597 533 1583.50Q605 1570 653 1558Q701 1546 757.50 1542Q814 1538 838 1556Q866 1539 866 1503Q866 1471 847 1447Q828 1423 795 1423L776 1423L498 115Q484 48 435 16Q386-16 322-16Q250-16 213 10L543 1466L532 1466Z"  horiz-adv-x="784" vert-adv-y="2048"  />

      
      <glyph glyph-name="uni4a" unicode="&#x4a;" d="M336-293Q429-293 486-191.50Q543-90 602 176L883 1466Q755 1466 693 1407Q631 1348 631 1266Q631 1195 672 1147Q626 1126 584 1126Q509 1126 463.50 1183.50Q418 1241 418 1321Q418 1372 437.50 1419Q457 1466 496.50 1507Q536 1548 603.50 1572.50Q671 1597 758 1597Q813 1597 885 1583.50Q957 1570 1005 1558Q1053 1546 1109.50 1542Q1166 1538 1190 1556Q1219 1539 1219 1503Q1219 1471 1199.50 1447Q1180 1423 1147 1423Q1130 1423 1122 1425L842 96Q788-156 660.50-284Q533-412 338-412Q261-412 201-386.50Q141-361 106-318Q71-275 53-223Q35-171 35-113Q35 3 105 89.50Q175 176 291 176Q402 176 443.50 113Q485 50 444-63Q406-27 348-27Q275-27 237-69.50Q199-112 199-170Q199-218 236.50-255.50Q274-293 336-293Z"  horiz-adv-x="1097" vert-adv-y="2048"  />

      
      <glyph glyph-name="uni4b" unicode="&#x4b;" d="M1063-16Q995-16 939.50 28.50Q884 73 848 142.50Q812 212 785.50 310Q759 408 745 501Q731 594 723 700L618 686L498 115Q484 48 435 16Q386-16 322-16Q250-16 213 10L543 1466L532 1466Q403 1466 341 1407Q279 1348 279 1266Q279 1193 319 1147Q272 1126 231 1126Q156 1126 111 1183.50Q66 1241 66 1321Q66 1372 85.50 1419Q105 1466 144.50 1507Q184 1548 251.50 1572.50Q319 1597 406 1597Q461 1597 533 1583.50Q605 1570 653 1558Q701 1546 757.50 1542Q814 1538 838 1556Q866 1539 866 1503Q866 1471 847 1447Q828 1423 795 1423L776 1423L643 795L692 811Q761 851 818.50 904.50Q876 958 917.50 1020.50Q959 1083 990 1143.50Q1021 1204 1045 1277.50Q1069 1351 1083 1405Q1097 1459 1112 1528Q1143 1544 1188 1544Q1242 1544 1285.50 1509.50Q1329 1475 1329 1421Q1329 1282 1228 1134.50Q1127 987 948 844Q1014 178 1192 178Q1232 178 1276.50 208Q1321 238 1352 281Q1382 268 1382 233Q1382 206 1359 165Q1336 124 1296.50 83Q1257 42 1194.50 13Q1132-16 1063-16Z"  horiz-adv-x="1351" vert-adv-y="2048"  />

      
      <glyph glyph-name="uni4c" unicode="&#x4c;" d="M813 1430L791 1430L588 496Q551 337 489 233Q661 180 764 180Q862 180 935.50 210.50Q1009 241 1053 281Q1087 266 1087 231Q1087 210 1056 170Q1025 130 976.50 88Q928 46 856.50 15Q785-16 715-16Q599-16 521 14Q443 44 379 96Q249-12 57-12Q-54-12-93 64Q-126 128-90 201Q-51 280 39 304Q71 313 106 313Q195 313 285 291Q308 346 326 424L547 1473Q432 1470 370.50 1409.50Q309 1349 309 1251Q309 1205 338 1145Q267 1129 217.50 1135Q168 1141 137.50 1169Q107 1197 93.50 1232Q80 1267 80 1309Q80 1599 424 1595Q478 1595 550.50 1583Q623 1571 670.50 1560.50Q718 1550 775 1547.50Q832 1545 856 1563Q885 1546 885 1509Q885 1477 865.50 1453.50Q846 1430 813 1430M96 141Q178 141 236 211Q175 246 109 246Q50 246 24 210Q3 180 30 158Q51 141 96 141Z"  horiz-adv-x="1052" vert-adv-y="2048"  />

      
      <glyph glyph-name="uni4d" unicode="&#x4d;" d="M885 1466Q756 1466 693.50 1407Q631 1348 631 1266Q631 1195 672 1147Q626 1126 584 1126Q509 1126 463.50 1183.50Q418 1241 418 1321Q418 1372 437.50 1419Q457 1466 496.50 1507Q536 1548 603.50 1572.50Q671 1597 758 1597Q813 1597 885 1583.50Q957 1570 1005 1558Q1053 1546 1109.50 1542Q1166 1538 1190 1556Q1219 1539 1219 1503Q1219 1471 1199.50 1447Q1180 1423 1147 1423L1145 1423L1071 334L1546 1405Q1599 1536 1722 1536Q1793 1536 1835 1509L1667 330Q1656 244 1673.50 211Q1691 178 1735 178Q1780 178 1840.50 211Q1901 244 1944 281Q1978 266 1978 231Q1978 207 1960 186Q1765-16 1608-16Q1562-16 1523.50-4Q1485 8 1452.50 34.50Q1420 61 1406.50 110.50Q1393 160 1403 227L1540 1153L1094 104Q1068 37 1025 10.50Q982-16 920-16Q862-16 821 10L895 918L905 1157Q769 722 645 461Q521 200 408.50 92Q296-16 170-16Q91-16 42.50 57.50Q-6 131-6 264Q-6 418 168 418Q226 418 270 383Q227 285 227 172L227 154Q280 174 330.50 217.50Q381 261 446 355.50Q511 450 577.50 589.50Q644 729 726 952.50Q808 1176 895 1466L885 1466Z"  horiz-adv-x="1943" vert-adv-y="2048"  />

      
      <glyph glyph-name="uni4e" unicode="&#x4e;" d="M645 1466Q516 1466 453.50 1407Q391 1348 391 1266Q391 1195 432 1147Q386 1126 344 1126Q269 1126 223.50 1183.50Q178 1241 178 1321Q178 1372 197.50 1419Q217 1466 256.50 1507Q296 1548 363.50 1572.50Q431 1597 518 1597Q573 1597 645 1583.50Q717 1570 765 1558Q813 1546 869.50 1542Q926 1538 950 1556Q979 1539 979 1503Q979 1471 959.50 1447Q940 1423 907 1423L905 1423L1126 467Q1225 854 1225 1135Q1225 1416 1116 1565Q1175 1618 1284 1618Q1419 1618 1419 1448Q1419 1103 1262 551L1102-6Q995-41 973 51L717 1167Q676 931 631.50 744Q587 557 541.50 430Q496 303 450.50 213.50Q405 124 357.50 75Q310 26 266.50 5Q223-16 176-16Q97-16 48.50 57.50Q0 131 0 264Q0 418 174 418Q232 418 276 383Q233 285 233 172L233 162Q473 316 653 1444L647 1466L645 1466Z"  horiz-adv-x="1374" vert-adv-y="2048"  />

      
      <glyph glyph-name="uni4f" unicode="&#x4f;" d="M713 1417Q641 1417 574.50 1367.50Q508 1318 458.50 1236.50Q409 1155 371.50 1052.50Q334 950 314.50 839.50Q295 729 295 627Q295 546 307.50 478Q320 410 345 357Q370 304 411.50 274Q453 244 508 244Q563 244 619.50 275Q676 306 730 372Q784 438 826 530Q868 622 894 756.50Q920 891 920 1047Q920 1223 861.50 1320Q803 1417 713 1417M414-16Q313-16 233.50 31.50Q154 79 105 162.50Q56 246 31 352.50Q6 459 6 582Q6 695 27 811.50Q48 928 87.50 1039Q127 1150 188 1247.50Q249 1345 324 1418.50Q399 1492 496 1534.50Q593 1577 700 1577Q803 1577 882 1535Q961 1493 1008.50 1419.50Q1056 1346 1080 1252.50Q1104 1159 1104 1049Q1104 928 1082.50 802.50Q1061 677 1021 558.50Q981 440 920 335.50Q859 231 784.50 153Q710 75 614 29.50Q518-16 414-16Z"  horiz-adv-x="1085" vert-adv-y="2048"  />

      
      <glyph glyph-name="uni50" unicode="&#x50;" d="M238 10L524 1286Q538 1351 585.50 1382Q633 1413 694 1413Q749 1413 791 1386L647 711Q810 719 919 856.50Q1028 994 1028 1204Q1028 1326 957 1402.50Q886 1479 739 1479Q616 1479 523 1449Q430 1419 379 1369Q328 1319 303.50 1262.50Q279 1206 279 1145Q279 1072 319 1026Q275 1006 231 1006Q156 1006 111 1063Q66 1120 66 1200Q66 1318 162 1404.50Q258 1491 418 1534Q578 1577 780 1577Q911 1577 1009.50 1549Q1108 1521 1166 1471Q1224 1421 1252 1358.50Q1280 1296 1280 1221Q1280 1086 1230 971Q1180 856 1095 778.50Q1010 701 896.50 657.50Q783 614 657 614L627 614L522 115Q508 48 459 16Q410-16 346-16Q275-16 238 10Z"  horiz-adv-x="1292" vert-adv-y="2048"  />

      
      <glyph glyph-name="uni51" unicode="&#x51;" d="M414-16Q313-16 233.50 31.50Q154 79 105 162.50Q56 246 31 352.50Q6 459 6 582Q6 695 27 811.50Q48 928 87.50 1039Q127 1150 188 1247.50Q249 1345 324 1418.50Q399 1492 496 1534.50Q593 1577 700 1577Q803 1577 882 1535Q961 1493 1008.50 1419.50Q1056 1346 1080 1252.50Q1104 1159 1104 1049Q1104 854 1052.50 659Q1001 464 897.50 299Q794 134 657 53Q705-59 761-100Q817-141 905-141Q985-141 1077-74Q1103-92 1107-124Q1111-156 1096-172Q1054-234 975.50-269.50Q897-305 821-305Q747-305 694.50-293.50Q642-282 592.50-250.50Q543-219 504-161.50Q465-104 430-14Q427-14 421.50-15Q416-16 414-16M713 1417Q641 1417 574.50 1367.50Q508 1318 458.50 1236.50Q409 1155 371.50 1052.50Q334 950 314.50 839.50Q295 729 295 627Q295 546 307.50 478Q320 410 345 357Q370 304 411.50 274Q453 244 508 244Q563 244 619.50 275Q676 306 730 372Q784 438 826 530Q868 622 894 756.50Q920 891 920 1047Q920 1223 861.50 1320Q803 1417 713 1417Z"  horiz-adv-x="1114" vert-adv-y="2048"  />

      
      <glyph glyph-name="uni52" unicode="&#x52;" d="M1063-16Q1001-16 949 21.50Q897 59 862 119Q827 179 799.50 264.50Q772 350 756 435Q740 520 729 618Q683 614 657 614L629 614L522 115Q508 48 459 16Q410-16 346-16Q275-16 238 10L526 1286Q540 1351 587.50 1382Q635 1413 696 1413Q751 1413 793 1386L649 711Q725 717 796.50 764.50Q868 812 918 882.50Q968 953 998 1038.50Q1028 1124 1028 1204Q1028 1326 957 1402.50Q886 1479 739 1479Q616 1479 523 1449Q430 1419 379 1369Q328 1319 303.50 1262.50Q279 1206 279 1145Q279 1072 319 1026Q275 1006 231 1006Q156 1006 111 1063Q66 1120 66 1200Q66 1318 162 1404.50Q258 1491 418 1534Q578 1577 780 1577Q911 1577 1009.50 1549Q1108 1521 1166 1471Q1224 1421 1252 1358.50Q1280 1296 1280 1221Q1280 1081 1192 938Q1104 795 963 707Q1035 178 1192 178Q1237 178 1298.50 211Q1360 244 1401 281Q1436 266 1436 231Q1436 208 1417 186Q1226-16 1063-16Z"  horiz-adv-x="1400" vert-adv-y="2048"  />

      
      <glyph glyph-name="uni53" unicode="&#x53;" d="M762 1577Q846 1577 911.50 1551Q977 1525 1016 1482.50Q1055 1440 1074.50 1390.50Q1094 1341 1094 1288Q1094 1205 1048.50 1146Q1003 1087 928 1087Q898 1087 861.50 1108.50Q825 1130 809 1169Q857 1183 885 1230Q913 1277 913 1331Q913 1386 881 1424Q849 1462 788 1462Q697 1462 646.50 1390Q596 1318 596 1214Q596 1155 619.50 1100.50Q643 1046 681 1002.50Q719 959 764.50 916Q810 873 855.50 828Q901 783 939 734.50Q977 686 1000.50 622Q1024 558 1024 487Q1024 255 871.50 119.50Q719-16 483-16Q380-16 298 17.50Q216 51 167 107.50Q118 164 92 232Q66 300 66 373Q66 439 87.50 499.50Q109 560 148.50 608Q188 656 251 684.50Q314 713 391 713Q445 713 485.50 677.50Q526 642 526 586Q526 555 512 520Q414 553 345 501Q276 449 276 358Q276 270 334 205.50Q392 141 492 141Q612 141 675.50 222.50Q739 304 739 426Q739 493 716.50 551.50Q694 610 658 654.50Q622 699 578 741.50Q534 784 490.50 828.50Q447 873 411 921.50Q375 970 352.50 1036Q330 1102 330 1178Q330 1350 452.50 1463.50Q575 1577 762 1577Z"  horiz-adv-x="1167" vert-adv-y="2048"  />

      
      <glyph glyph-name="uni54" unicode="&#x54;" d="M279 1118Q279 1045 319 999Q275 979 233 979Q157 979 111.50 1035Q66 1091 66 1169Q66 1250 94 1316Q122 1382 170 1424.50Q218 1467 275.50 1498.50Q333 1530 399.50 1546.50Q466 1563 522.50 1570Q579 1577 633 1577Q700 1577 796.50 1565.50Q893 1554 961 1545.50Q1029 1537 1119.50 1547Q1210 1557 1292 1593Q1325 1458 1265 1371Q1205 1284 1092 1284Q1017 1284 846 1360L582 115Q568 48 519 16Q470-16 406-16Q334-16 297 10L623 1450Q603 1454 594 1454Q538 1454 483.50 1433.50Q429 1413 382.50 1373.50Q336 1334 307.50 1267.50Q279 1201 279 1118Z"  horiz-adv-x="954" vert-adv-y="2048"  />

      
      <glyph glyph-name="uni55" unicode="&#x55;" d="M532 1466Q403 1466 341 1407Q279 1348 279 1266Q279 1193 319 1147Q272 1126 231 1126Q156 1126 111 1183.50Q66 1241 66 1321Q66 1372 85.50 1419Q105 1466 144.50 1507Q184 1548 251.50 1572.50Q319 1597 406 1597Q461 1597 533 1583.50Q605 1570 653 1558Q701 1546 757.50 1542Q814 1538 838 1556Q866 1539 866 1503Q866 1471 847 1447Q828 1423 795 1423L780 1423L606 600Q572 439 572.50 350.50Q573 262 603 228.50Q633 195 698 195Q784 195 867 299.50Q950 404 1008.50 562.50Q1067 721 1103 909.50Q1139 1098 1139 1264Q1139 1463 1067 1567Q1123 1636 1214 1647Q1283 1655 1320.50 1619.50Q1358 1584 1362 1540Q1366 1486 1366 1460Q1365 1342 1336.50 1186.50Q1308 1031 1257.50 867Q1207 703 1133 544.50Q1059 386 975 261.50Q891 137 788 60.50Q685-16 582-16Q472-16 408 52.50Q344 121 327.50 269.50Q311 418 362 651L535 1466L532 1466Z"  horiz-adv-x="1314" vert-adv-y="2048"  />

      
      <glyph glyph-name="uni56" unicode="&#x56;" d="M596 0L561 1466Q437 1463 377 1404.50Q317 1346 317 1266Q317 1195 358 1147Q312 1126 270 1126Q195 1126 149.50 1183.50Q104 1241 104 1321Q104 1372 123.50 1419Q143 1466 182.50 1507Q222 1548 289.50 1572.50Q357 1597 444 1597Q499 1597 571 1583.50Q643 1570 691 1558Q739 1546 796 1542Q853 1538 877 1556Q905 1539 905 1503Q905 1471 886 1447Q867 1423 834 1423L823 1423L840 262L1034 631Q1076 711 1113.50 797Q1151 883 1185.50 989Q1220 1095 1237 1192Q1254 1289 1248.50 1386.50Q1243 1484 1208 1556Q1273 1618 1364 1618Q1434 1618 1466.50 1579Q1499 1540 1499 1495Q1499 1423 1483.50 1342Q1468 1261 1432.50 1166.50Q1397 1072 1368.50 1003.50Q1340 935 1283 827Q1226 719 1201.50 674.50Q1177 630 1118 524L879 100Q841 32 803 2.50Q765-27 709-27Q638-27 596 0Z"  horiz-adv-x="1372" vert-adv-y="2048"  />

      
      <glyph glyph-name="uni57" unicode="&#x57;" d="M598 0L561 1466Q437 1463 377 1404.50Q317 1346 317 1266Q317 1195 358 1147Q312 1126 270 1126Q195 1126 149.50 1183.50Q104 1241 104 1321Q104 1372 123.50 1419Q143 1466 182.50 1507Q222 1548 289.50 1572.50Q357 1597 444 1597Q499 1597 571 1583.50Q643 1570 691 1558Q739 1546 796 1542Q853 1538 877 1556Q905 1539 905 1503Q905 1471 886 1447Q867 1423 834 1423L823 1423L838 332L1184 1425Q1203 1482 1242.50 1509Q1282 1536 1333 1536Q1397 1536 1430 1513L1503 274L1653 647Q1687 733 1715 818Q1743 903 1767 1011Q1791 1119 1798.50 1212.50Q1806 1306 1790.50 1401Q1775 1496 1733 1565Q1757 1589 1800.50 1603.50Q1844 1618 1888 1618Q2030 1618 2030 1450Q2030 1202 1747 551L1552 104Q1498-27 1378-27Q1308-27 1266 0L1194 1077L885 104Q831-27 711-27Q640-27 598 0Z"  horiz-adv-x="1937" vert-adv-y="2048"  />

      
      <glyph glyph-name="uni58" unicode="&#x58;" d="M987-16Q910-16 853.50 31.50Q797 79 778 172L705 516Q560 260 417 122Q274-16 156-16Q77-16 28.50 57.50Q-20 131-20 264Q-20 418 154 418Q212 418 256 383Q213 285 213 172L213 156Q304 198 423 330.50Q542 463 668 692L504 1464Q394 1454 341.50 1397.50Q289 1341 289 1266Q289 1195 330 1147Q283 1126 242 1126Q167 1126 121.50 1183.50Q76 1241 76 1321Q76 1372 95.50 1419Q115 1466 154.50 1507Q194 1548 261.50 1572.50Q329 1597 416 1597Q471 1597 543 1583.50Q615 1570 663 1558Q711 1546 767.50 1542Q824 1538 848 1556Q877 1539 877 1503Q877 1471 857.50 1447Q838 1423 805 1423L799 1423L903 918Q1004 1057 1050 1226Q1096 1395 1081 1565Q1154 1618 1217 1618Q1251 1618 1276 1605.50Q1301 1593 1312.50 1573.50Q1324 1554 1328.50 1536Q1333 1518 1333 1501Q1333 1391 1302 1290.50Q1271 1190 1211 1102Q1151 1014 1085 943.50Q1019 873 928 795L1038 262Q1054 178 1116 178Q1161 178 1222.50 211Q1284 244 1325 281Q1360 266 1360 231Q1360 208 1341 186Q1150-16 987-16Z"  horiz-adv-x="1269" vert-adv-y="2048"  />

      
      <glyph glyph-name="uni59" unicode="&#x59;" d="M1055 629L948 131Q932 55 877.50 19.50Q823-16 752-16Q689-16 641 14L776 633L563 1464Q456 1453 404 1396.50Q352 1340 352 1266Q352 1195 393 1147Q347 1126 305 1126Q230 1126 184.50 1183.50Q139 1241 139 1321Q139 1372 158.50 1419Q178 1466 217.50 1507Q257 1548 324.50 1572.50Q392 1597 479 1597Q534 1597 606 1583.50Q678 1570 726 1558Q774 1546 830.50 1542Q887 1538 911 1556Q940 1539 940 1503Q940 1471 920.50 1447Q901 1423 868 1423L862 1423L1018 778Q1153 976 1205 1166.50Q1257 1357 1225 1565Q1278 1618 1360 1618Q1425 1618 1453 1579Q1481 1540 1477 1501Q1460 1308 1337 1069.50Q1214 831 1055 629Z"  horiz-adv-x="1331" vert-adv-y="2048"  />

      
      <glyph glyph-name="uni5a" unicode="&#x5a;" d="M637-16Q519-16 442 15Q365 46 299 100Q155-16 0-16Q-81-16-130.50 20Q-180 56-180 127Q-180 199-122 256Q-64 313 33 313Q104 313 199 295Q212 315 233 358L754 1391Q701 1390 591.50 1392.50Q482 1395 425 1393Q368 1391 289.50 1369.50Q211 1348 150 1303Q96 1363 96 1427Q96 1500 143.50 1548.50Q191 1597 285 1597Q404 1597 632.50 1560.50Q861 1524 993 1524Q1024 1524 1053.50 1533.50Q1083 1543 1096 1556Q1130 1545 1130 1503Q1130 1471 1106.50 1441.50Q1083 1412 1038 1407L532 403Q476 295 424 229Q584 180 686 180Q784 180 857.50 210.50Q931 241 975 281Q1010 266 1010 231Q1010 210 979 170Q948 130 899 88Q850 46 778.50 15Q707-16 637-16M35 246Q-6 246-31.50 227.50Q-57 209-57 186Q-57 164-37.50 149.50Q-18 135 18 135Q87 135 150 217Q90 246 35 246Z"  horiz-adv-x="974" vert-adv-y="2048"  />

      
      <glyph glyph-name="uni5b" unicode="&#x5b;" d="M72-164Q106-4 247.50 566Q389 1136 430 1382Q365 1403 365 1483Q365 1548 407.50 1578Q450 1608 516 1608Q587 1608 612 1534Q621 1534 684.50 1557.50Q748 1581 784 1581Q836 1581 874.50 1559Q913 1537 930.50 1504.50Q948 1472 945.50 1431.50Q943 1391 918 1356Q864 1386 780 1386Q713 1386 627 1378Q588 1163 462 619Q336 75 301-100Q391-72 440-72Q481-72 517-87.50Q553-103 575.50-128.50Q598-154 610-183.50Q622-213 618-245Q614-277 594-303Q542-273 472-273Q402-273 308-288Q214-303 162-303Q108-303 84.50-282.50Q61-262 63.50-231Q66-200 72-164Z"  horiz-adv-x="864" vert-adv-y="2048"  />

      
      <glyph glyph-name="uni5d" unicode="&#x5d;" d="M752 1468Q718 1307 575.50 737.50Q433 168 391-78Q459-99 459-178Q459-243 416-273Q373-303 307-303Q236-303 211-229Q202-229 138.50-252.50Q75-276 39-276Q-13-276-51.50-254Q-90-232-107-199.50Q-124-167-121.50-126.50Q-119-86-94-51Q-38-82 43-82Q107-82 197-74Q236 142 361 688.50Q486 1235 520 1405Q427 1376 383 1376Q342 1376 306 1391.50Q270 1407 247.50 1432.50Q225 1458 213 1488Q201 1518 205 1550Q209 1582 229 1608Q281 1578 351.50 1578Q422 1578 516 1593Q610 1608 662 1608Q716 1608 739.50 1587.50Q763 1567 760.50 1535.50Q758 1504 752 1468Z"  horiz-adv-x="823" vert-adv-y="2048"  />

      
      <glyph glyph-name="uni5f" unicode="&#x5f;" d="M829-57L43-57Q25-39 25-4Q25 43 60.50 82Q96 121 160 121L946 121Q963 94 963 59Q963 12 928.50-22.50Q894-57 829-57Z"  horiz-adv-x="1015" vert-adv-y="2048"  />

      
      <glyph glyph-name="uni61" unicode="&#x61;" d="M494 1042Q629 1042 705 975Q755 1034 844 1034Q899 1034 940 1008L797 330Q764 178 858 178Q912 178 971.50 208.50Q1031 239 1073 281Q1108 266 1108 231Q1108 207 1090 186Q1015 101 915.50 42.50Q816-16 735-16Q652-16 598 31Q544 78 545 190Q477 95 397 39.50Q317-16 233-16Q172-16 125 7.50Q78 31 50.50 67Q23 103 6 151Q-11 199-17 241.50Q-23 284-23 328Q-23 506 46 670.50Q115 835 235.50 938.50Q356 1042 494 1042M549 324L664 872Q614 889 567 889Q479 889 411 836Q343 783 305.50 698Q268 613 249.50 522.50Q231 432 231 342Q231 269 261.50 232Q292 195 342 195Q392 195 450 231Q508 267 549 324Z"  horiz-adv-x="1073" vert-adv-y="2048"  />

      
      <glyph glyph-name="uni62" unicode="&#x62;" d="M6 539L154 1225Q163 1265 141 1274Q119 1283 94 1253Q63 1282 63 1317Q63 1340 104 1374.50Q145 1409 207.50 1435.50Q270 1462 322 1462Q443 1462 420 1350L324 874Q459 1034 604 1034Q723 1034 791.50 948.50Q860 863 860 715Q860 588 802 454.50Q744 321 653.50 218.50Q563 116 445.50 50Q328-16 217-16Q135-16 80.50 26Q26 68 2 143.50Q-22 219-21 319Q-20 419 6 539M602 670Q602 751 572 789Q542 827 492 827Q442 827 387 793.50Q332 760 289 705Q225 423 225 340Q225 195 326 195Q397 195 461 263.50Q525 332 563.50 442Q602 552 602 670Z"  horiz-adv-x="931" vert-adv-y="2048"  />

      
      <glyph glyph-name="uni63" unicode="&#x63;" d="M903 313Q800 161 639.50 72.50Q479-16 326-16Q172-16 74.50 77Q-23 170-23 350Q-23 468 16.50 591Q56 714 123 814Q190 914 289.50 978Q389 1042 500 1042Q748 1042 748 844Q748 762 706.50 719Q665 676 604 676Q555 676 522 705Q555 775 555 838Q555 897 479 897Q436 897 392 857.50Q348 818 312 751.50Q276 685 253.50 587.50Q231 490 231 383Q231 268 284.50 215Q338 162 428 162Q536 162 660.50 228Q785 294 852 383Q890 390 906 365.50Q922 341 903 313Z"  horiz-adv-x="849" vert-adv-y="2048"  />

      
      <glyph glyph-name="uni64" unicode="&#x64;" d="M731-16Q648-16 596 31Q544 78 545 190Q477 95 397 39.50Q317-16 233-16Q172-16 125 7.50Q78 31 50.50 67Q23 103 6 151Q-11 199-17 241.50Q-23 284-23 328Q-23 506 46 670.50Q115 835 235.50 938.50Q356 1042 494 1042Q618 1042 690 985L741 1225Q750 1265 728.50 1274Q707 1283 682 1253Q651 1282 651 1317Q651 1340 691.50 1374.50Q732 1409 794.50 1435.50Q857 1462 909 1462Q967 1462 993.50 1434.50Q1020 1407 1008 1350L793 330Q760 178 854 178Q908 178 967.50 208.50Q1027 239 1069 281Q1104 266 1104 231Q1104 208 1085 186Q1010 101 911 42.50Q812-16 731-16M549 324L549 322L666 870Q611 889 567 889Q479 889 411 836Q343 783 305.50 698Q268 613 249.50 522.50Q231 432 231 342Q231 269 261.50 232Q292 195 342 195Q392 195 450 231Q508 267 549 324Z"  horiz-adv-x="1069" vert-adv-y="2048"  />

      
      <glyph glyph-name="uni65" unicode="&#x65;" d="M725 846Q725 777 704 719.50Q683 662 630 597.50Q577 533 480.50 463.50Q384 394 238 313Q265 162 428 162Q536 162 660.50 228Q785 294 852 383Q890 390 906 365.50Q922 341 903 313Q800 161 639.50 72.50Q479-16 326-16Q172-16 74.50 77Q-23 170-23 350Q-23 418-8 494Q7 570 35 647.50Q63 725 108 796Q153 867 208 922Q263 977 337 1009.50Q411 1042 492 1042Q559 1042 606.50 1025Q654 1008 678.50 978Q703 948 714 916Q725 884 725 846M506 883Q448 883 400 846Q352 809 322.50 754.50Q293 700 272 632Q251 564 242 506.50Q233 449 231 401Q386 499 475.50 603Q565 707 565 803Q565 838 548.50 860.50Q532 883 506 883Z"  horiz-adv-x="849" vert-adv-y="2048"  />

      
      <glyph glyph-name="uni66" unicode="&#x66;" d="M449 905L352 905L158 0Q120-176 86-295.50Q52-415 9-515Q-34-615-84.50-671.50Q-135-728-201.50-758Q-268-788-354-788Q-454-788-517-729.50Q-580-671-580-549Q-580-523-561.50-508.50Q-543-494-512-494Q-488-606-371-606Q-336-606-307.50-591Q-279-576-254-541Q-229-506-208.50-460.50Q-188-415-166-342Q-144-269-125-191Q-106-113-82 0L113 905L10 905Q2 956 26 990Q50 1024 96 1024L137 1024L154 1098Q196 1293 313.50 1407.50Q431 1522 580 1522Q838 1522 838 1323Q838 1241 796 1196.50Q754 1152 694 1155Q651 1158 612 1184Q645 1254 645 1317Q645 1376 569 1376Q453 1376 391 1085L377 1024L535 1024Q543 973 519 939Q495 905 449 905Z"  horiz-adv-x="512" vert-adv-y="2048"  />

      
      <glyph glyph-name="uni67" unicode="&#x67;" d="M1044 188Q1011 159 916.50 101Q822 43 723-4Q701-94 680-168Q659-242 628-325.50Q597-409 563.50-473.50Q530-538 485-599Q440-660 389-700Q338-740 272.50-764Q207-788 133-788Q32-788-38.50-723Q-109-658-109-537Q-109-464-73-392.50Q-37-321 21-262.50Q79-204 158.50-151Q238-98 319-58Q400-18 487 14Q495 44 512 103Q529 162 532 174Q391-16 233-16Q172-16 125 7.50Q78 31 50.50 67Q23 103 6 151Q-11 199-17 241.50Q-23 284-23 328Q-23 506 46 670.50Q115 835 235.50 938.50Q356 1042 494 1042Q626 1042 702 975Q752 1034 844 1034Q899 1034 940 1008L768 197Q759 154 750 113Q942 207 1042 291Q1066 270 1067.50 241Q1069 212 1044 188M549 324L664 872Q614 889 567 889Q479 889 411 836Q343 783 305.50 698Q268 613 249.50 522.50Q231 432 231 342Q231 269 261.50 232Q292 195 342 195Q392 195 450 231Q508 267 549 324M115-606Q218-606 291-497Q364-388 444-129Q268-199 149.50-305Q31-411 31-510Q31-558 59.50-582Q88-606 115-606Z"  horiz-adv-x="1021" vert-adv-y="2048"  />

      
      <glyph glyph-name="uni68" unicode="&#x68;" d="M621-16Q588-16 560.50-9Q533-2 506 17Q479 36 466 68.50Q453 101 448.50 152Q444 203 461 274L547 682Q562 732 553 767.50Q544 803 498 803Q398 803 307 694L178 113Q164 47 116 15.50Q68-16 6-16Q-49-16-80 4L180 1225Q189 1265 167.50 1274Q146 1283 121 1253Q90 1282 90 1317Q90 1340 130.50 1374.50Q171 1409 233.50 1435.50Q296 1462 348 1462Q469 1462 446 1350L340 848Q471 1034 612 1034Q639 1034 665 1028.50Q691 1023 718.50 1009.50Q746 996 765.50 974Q785 952 800 918.50Q815 885 815.50 839.50Q816 794 805 733L705 262Q696 220 711.50 199Q727 178 760 178Q814 178 873.50 208.50Q933 239 975 281Q1010 266 1010 231Q1010 208 991 186Q913 97 815.50 40.50Q718-16 621-16Z"  horiz-adv-x="974" vert-adv-y="2048"  />

      
      <glyph glyph-name="uni69" unicode="&#x69;" d="M158 1298Q164 1358 208.50 1400Q253 1442 313 1442Q373 1442 411.50 1400Q450 1358 444 1298Q435 1237 389.50 1196Q344 1155 285 1155Q224 1155 186.50 1197Q149 1239 158 1298M-29 227L90 797Q99 848 70 848Q57 848 29 823Q6 836 3.50 873Q1 910 29 936Q154 1034 258 1034Q379 1034 356 922L231 330Q198 178 293 178Q347 178 406.50 208.50Q466 239 508 281Q543 266 543 231Q543 208 524 186Q446 97 348.50 40.50Q251-16 154-16Q113-16 77-4Q41 8 9.50 36Q-22 64-31.50 110.50Q-41 157-29 227Z"  horiz-adv-x="507" vert-adv-y="2048"  />

      
      <glyph glyph-name="uni6a" unicode="&#x6a;" d="M356 922L201 197Q198 180 191 150.50Q184 121 182 113Q377 208 475 291Q499 270 500.50 241Q502 212 477 188Q444 159 349.50 101Q255 43 156-4Q134-93 111.50-168Q89-243 57.50-325.50Q26-408-9-473Q-44-538-91-599Q-138-660-191-700Q-244-740-311.50-764Q-379-788-455-788Q-499-788-542-772Q-585-756-621.50-726.50Q-658-697-680-647.50Q-702-598-702-537Q-702-474-680-418.50Q-658-363-618.50-318Q-579-273-523.50-231Q-468-189-400-152.50Q-332-116-255-79.50Q-178-43-94-5Q-89-3-86-2Q-59 97-35 217L90 797Q99 848 70 848Q57 848 29 823Q6 836 3.50 873Q1 910 29 936Q154 1034 258 1034Q379 1034 356 922M-453-606Q-351-606-271.50-492.50Q-192-379-121-135Q-205-177-259-206Q-313-235-371.50-273.50Q-430-312-462.50-346Q-495-380-516-422Q-537-464-537-510Q-537-558-508.50-582Q-480-606-453-606M162 1298Q165 1358 208 1400Q251 1442 311 1442Q371 1442 411.50 1400Q452 1358 449 1298Q444 1238 400.50 1196.50Q357 1155 297 1155Q237 1155 197.50 1196.50Q158 1238 162 1298Z"  horiz-adv-x="468" vert-adv-y="2048"  />

      
      <glyph glyph-name="uni6b" unicode="&#x6b;" d="M444 1350L276 565L317 575Q516 634 516 813Q516 895 487 940Q508 982 551 1008Q594 1034 647 1034Q707 1034 734.50 998.50Q762 963 762 881Q763 766 688.50 674.50Q614 583 506 532Q515 494 523.50 465Q532 436 546.50 392.50Q561 349 578.50 318Q596 287 619 257Q642 227 671.50 211Q701 195 735 195Q763 195 795 216.50Q827 238 874 281Q909 266 909 231Q909 207 891 186Q830 111 740 47.50Q650-16 590-16Q543-16 503.50 6Q464 28 436 68.50Q408 109 386.50 153Q365 197 349 255.50Q333 314 324 356Q315 398 305 449Q302 464 301 471L254 459L180 113Q167 47 121.50 15.50Q76-16 18-16Q-37-16-78 10L178 1225Q184 1249 178 1262.50Q172 1276 158 1276Q145 1276 117 1251Q94 1264 91.50 1301Q89 1338 117 1364Q242 1462 346 1462Q464 1462 444 1350Z"  horiz-adv-x="874" vert-adv-y="2048"  />

      
      <glyph glyph-name="uni6c" unicode="&#x6c;" d="M717 317Q664 181 510 82.50Q356-16 211-16Q95-16 31 59Q-33 134-14 287Q10 478 37 632Q64 786 97.50 920.50Q131 1055 170.50 1153Q210 1251 257.50 1321.50Q305 1392 362 1427Q419 1462 485 1462Q559 1462 604 1418Q649 1374 649 1296Q649 1171 546 934.50Q443 698 252 406Q244 357 242 330Q232 255 263 218.50Q294 182 352 182Q408 182 474.50 211Q541 240 595 290.50Q649 341 668 395Q697 399 712.50 373Q728 347 717 317M500 1327Q451 1327 392 1125.50Q333 924 279 588Q399 811 467 1012Q535 1213 535 1282Q535 1307 526.50 1317Q518 1327 500 1327Z"  horiz-adv-x="661" vert-adv-y="2048"  />

      
      <glyph glyph-name="uni6d" unicode="&#x6d;" d="M356 922L336 829Q478 1034 639 1034Q710 1034 762.50 979Q815 924 811 823Q959 1034 1118 1034Q1148 1034 1176 1025.50Q1204 1017 1233.50 997Q1263 977 1279 942.50Q1295 908 1301.50 856.50Q1308 805 1290 733L1190 262Q1181 220 1196.50 199Q1212 178 1245 178Q1299 178 1358.50 208.50Q1418 239 1460 281Q1495 266 1495 231Q1495 207 1477 186Q1399 98 1301 41Q1203-16 1106-16Q1073-16 1045.50-9Q1018-2 991 17Q964 36 951 68.50Q938 101 933.50 152Q929 203 946 274L1032 682Q1048 732 1039 767.50Q1030 803 983 803Q892 803 805 709L678 113Q664 47 616 15.50Q568-16 506-16Q451-16 410 10L553 682Q568 732 559 767.50Q550 803 504 803Q404 803 315 696L190 113Q176 47 128 15.50Q80-16 18-16Q-37-16-78 10L90 797Q96 821 90 834.50Q84 848 70 848Q57 848 29 823Q6 836 3.50 873Q1 910 29 936Q154 1034 258 1034Q316 1034 342.50 1006.50Q369 979 356 922Z"  horiz-adv-x="1460" vert-adv-y="2048"  />

      
      <glyph glyph-name="uni6e" unicode="&#x6e;" d="M29 823Q6 836 3.50 873Q1 910 29 936Q154 1034 258 1034Q316 1034 342.50 1006.50Q369 979 356 922L336 829Q401 922 492 978Q583 1034 672 1034Q761 1034 802.50 959.50Q844 885 811 733L711 262Q702 220 717.50 199Q733 178 766 178Q820 178 879.50 208.50Q939 239 981 281Q1016 266 1016 231Q1016 208 997 186Q919 97 821.50 40.50Q724-16 627-16Q594-16 566.50-9Q539-2 512 17Q485 36 472 68.50Q459 101 454.50 152Q450 203 467 274L553 682Q566 743 550 773Q534 803 498 803Q458 803 404 770.50Q350 738 315 696L190 113Q176 47 128 15.50Q80-16 18-16Q-37-16-78 10L90 797Q96 821 90 834.50Q84 848 70 848Q57 848 29 823Z"  horiz-adv-x="980" vert-adv-y="2048"  />

      
      <glyph glyph-name="uni6f" unicode="&#x6f;" d="M500 1042Q581 1042 643 1013.50Q705 985 742.50 934Q780 883 798.50 818Q817 753 817 676Q817 584 792 487Q767 390 718.50 300.50Q670 211 606 140Q542 69 455.50 26.50Q369-16 276-16Q199-16 140 13Q81 42 46 93Q11 144-7 208Q-25 272-25 346Q-25 439-0.50 537Q24 635 71.50 724.50Q119 814 181.50 885.50Q244 957 327 999.50Q410 1042 500 1042M545 887Q478 887 419 841Q360 795 321.50 724.50Q283 654 260.50 571Q238 488 238 412Q238 285 275 223.50Q312 162 371 162Q448 162 517.50 250Q587 338 625.50 460.50Q664 583 664 692Q664 780 634.50 833.50Q605 887 545 887Z"  horiz-adv-x="927" vert-adv-y="2048"  />

      
      <glyph glyph-name="uni70" unicode="&#x70;" d="M-233-745L90 797Q96 821 90 834.50Q84 848 70 848Q57 848 29 823Q6 836 3.50 873Q1 910 29 936Q154 1034 258 1034Q316 1034 342.50 1006.50Q369 979 356 922L346 872Q478 1034 625 1034Q712 1034 772 987.50Q832 941 858.50 866.50Q885 792 885 696Q885 579 843.50 455Q802 331 730 225.50Q658 120 547.50 52Q437-16 311-16Q232-16 170 37L29-643Q15-709-30.50-740.50Q-76-772-137-772Q-191-772-233-745M512 829Q415 829 309 698L197 164Q240 141 299 141Q374 141 439 187.50Q504 234 545 306Q586 378 609.50 461.50Q633 545 633 623Q633 726 600 777.50Q567 829 512 829Z"  horiz-adv-x="974" vert-adv-y="2048"  />

      
      <glyph glyph-name="uni71" unicode="&#x71;" d="M934 1008L584-643Q570-709 524.50-740.50Q479-772 418-772Q364-772 322-745L510 147Q377-16 233-16Q172-16 125 7.50Q78 31 50.50 67Q23 103 6 151Q-11 199-17 241.50Q-23 284-23 328Q-23 506 46 670.50Q115 835 235.50 938.50Q356 1042 494 1042Q626 1042 702 975Q747 1034 838 1034Q893 1034 934 1008M342 195Q391 195 448.50 230.50Q506 266 547 322L664 872Q614 889 567 889Q479 889 411 836Q343 783 305.50 698Q268 613 249.50 522.50Q231 432 231 342Q231 269 261.50 232Q292 195 342 195Z"  horiz-adv-x="1007" vert-adv-y="2048"  />

      
      <glyph glyph-name="uni72" unicode="&#x72;" d="M356 922L334 811Q444 1034 598 1034Q668 1034 708 986.50Q748 939 748 872Q748 797 703.50 738.50Q659 680 584 680Q548 680 524 688Q547 708 547 752Q547 775 530.50 789Q514 803 483 803Q339 803 215 238L190 113Q176 47 128 15.50Q80-16 18-16Q-37-16-78 10L90 797Q99 848 70 848Q57 848 29 823Q6 836 3.50 873Q1 910 29 936Q154 1034 258 1034Q379 1034 356 922Z"  horiz-adv-x="759" vert-adv-y="2048"  />

      
      <glyph glyph-name="uni73" unicode="&#x73;" d="M193-16Q37-16-38.50 64Q-114 144-96 254Q-85 321-39 366.50Q7 412 78 412Q127 412 160 383Q117 334 117 254Q117 188 154.50 153.50Q192 119 246 119Q308 119 358 165Q408 211 408 283Q408 319 383 349Q358 379 320.50 399Q283 419 239 448.50Q195 478 157.50 510Q120 542 95 598.50Q70 655 70 727Q70 790 91.50 845.50Q113 901 155 945.50Q197 990 265.50 1016Q334 1042 420 1042Q678 1042 678 844Q678 761 636.50 717Q595 673 535 676Q492 679 453 705Q487 748 487 815Q487 869 460.50 897.50Q434 926 395 926Q349 926 312.50 882Q276 838 276 760Q276 716 294.50 682Q313 648 342.50 625Q372 602 408 582Q444 562 480 540Q516 518 545.50 491.50Q575 465 593.50 424Q612 383 612 330Q612 171 510 77.50Q408-16 193-16Z"  horiz-adv-x="786" vert-adv-y="2048"  />

      
      <glyph glyph-name="uni74" unicode="&#x74;" d="M449 905L358 905L238 330Q205 178 299 178Q353 178 412.50 208.50Q472 239 514 281Q549 266 549 231Q549 208 530 186Q454 100 347 42Q240-16 141-16Q39-16-6 56Q-51 128-18 287L113 905L10 905Q2 956 26 990Q50 1024 96 1024L137 1024L174 1192Q188 1258 236 1289.50Q284 1321 346 1321Q400 1321 442 1294L385 1024L535 1024Q543 973 519 939Q495 905 449 905Z"  horiz-adv-x="514" vert-adv-y="2048"  />

      
      <glyph glyph-name="uni75" unicode="&#x75;" d="M-6 377L90 797Q96 821 90 834.50Q84 848 70 848Q57 848 29 823Q6 836 3.50 873Q1 910 29 936Q154 1034 258 1034Q316 1034 342.50 1006.50Q369 979 356 922L231 340Q205 219 301 219Q400 219 489 326L612 905Q626 971 674 1002.50Q722 1034 784 1034Q840 1034 881 1008L737 330Q704 178 799 178Q853 178 912.50 208.50Q972 239 1014 281Q1049 266 1049 231Q1049 208 1030 186Q955 101 856 42.50Q757-16 676-16Q636-16 602.50-4.50Q569 7 540 32Q511 57 496 103.50Q481 150 485 215Q343-16 186-16Q121-16 76 10.50Q31 37 10 77.50Q-11 118-18.50 172.50Q-26 227-22 276.50Q-18 326-6 377Z"  horiz-adv-x="1013" vert-adv-y="2048"  />

      
      <glyph glyph-name="uni76" unicode="&#x76;" d="M92 817Q95 829 89 838.50Q83 848 70 848Q57 848 29 823Q6 836 3.50 873Q1 910 29 936Q154 1034 258 1034Q316 1034 342.50 1006.50Q369 979 356 922Q327 786 315 659Q303 532 313.50 404.50Q324 277 365 197Q481 289 552 435Q623 581 623 727Q623 834 590.50 915Q558 996 496 1024Q499 1100 539 1142Q579 1184 633 1182Q699 1180 749 1120Q799 1060 799 954Q799 818 762.50 674Q726 530 666 409.50Q606 289 534 191.50Q462 94 384.50 39Q307-16 242-16Q180-16 136.50 47.50Q93 111 74 209Q55 307 50.50 420.50Q46 534 58 639.50Q70 745 92 817Z"  horiz-adv-x="860" vert-adv-y="2048"  />

      
      <glyph glyph-name="uni77" unicode="&#x77;" d="M616 905Q629 971 677.50 1002.50Q726 1034 788 1034Q848 1034 885 1008Q813 676 813 504Q813 328 874 197Q991 289 1062 435.50Q1133 582 1133 727Q1133 834 1100.50 915Q1068 996 1006 1024Q1009 1100 1049 1142Q1089 1184 1143 1182Q1209 1180 1259 1120Q1309 1060 1309 954Q1309 818 1272.50 674Q1236 530 1176 409.50Q1116 289 1044 191.50Q972 94 894.50 39Q817-16 752-16Q617-16 594 379Q512 195 418 89.50Q324-16 242-16Q192-16 153.50 25.50Q115 67 93 137.50Q71 208 60 291.50Q49 375 49 469Q49 683 92 817Q96 831 89 839.50Q82 848 70 848Q51 848 31 825Q0 854 0 889Q0 912 40.50 946.50Q81 981 143.50 1007.50Q206 1034 258 1034Q379 1034 356 922Q307 697 307 506Q307 310 365 197Q453 284 506.50 444.50Q560 605 616 905Z"  horiz-adv-x="1370" vert-adv-y="2048"  />

      
      <glyph glyph-name="uni78" unicode="&#x78;" d="M645-16Q547-16 489 53Q431 122 403 303Q183-16 43-16Q-22-16-62 44Q-102 104-102 213Q-102 340 41 340Q82 340 125 311Q90 235 90 150Q164 192 231 258Q298 324 385 465L342 811Q339 839 322.50 857.50Q306 876 280 881Q254 886 217 871.50Q180 857 141 823Q117 845 115.50 876Q114 907 141 936Q263 1042 360 1042Q464 1042 514 981Q564 920 582 782L600 637Q758 820 758 928Q758 967 730.50 996Q703 1025 647 1024Q650 1099 689.50 1140.50Q729 1182 784 1182Q821 1182 852 1171.50Q883 1161 911 1137.50Q939 1114 950 1066.50Q961 1019 950 954Q932 853 853.50 754.50Q775 656 614 518L633 373Q657 178 768 178Q822 178 881.50 208.50Q941 239 983 281Q1018 266 1018 231Q1018 208 999 186Q924 101 825 42.50Q726-16 645-16Z"  horiz-adv-x="983" vert-adv-y="2048"  />

      
      <glyph glyph-name="uni79" unicode="&#x79;" d="M-6 377L90 797Q96 821 90 834.50Q84 848 70 848Q57 848 29 823Q6 836 3.50 873Q1 910 29 936Q154 1034 258 1034Q316 1034 342.50 1006.50Q369 979 356 922L229 332Q218 281 234.50 250Q251 219 299 219Q380 219 457 293L590 905Q604 971 652 1002.50Q700 1034 762 1034Q817 1034 858 1008L684 197Q675 154 666 113Q858 207 958 291Q982 270 984 241Q986 212 961 188Q929 159 834 101Q739 43 639-4Q617-93 595-168Q573-243 541-325.50Q509-408 474.50-473Q440-538 393-599Q346-660 293-700Q240-740 172.50-764Q105-788 29-788Q-15-788-58.50-772Q-102-756-138-726.50Q-174-697-196.50-647.50Q-219-598-219-537Q-219-483-202-434Q-185-385-157-345Q-129-305-83-266Q-37-227 10.50-196Q58-165 125.50-130.50Q193-96 253-68Q313-40 394-4Q398-3 399-2Q405 20 419 72Q433 124 442 154Q308-14 168-14Q109-14 68 9Q27 32 7 69Q-13 106-20.50 158Q-28 210-23.50 263Q-19 316-6 377M31-606Q134-606 205.50-499.50Q277-393 358-137Q254-188 189-225Q124-262 63.50-308.50Q3-355-25-404Q-53-453-53-510Q-53-558-24.50-582Q4-606 31-606Z"  horiz-adv-x="940" vert-adv-y="2048"  />

      
      <glyph glyph-name="uni7a" unicode="&#x7a;" d="M637 1018Q680 996 709 966Q738 936 770 879Q645 751 519 559.50Q393 368 305 186Q312 184 334.50 177.50Q357 171 365.50 168.50Q374 166 394.50 160.50Q415 155 426 152.50Q437 150 455.50 146.50Q474 143 487.50 141.50Q501 140 517.50 138.50Q534 137 549 137Q614 137 685.50 179.50Q757 222 805 281Q840 266 840 231Q840 208 821 186Q632-16 446-16Q420-16 386.50-8Q353 0 327 9.50Q301 19 257 36.50Q213 54 186 63Q140-16 76-16Q-10-16-43.50 43Q-77 102-43 178Q11 203 57 211Q205 508 487 848Q443 841 394 841Q345 841 290 844.50Q235 848 211 848Q111 848 80 805Q53 848 53 895Q53 961 96.50 1008Q140 1055 211 1055Q274 1055 367 1019Q460 983 506 983Q573 983 637 1018Z"  horiz-adv-x="804" vert-adv-y="2048"  />

      
      <glyph glyph-name="uni7b" unicode="&#x7b;" d="M485 410Q472 321 431 221.50Q390 122 350 26.50Q310-69 299-150Q278-299 442-299Q523-299 645-260Q671-344 583-390Q495-436 328-436Q172-436 117-358.50Q62-281 82-141Q89-87 120.50-8.50Q152 70 186 136Q220 202 251 275Q282 348 287 391Q300 484 250 500Q207 463 145 463Q92 463 68 493Q44 523 49 561Q55 602 94.50 636Q134 670 213 670Q260 670 309 649Q374 699 393 829Q406 923 408.50 1062Q411 1201 414 1225Q420 1276 434 1322.50Q448 1369 475 1416.50Q502 1464 538.50 1499Q575 1534 630 1555.50Q685 1577 752 1577Q816 1577 861.50 1570.50Q907 1564 933 1552.50Q959 1541 970.50 1524Q982 1507 979.50 1487.50Q977 1468 963 1444Q867 1470 807 1470Q731 1470 692 1417.50Q653 1365 641 1235L616 952Q604 826 553 729.50Q502 633 401 590Q498 523 485 410Z"  horiz-adv-x="792" vert-adv-y="2048"  />

      
      <glyph glyph-name="uni7c" unicode="&#x7c;" d="M582 1393L215-328Q159-333 123.50-298Q88-263 100-205L467 1516Q605 1509 582 1393Z"  horiz-adv-x="632" vert-adv-y="2048"  />

      
      <glyph glyph-name="uni7d" unicode="&#x7d;" d="M303 731Q313 802 341 880.50Q369 959 397.50 1017Q426 1075 453 1150Q480 1225 489 1290Q510 1440 346 1440Q265 1440 143 1401Q117 1485 205 1531Q293 1577 461 1577Q617 1577 672 1499.50Q727 1422 707 1282Q700 1228 668.50 1149.50Q637 1071 603 1005Q569 939 538 866Q507 793 502 750Q489 657 537 639Q579 678 643 678Q696 678 720 648Q744 618 739 580Q733 539 693.50 505Q654 471 575 471Q522 471 477 489Q410 435 395 311Q382 217 380 78.50Q378-60 375-84Q369-135 355-181.50Q341-228 314-275.50Q287-323 250.50-358Q214-393 159-414.50Q104-436 37-436Q-27-436-72.50-429.50Q-118-423-144-411.50Q-170-400-181.50-383Q-193-366-190.50-346.50Q-188-327-174-303Q-74-330-18-330Q58-330 96.50-277Q135-224 147-94L172 188Q182 312 234 410Q286 508 387 551Q287 614 303 731Z"  horiz-adv-x="792" vert-adv-y="2048"  />

      
      <glyph glyph-name="uni7e" unicode="&#x7e;" d="M205 524Q168 524 135.50 505Q103 486 86 451Q33 474 33 543Q33 599 77 653Q121 707 197 707Q246 707 310 691Q374 675 415.50 662.50Q457 650 503 660Q549 670 582 713Q643 676 643 596Q643 530 597 481Q551 432 489 432Q443 430 347 477.50Q251 525 205 524Z"  horiz-adv-x="720" vert-adv-y="2048"  />

      
      <glyph glyph-name="unia8" unicode="&#xa8;" d="M145.50 1224.50Q145.50 1224.50 127.25 1242.75Q109 1261 109 1315Q109 1369 145.50 1405.50Q182 1442 236 1442Q290 1442 326 1405.50Q362 1369 362 1315Q362 1261 326 1224.50Q290 1188 236 1188Q182 1188 145.50 1224.50M549 1224.50Q549 1224.50 530.50 1242.75Q512 1261 512 1315Q512 1369 549 1405.50Q586 1442 639 1442Q693 1442 729.50 1405.50Q766 1369 766 1315Q766 1261 729.50 1224.50Q693 1188 639 1188Q586 1188 549 1224.50Z"  horiz-adv-x="829" vert-adv-y="2048"  />

      
      <glyph glyph-name="uniab" unicode="&#xab;" d="M651 934L250 547L545 160Q514 130 475.50 114Q437 98 397 104Q357 110 334 143L51 547L444 950Q477 983 518.50 989Q560 995 594.50 979.50Q629 964 651 934M930 844L559 547L848 250Q810 207 753.50 195Q697 183 659 221L381 547L750 872Q799 910 851 898.50Q903 887 930 844Z"  horiz-adv-x="950" vert-adv-y="2048"  />

      
      <glyph glyph-name="unibb" unicode="&#xbb;" d="M506 143Q473 110 431.50 104Q390 98 355.50 114Q321 130 299 160L698 547L406 934Q437 964 475.50 979.50Q514 995 553.50 989Q593 983 616 950L899 547L506 143M20 250L389 547L102 844Q140 887 196.50 898.50Q253 910 291 872L569 547L201 221Q152 183 99.50 195Q47 207 20 250Z"  horiz-adv-x="923" vert-adv-y="2048"  />

      
      <glyph glyph-name="uni02D8" unicode="&#x02D8;" d="M590 1319Q579 1204 467.50 1114Q356 1024 199 1024Q98 1024 44 1083Q-10 1142-10 1223Q-10 1295 35.50 1346Q81 1397 162 1397Q206 1397 244 1376Q229 1349 229 1315Q229 1271 255.50 1247Q282 1223 324 1223Q379 1223 433 1266Q487 1309 516 1389Q547 1394 571.50 1375.50Q596 1357 590 1319Z"  horiz-adv-x="610" vert-adv-y="2048"  />

      
      <glyph glyph-name="uni0401" unicode="&#x0401;" d="M281 1169Q281 1245 311 1317.50Q341 1390 395 1448Q449 1506 534 1541.50Q619 1577 721 1577Q888 1577 971.50 1504Q1055 1431 1055 1323Q1055 1234 1008 1171Q961 1108 887 1108Q857 1108 820.50 1129.50Q784 1151 768 1190Q813 1203 840.50 1247Q868 1291 868 1341Q868 1392 837.50 1427Q807 1462 748 1462Q635 1462 568.50 1372.50Q502 1283 502 1163Q502 1059 555.50 977Q609 895 711 870Q717 828 690 793Q593 786 519.50 728.50Q446 671 410.50 591.50Q375 512 375 426Q375 315 437 239.50Q499 164 618 164Q716 164 815.50 192.50Q915 221 995 281Q1030 266 1030 231Q1030 204 1012 186Q911 85 765.50 34.50Q620-16 473-16Q376-16 300 17Q224 50 178.50 107Q133 164 109.50 235.50Q86 307 86 389Q86 544 182.50 679.50Q279 815 444 866Q362 920 321.50 999Q281 1078 281 1169M491.50 1674.50Q491.50 1674.50 473.25 1692.75Q455 1711 455 1765Q455 1819 491.50 1855.50Q528 1892 582 1892Q636 1892 672.50 1855.50Q709 1819 709 1765Q709 1711 672.50 1674.50Q636 1638 582 1638Q528 1638 491.50 1674.50M895 1674.50Q895 1674.50 876.50 1692.75Q858 1711 858 1765Q858 1819 895 1855.50Q932 1892 985 1892Q1039 1892 1075.50 1855.50Q1112 1819 1112 1765Q1112 1711 1075.50 1674.50Q1039 1638 985 1638Q932 1638 895 1674.50Z"  horiz-adv-x="995" vert-adv-y="2048"  />

      
      <glyph glyph-name="uni0410" unicode="&#x0410;" d="M1415 186Q1325 95 1231 39.50Q1137-16 1061-16Q1024-16 990.50-8.50Q957-1 925.50 16Q894 33 875 61Q856 89 847.50 130Q839 171 852 227L922 559L692 559Q559 252 434 118Q309-16 172-16Q93-16 44.50 57.50Q-4 131-4 264Q-4 418 170 418Q228 418 272 383Q229 285 229 172L229 154Q282 174 332.50 217.50Q383 261 448 355.50Q513 450 579.50 589.50Q646 729 728 952.50Q810 1176 897 1466L856 1466Q727 1466 664.50 1407Q602 1348 602 1266Q602 1195 643 1147Q596 1126 555 1126Q480 1126 434.50 1183.50Q389 1241 389 1321Q389 1372 408.50 1419Q428 1466 467.50 1507Q507 1548 574.50 1572.50Q642 1597 729 1597Q815 1597 925.50 1583.50Q1036 1570 1109 1557.50Q1182 1545 1272 1541Q1362 1537 1407 1556Q1436 1539 1436 1503Q1436 1471 1416.50 1447Q1397 1423 1364 1423L1356 1423L1122 330Q1090 178 1190 178Q1235 178 1295.50 211Q1356 244 1399 281Q1434 266 1434 231Q1434 208 1415 186M1110 1448Q1036 1456 997 1460Q863 990 741 678L946 678L1110 1448Z"  horiz-adv-x="1398" vert-adv-y="2048"  />

      
      <glyph glyph-name="uni0411" unicode="&#x0411;" d="M276 1126Q276 1067 305 1020Q234 1003 184.50 1009Q135 1015 104.50 1043Q74 1071 60.50 1106.50Q47 1142 47 1184Q47 1261 75.50 1324Q104 1387 153.50 1428Q203 1469 262.50 1499.50Q322 1530 391 1546Q460 1562 520.50 1569.50Q581 1577 639 1577Q693 1577 835.50 1564.50Q978 1552 1036 1552Q1195 1552 1278 1612Q1322 1484 1272 1395.50Q1222 1307 1112 1307Q1070 1307 1022 1320Q974 1333 903.50 1359Q833 1385 795 1397L680 864Q778 897 856 897Q933 897 993.50 876.50Q1054 856 1090.50 824.50Q1127 793 1150.50 750.50Q1174 708 1183 668.50Q1192 629 1192 588Q1192 511 1161 427Q1130 343 1069.50 264.50Q1009 186 929 123Q849 60 742.50 22Q636-16 522-16Q349-16 229 27Q109 70 109 139Q109 175 129 204Q149 233 190 246Q234 208 285 180L553 1432Q441 1424 358.50 1342Q276 1260 276 1126M752 760Q704 760 655 748L520 115L522 115Q626 115 721.50 182.50Q817 250 873.50 357.50Q930 465 930 578Q930 661 885 710.50Q840 760 752 760Z"  horiz-adv-x="1286" vert-adv-y="2048"  />

      
      <glyph glyph-name="uni0412" unicode="&#x0412;" d="M969 1255Q969 1373 908.50 1427Q848 1481 721 1481Q618 1481 518 1441Q418 1401 348.50 1322Q279 1243 279 1145Q279 1072 319 1026Q275 1006 231 1006Q156 1006 111 1063Q66 1120 66 1200Q66 1282 128.50 1354Q191 1426 290.50 1474Q390 1522 512 1549.50Q634 1577 754 1577Q834 1577 897.50 1569Q961 1561 1018 1541Q1075 1521 1112.50 1488Q1150 1455 1172 1402.50Q1194 1350 1194 1280Q1194 1158 1108 1033.50Q1022 909 872 829L874 827Q1028 827 1106 755Q1184 683 1184 567Q1184 473 1134.50 371Q1085 269 1000.50 182.50Q916 96 789 40Q662-16 522-16Q349-16 229 27Q109 70 109 139Q109 175 129 204Q149 233 190 246Q234 208 285 180L518 1282Q532 1349 581 1381Q630 1413 694 1413Q751 1413 793 1386L674 831Q796 868 882.50 997Q969 1126 969 1255M743 739Q700 739 651 727L520 115L522 115Q625 115 718 179.50Q811 244 866.50 346.50Q922 449 922 557Q922 640 876.50 689.50Q831 739 743 739Z"  horiz-adv-x="1275" vert-adv-y="2048"  />

      
      <glyph glyph-name="uni0413" unicode="&#x0413;" d="M350-16Q279-16 242 10L563 1432Q502 1429 449 1395Q424 1426 424 1462Q424 1494 441 1516.50Q458 1539 481 1550.50Q504 1562 539.50 1568.50Q575 1575 598.50 1576Q622 1577 653 1577Q707 1577 850 1564.50Q993 1552 1051 1552Q1209 1552 1292 1612Q1335 1486 1286 1402Q1237 1318 1126 1307Q1083 1302 1035.50 1313.50Q988 1325 909.50 1356Q831 1387 799 1397L526 115Q512 48 463 16Q414-16 350-16Z"  horiz-adv-x="976" vert-adv-y="2048"  />

      
      <glyph glyph-name="uni0414" unicode="&#x0414;" d="M139 313Q203 313 297 258Q334 318 358 424L541 1282Q555 1349 604 1381Q653 1413 717 1413Q773 1413 815 1386L621 496Q573 284 471 154Q554 115 629 115Q725 115 807.50 166.50Q890 218 947 303Q1004 388 1045 498.50Q1086 609 1105 727Q1124 845 1124 963Q1124 1048 1111.50 1123Q1099 1198 1070 1264Q1041 1330 998.50 1377Q956 1424 892.50 1451.50Q829 1479 750 1479Q631 1479 538.50 1451.50Q446 1424 390.50 1377Q335 1330 307 1271Q279 1212 279 1145Q279 1072 319 1026Q275 1006 231 1006Q156 1006 111 1063Q66 1120 66 1200Q66 1278 111.50 1345.50Q157 1413 244.50 1465Q332 1517 471.50 1547Q611 1577 788 1577Q943 1577 1061.50 1528Q1180 1479 1250 1393.50Q1320 1308 1354.50 1200.50Q1389 1093 1389 967Q1389 829 1358.50 690Q1328 551 1266 424Q1204 297 1118 199Q1032 101 912.50 42.50Q793-16 657-16Q519-16 387 74Q269-16 109-16Q29-16-22.50 22.50Q-74 61-74 127Q-74 199-16 256Q42 313 139 313M123 135Q191 135 246 190Q180 246 141 246Q100 246 74.50 227.50Q49 209 49 186Q49 163 69.50 149Q90 135 123 135Z"  horiz-adv-x="1415" vert-adv-y="2048"  />

      
      <glyph glyph-name="uni0415" unicode="&#x0415;" d="M281 1169Q281 1245 311 1317.50Q341 1390 395 1448Q449 1506 534 1541.50Q619 1577 721 1577Q888 1577 971.50 1504Q1055 1431 1055 1323Q1055 1234 1008 1171Q961 1108 887 1108Q857 1108 820.50 1129.50Q784 1151 768 1190Q813 1203 840.50 1247Q868 1291 868 1341Q868 1392 837.50 1427Q807 1462 748 1462Q635 1462 568.50 1372.50Q502 1283 502 1163Q502 1059 555.50 977Q609 895 711 870Q717 828 690 793Q593 786 519.50 728.50Q446 671 410.50 591.50Q375 512 375 426Q375 315 437 239.50Q499 164 618 164Q716 164 815.50 192.50Q915 221 995 281Q1030 266 1030 231Q1030 204 1012 186Q911 85 765.50 34.50Q620-16 473-16Q376-16 300 17Q224 50 178.50 107Q133 164 109.50 235.50Q86 307 86 389Q86 544 182.50 679.50Q279 815 444 866Q362 920 321.50 999Q281 1078 281 1169Z"  horiz-adv-x="995" vert-adv-y="2048"  />

      
      <glyph glyph-name="uni0416" unicode="&#x0416;" d="M1878 176Q1957 176 2052.50 209.50Q2148 243 2208 281Q2243 266 2243 231Q2243 202 2224 186Q2122 88 2002 36Q1882-16 1767-16Q1670-16 1597 26.50Q1524 69 1480.50 144.50Q1437 220 1416 315.50Q1395 411 1395 526Q1395 691 1427 836L1231 496L1151 115Q1137 48 1088 16Q1039-16 975-16Q914-16 877 10L1049 823L813 408L811 408Q729 214 603.50 99Q478-16 322-16Q265-16 219.50-9.50Q174-3 131.50 15.50Q89 34 60.50 64.50Q32 95 15 144.50Q-2 194-2 260Q-2 335 40 388.50Q82 442 168 442Q191 442 217 429.50Q243 417 254 397Q227 350 227 297Q227 212 260.50 163.50Q294 115 356 115Q463 115 545.50 238Q628 361 671.50 568Q715 775 715 1028Q715 1214 678 1317.50Q641 1421 567 1421Q404 1421 301 1196Q263 1202 249 1234.50Q235 1267 248 1300Q296 1422 394.50 1491.50Q493 1561 604 1561Q770 1561 853 1421.50Q936 1282 936 1030Q936 860 899 696L1096 1044L1178 1425Q1192 1492 1241 1524Q1290 1556 1354 1556Q1408 1556 1452 1530L1276 700L1516 1118Q1601 1318 1729 1439.50Q1857 1561 2015 1561Q2188 1561 2261 1441Q2316 1351 2292 1238Q2271 1138 2204 1093Q2168 1069 2126 1069Q2096 1069 2059.50 1090.50Q2023 1112 2007 1151Q2045 1173 2066 1219.50Q2087 1266 2087 1311Q2087 1356 2061 1390.50Q2035 1425 1987 1425Q1871 1425 1771 1250Q1670 1073 1634 816Q1594 542 1656 363Q1721 176 1878 176Z"  horiz-adv-x="2207" vert-adv-y="2048"  />

      
      <glyph glyph-name="uni0417" unicode="&#x0417;" d="M797 1251Q797 1348 749.50 1397Q702 1446 635 1446Q562 1446 521.50 1401.50Q481 1357 481 1290Q481 1235 512 1178Q467 1147 422 1147Q366 1147 326.50 1186Q287 1225 287 1290Q287 1354 313 1405Q339 1456 380 1487.50Q421 1519 475 1540Q529 1561 580 1569Q631 1577 682 1577Q754 1577 817 1558.50Q880 1540 930.50 1503Q981 1466 1010.50 1403.50Q1040 1341 1040 1260Q1040 1207 1018 1146Q996 1085 954.50 1022.50Q913 960 842 904Q771 848 682 813Q847 816 936.50 745Q1026 674 1026 526Q1026 409 970 305Q914 201 826 132Q738 63 631.50 23.50Q525-16 422-16Q260-16 153.50 57.50Q47 131 47 270Q47 345 89.50 399Q132 453 217 453Q240 453 266 440.50Q292 428 303 408Q276 366 276 307Q276 215 324.50 166Q373 117 446 117Q499 117 554 143.50Q609 170 656 218Q703 266 732.50 344Q762 422 762 514Q762 583 743 627Q724 671 681 695Q638 719 582 728Q526 737 438 737Q420 784 453 838Q531 841 592 868.50Q653 896 691 937.50Q729 979 753.50 1034Q778 1089 787.50 1142Q797 1195 797 1251Z"  horiz-adv-x="1130" vert-adv-y="2048"  />

      
      <glyph glyph-name="uni0418" unicode="&#x0418;" d="M903 281L1069 1065L498 115Q459 45 418.50 14.50Q378-16 322-16Q264-16 223 10L532 1466Q403 1466 341 1407Q279 1348 279 1266Q279 1193 319 1147Q272 1126 231 1126Q156 1126 111 1183.50Q66 1241 66 1321Q66 1372 85.50 1419Q105 1466 144.50 1507Q184 1548 251.50 1572.50Q319 1597 406 1597Q461 1597 533 1583.50Q605 1570 653 1558Q701 1546 757.50 1542Q814 1538 838 1556Q866 1539 866 1503Q866 1471 847 1447Q828 1423 795 1423L776 1423L569 446L1141 1405Q1178 1474 1219.50 1505Q1261 1536 1317 1536Q1373 1536 1415 1509L1161 330Q1129 178 1229 178Q1274 178 1334.50 211Q1395 244 1438 281Q1473 266 1473 231Q1473 208 1454 186Q1350 89 1265 36.50Q1180-16 1098-16Q1058-16 1025.50-8Q993 0 961.50 19.50Q930 39 914 72.50Q898 106 892 158Q886 210 903 281Z"  horiz-adv-x="1437" vert-adv-y="2048"  />

      
      <glyph glyph-name="uni0419" unicode="&#x0419;" d="M903 281L1069 1065L498 115Q459 45 418.50 14.50Q378-16 322-16Q264-16 223 10L532 1466Q403 1466 341 1407Q279 1348 279 1266Q279 1193 319 1147Q272 1126 231 1126Q156 1126 111 1183.50Q66 1241 66 1321Q66 1372 85.50 1419Q105 1466 144.50 1507Q184 1548 251.50 1572.50Q319 1597 406 1597Q461 1597 533 1583.50Q605 1570 653 1558Q701 1546 757.50 1542Q814 1538 838 1556Q866 1539 866 1503Q866 1471 847 1447Q828 1423 795 1423L776 1423L569 446L1141 1405Q1178 1474 1219.50 1505Q1261 1536 1317 1536Q1373 1536 1415 1509L1161 330Q1129 178 1229 178Q1274 178 1334.50 211Q1395 244 1438 281Q1473 266 1473 231Q1473 208 1454 186Q1350 89 1265 36.50Q1180-16 1098-16Q1058-16 1025.50-8Q993 0 961.50 19.50Q930 39 914 72.50Q898 106 892 158Q886 210 903 281M1358 1872Q1347 1757 1235.50 1667Q1124 1577 967 1577Q866 1577 812 1636Q758 1695 758 1776Q758 1848 803.50 1899Q849 1950 930 1950Q974 1950 1012 1929Q997 1902 997 1868Q997 1824 1023.50 1800Q1050 1776 1092 1776Q1147 1776 1201 1819Q1255 1862 1284 1942Q1315 1947 1339.50 1928.50Q1364 1910 1358 1872Z"  horiz-adv-x="1437" vert-adv-y="2048"  />

      
      <glyph glyph-name="uni041A" unicode="&#x041A;" d="M1063-16Q995-16 939.50 28.50Q884 73 848 142.50Q812 212 785.50 310Q759 408 745 501Q731 594 723 700L618 686L498 115Q484 48 435 16Q386-16 322-16Q250-16 213 10L543 1466L532 1466Q403 1466 341 1407Q279 1348 279 1266Q279 1193 319 1147Q272 1126 231 1126Q156 1126 111 1183.50Q66 1241 66 1321Q66 1372 85.50 1419Q105 1466 144.50 1507Q184 1548 251.50 1572.50Q319 1597 406 1597Q461 1597 533 1583.50Q605 1570 653 1558Q701 1546 757.50 1542Q814 1538 838 1556Q866 1539 866 1503Q866 1471 847 1447Q828 1423 795 1423L776 1423L643 795L692 811Q761 851 818.50 904.50Q876 958 917.50 1020.50Q959 1083 990 1143.50Q1021 1204 1045 1277.50Q1069 1351 1083 1405Q1097 1459 1112 1528Q1143 1544 1188 1544Q1242 1544 1285.50 1509.50Q1329 1475 1329 1421Q1329 1282 1228 1134.50Q1127 987 948 844Q1014 178 1192 178Q1232 178 1276.50 208Q1321 238 1352 281Q1382 268 1382 233Q1382 206 1359 165Q1336 124 1296.50 83Q1257 42 1194.50 13Q1132-16 1063-16Z"  horiz-adv-x="1351" vert-adv-y="2048"  />

      
      <glyph glyph-name="uni041B" unicode="&#x041B;" d="M872 281L1118 1448Q1097 1450 1049.50 1455Q1002 1460 977 1462Q817 908 677 580Q537 252 413 118Q289-16 150-16Q71-16 22 57.50Q-27 131-27 264Q-27 418 147 418Q206 418 250 383Q207 285 207 172L207 154Q260 174 310 217.50Q360 261 425.50 355.50Q491 450 557 589.50Q623 729 705 952.50Q787 1176 874 1466L856 1466Q739 1465 676.50 1405Q614 1345 614 1245Q614 1186 643 1139Q572 1122 522.50 1128Q473 1134 442.50 1162Q412 1190 398.50 1225.50Q385 1261 385 1303Q385 1386 412 1444Q439 1502 489 1532.50Q539 1563 597 1576Q655 1589 729 1589Q815 1589 929 1577Q1043 1565 1117.50 1554Q1192 1543 1281 1540.50Q1370 1538 1407 1556Q1436 1539 1436 1503Q1436 1471 1416.50 1447Q1397 1423 1364 1423L1130 330Q1098 178 1198 178Q1243 178 1303.50 211Q1364 244 1407 281Q1442 266 1442 231Q1442 208 1423 186Q1319 89 1234 36.50Q1149-16 1067-16Q1027-16 994.50-8Q962 0 930.50 19.50Q899 39 883 72.50Q867 106 861 158Q855 210 872 281Z"  horiz-adv-x="1406" vert-adv-y="2048"  />

      
      <glyph glyph-name="uni041C" unicode="&#x041C;" d="M879 1466Q750 1466 687.50 1407Q625 1348 625 1266Q625 1195 666 1147Q619 1126 578 1126Q503 1126 457.50 1183.50Q412 1241 412 1321Q412 1372 431.50 1419Q451 1466 490.50 1507Q530 1548 597.50 1572.50Q665 1597 752 1597Q807 1597 879 1583.50Q951 1570 999 1558Q1047 1546 1103.50 1542Q1160 1538 1184 1556Q1212 1539 1212 1503Q1212 1471 1193 1447Q1174 1423 1141 1423L1139 1423L1065 334L1540 1405Q1593 1536 1716 1536Q1787 1536 1829 1509L1661 330Q1650 244 1667.50 211Q1685 178 1729 178Q1774 178 1834 210.50Q1894 243 1937 281Q1972 266 1972 231Q1972 207 1954 186Q1759-16 1602-16Q1556-16 1517.50-4Q1479 8 1446.50 34.50Q1414 61 1400.50 110.50Q1387 160 1397 227L1534 1153L1087 104Q1061 37 1018 10.50Q975-16 913-16Q856-16 815 10L889 918L899 1157Q763 722 639 461Q515 200 402.50 92Q290-16 164-16Q85-16 36.50 57.50Q-12 131-12 264Q-12 418 162 418Q220 418 264 383Q221 285 221 172L221 154Q274 174 324.50 217.50Q375 261 440 355.50Q505 450 571.50 589.50Q638 729 720 952.50Q802 1176 889 1466L879 1466Z"  horiz-adv-x="1937" vert-adv-y="2048"  />

      
      <glyph glyph-name="uni041D" unicode="&#x041D;" d="M1393 186Q1290 90 1204 37Q1118-16 1036-16Q996-16 963.50-8Q931 0 900 19.50Q869 39 853 72.50Q837 106 831 158Q825 210 842 281L950 795Q807 745 631 741L498 115Q484 48 435 16Q386-16 322-16Q250-16 213 10L543 1466L532 1466Q403 1466 341 1407Q279 1348 279 1266Q279 1193 319 1147Q272 1126 231 1126Q156 1126 111 1183.50Q66 1241 66 1321Q66 1372 85.50 1419Q105 1466 144.50 1507Q184 1548 251.50 1572.50Q319 1597 406 1597Q461 1597 533 1583.50Q605 1570 653 1558Q701 1546 757.50 1542Q814 1538 838 1556Q866 1539 866 1503Q866 1471 847 1447Q828 1423 795 1423L776 1423L659 881Q795 881 971 897L1079 1405Q1093 1472 1142 1504Q1191 1536 1255 1536Q1308 1536 1354 1509L1100 330Q1084 246 1103 212Q1122 178 1167 178Q1212 178 1272.50 211Q1333 244 1376 281Q1411 266 1411 231Q1411 207 1393 186Z"  horiz-adv-x="1376" vert-adv-y="2048"  />

      
      <glyph glyph-name="uni041E" unicode="&#x041E;" d="M874 1417Q785 1417 705 1341.50Q625 1266 572 1149Q519 1032 488 894Q457 756 457 627Q457 546 469.50 478Q482 410 507 357Q532 304 573.50 274Q615 244 670 244Q725 244 781.50 275Q838 306 892 372Q946 438 988 530Q1030 622 1055.50 756.50Q1081 891 1081 1047Q1081 1223 1022.50 1320Q964 1417 874 1417M575-16Q474-16 394.50 31.50Q315 79 266.50 162.50Q218 246 193 352.50Q168 459 168 582Q168 695 189 811.50Q210 928 249.50 1039Q289 1150 350 1247.50Q411 1345 486 1418.50Q561 1492 658 1534.50Q755 1577 862 1577Q965 1577 1044 1535Q1123 1493 1170.50 1419.50Q1218 1346 1242 1252.50Q1266 1159 1266 1049Q1266 928 1244.50 802.50Q1223 677 1183 558.50Q1143 440 1081.50 335.50Q1020 231 945.50 153Q871 75 775 29.50Q679-16 575-16Z"  horiz-adv-x="1298" vert-adv-y="2048"  />

      
      <glyph glyph-name="uni041F" unicode="&#x041F;" d="M842 281L1069 1358Q796 1411 774 1415L498 115Q484 48 435 16Q386-16 322-16Q250-16 213 10L532 1425Q430 1405 360.50 1326Q291 1247 291 1124Q291 1063 319 1018Q248 1001 198.50 1007Q149 1013 118.50 1041Q88 1069 74.50 1104.50Q61 1140 61 1182Q61 1259 89.50 1322Q118 1385 167.50 1426Q217 1467 276.50 1497.50Q336 1528 405 1544Q474 1560 534.50 1567.50Q595 1575 653 1575Q704 1575 900.50 1562.50Q1097 1550 1153 1550Q1312 1550 1395 1610Q1432 1596 1452 1564.50Q1472 1533 1470.50 1495Q1469 1457 1453.50 1421Q1438 1385 1401 1358.50Q1364 1332 1315 1327L1100 330Q1068 178 1167 178Q1212 178 1272.50 211Q1333 244 1376 281Q1411 266 1411 231Q1411 207 1393 186Q1290 90 1204 37Q1118-16 1036-16Q996-16 963.50-8Q931 0 900 19.50Q869 39 853 72.50Q837 106 831 158Q825 210 842 281Z"  horiz-adv-x="1376" vert-adv-y="2048"  />

      
      <glyph glyph-name="uni0420" unicode="&#x0420;" d="M238 10L524 1286Q538 1351 585.50 1382Q633 1413 694 1413Q749 1413 791 1386L647 711Q810 719 919 856.50Q1028 994 1028 1204Q1028 1326 957 1402.50Q886 1479 739 1479Q616 1479 523 1449Q430 1419 379 1369Q328 1319 303.50 1262.50Q279 1206 279 1145Q279 1072 319 1026Q275 1006 231 1006Q156 1006 111 1063Q66 1120 66 1200Q66 1318 162 1404.50Q258 1491 418 1534Q578 1577 780 1577Q911 1577 1009.50 1549Q1108 1521 1166 1471Q1224 1421 1252 1358.50Q1280 1296 1280 1221Q1280 1086 1230 971Q1180 856 1095 778.50Q1010 701 896.50 657.50Q783 614 657 614L627 614L522 115Q508 48 459 16Q410-16 346-16Q275-16 238 10Z"  horiz-adv-x="1292" vert-adv-y="2048"  />

      
      <glyph glyph-name="uni0421" unicode="&#x0421;" d="M733 1577Q805 1577 861 1554Q917 1531 950.50 1493.50Q984 1456 1001 1411Q1018 1366 1018 1317Q1018 1232 971.50 1170Q925 1108 852 1108Q820 1108 783.50 1129.50Q747 1151 731 1190Q776 1208 801 1250Q826 1292 825 1333.50Q824 1375 793 1406.50Q762 1438 705 1438Q617 1438 532.50 1323Q448 1208 394 1016Q340 824 340 616Q340 522 356.50 444Q373 366 406.50 304.50Q440 243 497 208.50Q554 174 629 174Q805 174 995 281Q1030 266 1030 231Q1030 204 1012 186Q810-16 514-16Q397-16 306.50 32.50Q216 81 161 165.50Q106 250 78.50 355.50Q51 461 51 582Q51 775 105.50 957.50Q160 1140 251 1276Q342 1412 469 1494.50Q596 1577 733 1577Z"  horiz-adv-x="995" vert-adv-y="2048"  />

      
      <glyph glyph-name="uni0422" unicode="&#x0422;" d="M1214 281L1440 1341Q1417 1343 1176 1374L907 115Q893 48 844 16Q795-16 731-16Q660-16 623 10L938 1403Q743 1425 672 1430L391 115Q377 48 328 16Q279-16 215-16Q143-16 106 10L428 1430Q326 1410 256 1330.50Q186 1251 186 1128Q186 1069 215 1022Q144 1005 94.50 1011Q45 1017 14.50 1045Q-16 1073-29.50 1108.50Q-43 1144-43 1186Q-43 1263-14.50 1326Q14 1389 63.50 1430Q113 1471 172.50 1501.50Q232 1532 301 1548Q370 1564 430.50 1571.50Q491 1579 549 1579Q658 1579 1022 1566.50Q1386 1554 1499 1554Q1658 1554 1741 1614Q1799 1592 1813.50 1532Q1828 1472 1793.50 1413Q1759 1354 1690 1335L1473 330Q1441 178 1540 178Q1585 178 1645.50 211Q1706 244 1749 281Q1784 266 1784 231Q1784 208 1765 186Q1661 89 1576 36.50Q1491-16 1409-16Q1369-16 1336.50-8Q1304 0 1272.50 19.50Q1241 39 1225 72.50Q1209 106 1203 158Q1197 210 1214 281Z"  horiz-adv-x="1748" vert-adv-y="2048"  />

      
      <glyph glyph-name="uni0423" unicode="&#x0423;" d="M385-23Q287-23 233.50 37Q180 97 180 176Q180 260 238 309Q320 207 502 207Q617 207 717 242Q738 544 686 870.50Q634 1197 530 1483Q432 1469 385 1413Q338 1357 338 1286Q338 1215 379 1167Q335 1147 291 1147Q216 1147 170.50 1204Q125 1261 125 1341Q125 1392 144.50 1439.50Q164 1487 203.50 1527.50Q243 1568 310.50 1593Q378 1618 465 1618Q520 1618 592 1604.50Q664 1591 712 1579Q760 1567 816.50 1563Q873 1559 897 1577Q926 1560 926 1524Q926 1492 906.50 1468Q887 1444 854 1444L840 1444Q883 1300 912.50 1116Q942 932 950 739.50Q958 547 934 387Q1208 684 1208 1423Q1208 1506 1198 1565Q1251 1618 1333 1618Q1378 1618 1406.50 1596Q1435 1574 1443 1549.50Q1451 1525 1450 1501Q1444 1388 1419.50 1255Q1395 1122 1348 974.50Q1301 827 1238 685.50Q1175 544 1086 415Q997 286 894 189Q791 92 659.50 34.50Q528-23 385-23Z"  horiz-adv-x="1343" vert-adv-y="2048"  />

      
      <glyph glyph-name="uni0424" unicode="&#x0424;" d="M741 1509Q792 1509 885 1530.50Q978 1552 1004 1552Q1038 1552 1056.50 1532Q1075 1512 1075 1479Q1075 1436 1047 1419Q1021 1442 993 1444L961 1290L983 1290Q1096 1290 1183.50 1253.50Q1271 1217 1324.50 1152.50Q1378 1088 1405 1005Q1432 922 1432 825Q1432 731 1408.50 632.50Q1385 534 1342 440.50Q1299 347 1234 264Q1169 181 1091 119Q1013 57 913.50 20.50Q814-16 707-16L684-16L670-90Q656-157 607-189Q558-221 494-221Q436-221 395-195L432-16L416-16Q303-16 215.50 20.50Q128 57 74.50 121.50Q21 186-6 269Q-33 352-33 449Q-33 543-9.50 641.50Q14 740 57 833.50Q100 927 165 1010Q230 1093 308 1155Q386 1217 485.50 1253.50Q585 1290 692 1290L711 1290L733 1393Q660 1378 614 1378Q471 1378 402.50 1436Q334 1494 334 1577Q334 1651 375.50 1699Q417 1747 481 1747Q522 1747 569 1726Q545 1662 545 1622Q545 1587 560 1564Q575 1541 604.50 1530Q634 1519 665 1514.50Q696 1510 741 1509M942 1186L932 1186L700 88L707 88Q791 88 866.50 131.50Q942 175 998 247Q1054 319 1095 410.50Q1136 502 1157 601.50Q1178 701 1178 795Q1178 905 1154 991Q1130 1077 1075.50 1131.50Q1021 1186 942 1186M221 479Q221 369 245 283Q269 197 323.50 142.50Q378 88 457 88L463 88L696 1186L692 1186Q608 1186 532.50 1142.50Q457 1099 401 1027Q345 955 304 863.50Q263 772 242 672.50Q221 573 221 479Z"  horiz-adv-x="1480" vert-adv-y="2048"  />

      
      <glyph glyph-name="uni0425" unicode="&#x0425;" d="M987-16Q910-16 853.50 31.50Q797 79 778 172L705 516Q560 260 417 122Q274-16 156-16Q77-16 28.50 57.50Q-20 131-20 264Q-20 418 154 418Q212 418 256 383Q213 285 213 172L213 156Q304 198 423 330.50Q542 463 668 692L504 1464Q394 1454 341.50 1397.50Q289 1341 289 1266Q289 1195 330 1147Q283 1126 242 1126Q167 1126 121.50 1183.50Q76 1241 76 1321Q76 1372 95.50 1419Q115 1466 154.50 1507Q194 1548 261.50 1572.50Q329 1597 416 1597Q471 1597 543 1583.50Q615 1570 663 1558Q711 1546 767.50 1542Q824 1538 848 1556Q877 1539 877 1503Q877 1471 857.50 1447Q838 1423 805 1423L799 1423L903 918Q1004 1057 1050 1226Q1096 1395 1081 1565Q1154 1618 1217 1618Q1251 1618 1276 1605.50Q1301 1593 1312.50 1573.50Q1324 1554 1328.50 1536Q1333 1518 1333 1501Q1333 1391 1302 1290.50Q1271 1190 1211 1102Q1151 1014 1085 943.50Q1019 873 928 795L1038 262Q1054 178 1116 178Q1161 178 1222.50 211Q1284 244 1325 281Q1360 266 1360 231Q1360 208 1341 186Q1150-16 987-16Z"  horiz-adv-x="1269" vert-adv-y="2048"  />

      
      <glyph glyph-name="uni0426" unicode="&#x0426;" d="M532 1466Q403 1466 341 1407Q279 1348 279 1266Q279 1193 319 1147Q272 1126 231 1126Q156 1126 111 1183.50Q66 1241 66 1321Q66 1372 85.50 1419Q105 1466 144.50 1507Q184 1548 251.50 1572.50Q319 1597 406 1597Q461 1597 533 1583.50Q605 1570 653 1558Q701 1546 757.50 1542Q814 1538 838 1556Q866 1539 866 1503Q866 1471 847 1447Q828 1423 795 1423L780 1423L524 221Q543 216 586.50 203Q630 190 658.50 182.50Q687 175 734.50 166Q782 157 831 152L1104 1411Q1118 1478 1167 1510Q1216 1542 1280 1542Q1337 1542 1378 1516L1069 143Q1163 145 1217 279Q1261 285 1290 248Q1295 112 1265-3.50Q1235-119 1184.50-194.50Q1134-270 1068.50-324Q1003-378 937.50-401.50Q872-425 811-426Q719-426 682.50-378.50Q646-331 663.50-264.50Q681-198 739-137Q759-165 805-176.50Q851-188 908.50-177Q966-166 1021.50-137.50Q1077-109 1123-51.50Q1169 6 1186 82Q1162 44 1120.50 22Q1079 0 1036 0Q927 0 747.50 12.50Q568 25 455 25Q296 25 213-35Q177-22 157 8Q137 38 137 74.50Q137 111 151 146.50Q165 182 198 209.50Q231 237 276 246L535 1466L532 1466Z"  horiz-adv-x="1400" vert-adv-y="2048"  />

      
      <glyph glyph-name="uni0427" unicode="&#x0427;" d="M844 281L948 723Q811 629 694 629Q519 629 471.50 741Q424 853 483 1071L582 1464Q574 1466 555 1466Q426 1466 363.50 1407Q301 1348 301 1266Q301 1195 342 1147Q295 1126 254 1126Q179 1126 133.50 1183.50Q88 1241 88 1321Q88 1372 107.50 1419Q127 1466 166.50 1507Q206 1548 273.50 1572.50Q341 1597 428 1597Q483 1597 555 1583.50Q627 1570 675 1558Q723 1546 779.50 1542Q836 1538 860 1556Q889 1539 889 1503Q889 1471 869.50 1447Q850 1423 817 1423L811 1423L717 1006Q701 941 699 898.50Q697 856 709 835Q721 814 738.50 806.50Q756 799 784 799Q872 799 975 840L1116 1436Q1132 1502 1180 1533.50Q1228 1565 1288 1565Q1350 1565 1384 1538L1102 330Q1067 178 1169 178Q1214 178 1274.50 211Q1335 244 1378 281Q1413 266 1413 231Q1413 207 1395 186Q1292 90 1206 37Q1120-16 1038-16Q998-16 965-8Q932 0 900.50 20Q869 40 853 73.50Q837 107 831.50 158.50Q826 210 844 281Z"  horiz-adv-x="1378" vert-adv-y="2048"  />

      
      <glyph glyph-name="uni0428" unicode="&#x0428;" d="M1323 1516L1020 174Q1231 151 1292 147L1565 1411Q1579 1478 1628 1510Q1677 1542 1741 1542Q1798 1542 1839 1516L1497 0Q1388 0 978 12.50Q568 25 455 25Q296 25 213-35Q177-22 157 8Q137 38 137 74.50Q137 111 151 146.50Q165 182 198 209.50Q231 237 276 246L535 1466L532 1466Q403 1466 341 1407Q279 1348 279 1266Q279 1193 319 1147Q272 1126 231 1126Q156 1126 111 1183.50Q66 1241 66 1321Q66 1372 85.50 1419Q105 1466 144.50 1507Q184 1548 251.50 1572.50Q319 1597 406 1597Q461 1597 533 1583.50Q605 1570 653 1558Q701 1546 757.50 1542Q814 1538 838 1556Q866 1539 866 1503Q866 1471 847 1447Q828 1423 795 1423L780 1423L526 236Q542 234 788 203L1049 1411Q1063 1478 1112 1510Q1161 1542 1225 1542Q1282 1542 1323 1516Z"  horiz-adv-x="1734" vert-adv-y="2048"  />

      
      <glyph glyph-name="uni0429" unicode="&#x0429;" d="M1839 1516L1530 143Q1623 145 1677 279Q1722 285 1751 248Q1756 112 1726-3.50Q1696-119 1645.50-194.50Q1595-270 1529.50-324Q1464-378 1398.50-401.50Q1333-425 1272-426Q1180-426 1143.50-378.50Q1107-331 1124.50-264.50Q1142-198 1200-137Q1220-165 1266-176.50Q1312-188 1369.50-177Q1427-166 1482.50-137.50Q1538-109 1584-51.50Q1630 6 1647 82Q1623 44 1581.50 22Q1540 0 1497 0Q1388 0 978 12.50Q568 25 455 25Q296 25 213-35Q177-22 157 8Q137 38 137 74.50Q137 111 151 146.50Q165 182 198 209.50Q231 237 276 246L535 1466L532 1466Q403 1466 341 1407Q279 1348 279 1266Q279 1193 319 1147Q272 1126 231 1126Q156 1126 111 1183.50Q66 1241 66 1321Q66 1372 85.50 1419Q105 1466 144.50 1507Q184 1548 251.50 1572.50Q319 1597 406 1597Q461 1597 533 1583.50Q605 1570 653 1558Q701 1546 757.50 1542Q814 1538 838 1556Q866 1539 866 1503Q866 1471 847 1447Q828 1423 795 1423L780 1423L526 236Q542 234 788 203L1049 1411Q1063 1478 1112 1510Q1161 1542 1225 1542Q1282 1542 1323 1516L1020 174Q1231 151 1292 147L1565 1411Q1579 1478 1628 1510Q1677 1542 1741 1542Q1798 1542 1839 1516Z"  horiz-adv-x="1935" vert-adv-y="2048"  />

      
      <glyph glyph-name="uni042A" unicode="&#x042A;" d="M438 1466Q309 1466 246.50 1407Q184 1348 184 1266Q184 1195 225 1147Q179 1126 137 1126Q62 1126 16.50 1183.50Q-29 1241-29 1321Q-29 1372-9.50 1419Q10 1466 49.50 1507Q89 1548 156.50 1572.50Q224 1597 311 1597Q379 1597 468.50 1583.50Q558 1570 617 1558Q676 1546 746 1542Q816 1538 846 1556Q874 1539 874 1503Q874 1471 855 1447Q836 1423 803 1423L801 1423L680 864Q778 897 856 897Q933 897 993.50 876.50Q1054 856 1090.50 824.50Q1127 793 1150.50 750.50Q1174 708 1183 668.50Q1192 629 1192 588Q1192 511 1161 427Q1130 343 1069.50 264.50Q1009 186 929 123Q849 60 742.50 22Q636-16 522-16Q349-16 229 27Q109 70 109 139Q109 175 129 204Q149 233 190 246Q227 213 285 180L559 1456Q494 1466 438 1466M752 760Q704 760 655 748L520 115L522 115Q626 115 721.50 182.50Q817 250 873.50 357.50Q930 465 930 578Q930 661 885 710.50Q840 760 752 760Z"  horiz-adv-x="1271" vert-adv-y="2048"  />

      
      <glyph glyph-name="uni042B" unicode="&#x042B;" d="M551 1466Q422 1466 359.50 1407Q297 1348 297 1266Q297 1195 338 1147Q291 1126 250 1126Q175 1126 129.50 1183.50Q84 1241 84 1321Q84 1372 103.50 1419Q123 1466 162.50 1507Q202 1548 269.50 1572.50Q337 1597 424 1597Q479 1597 551 1583.50Q623 1570 671 1558Q719 1546 775.50 1542Q832 1538 856 1556Q885 1539 885 1503Q885 1471 865.50 1447Q846 1423 813 1423L801 1423L520 115L522 115Q591 115 656 144Q721 173 771 221Q821 269 859 334Q897 399 915.50 468Q934 537 931 610Q928 683 901 745Q825 730 735 727Q713 752 713 793Q713 842 753.50 873.50Q794 905 868 905Q947 905 1008 883Q1286 1087 1573 1483Q1626 1556 1726 1556Q1784 1556 1825 1530L1569 330Q1537 178 1636 178Q1681 178 1741.50 211Q1802 244 1845 281Q1880 266 1880 231Q1880 207 1862 186Q1759 90 1673 37Q1587-16 1505-16Q1465-16 1432.50-8Q1400 0 1369 19.50Q1338 39 1322 72.50Q1306 106 1300 158Q1294 210 1311 281L1518 1276Q1320 1007 1102 825Q1192 738 1192 588Q1192 511 1161 427Q1130 343 1069.50 264.50Q1009 186 929 123Q849 60 742.50 22Q636-16 522-16Q349-16 229 27Q109 70 109 139Q109 175 129 204Q149 233 190 246Q234 208 285 180L561 1466L551 1466Z"  horiz-adv-x="1845" vert-adv-y="2048"  />

      
      <glyph glyph-name="uni042C" unicode="&#x042C;" d="M553 1466Q424 1466 361.50 1407Q299 1348 299 1266Q299 1195 340 1147Q294 1126 252 1126Q177 1126 131.50 1183.50Q86 1241 86 1321Q86 1372 105.50 1419Q125 1466 164.50 1507Q204 1548 271.50 1572.50Q339 1597 426 1597Q481 1597 553 1583.50Q625 1570 673 1558Q721 1546 777.50 1542Q834 1538 858 1556Q887 1539 887 1503Q887 1471 867.50 1447Q848 1423 815 1423L801 1423L680 864Q778 897 856 897Q933 897 993.50 876.50Q1054 856 1090.50 824.50Q1127 793 1150.50 750.50Q1174 708 1183 668.50Q1192 629 1192 588Q1192 384 1028 213Q897 76 720 16Q545-43 428 8Q298 64 305 239Q306 282 317 332L561 1466L553 1466M551 252Q533 169 586 139Q638 111 715 154Q817 211 877 353Q919 452 930 578Q938 659 889.50 709.50Q841 760 752 760Q704 760 655 748L551 252Z"  horiz-adv-x="1271" vert-adv-y="2048"  />

      
      <glyph glyph-name="uni042D" unicode="&#x042D;" d="M797 725Q754 725 672.50 703.50Q591 682 549 682Q511 682 480 699.50Q449 717 434.50 742.50Q420 768 418 797Q416 826 436 850Q480 828 529.50 828Q579 828 646.50 839Q714 850 758 850Q796 850 823 838Q834 963 834 1038Q834 1228 782.50 1337Q731 1446 627 1446Q565 1446 518 1408Q471 1370 471 1311Q471 1235 504 1178Q456 1145 401 1145Q347 1145 313 1188Q279 1231 279 1290Q279 1354 305 1405Q331 1456 372 1487.50Q413 1519 467 1540Q521 1561 572 1569Q623 1577 674 1577Q894 1577 999 1433.50Q1104 1290 1104 1034Q1104 901 1083.50 772Q1063 643 1024.50 526Q986 409 927 310Q868 211 794 138.50Q720 66 624.50 25Q529-16 422-16Q260-16 153.50 57.50Q47 131 47 270Q47 345 89.50 399Q132 453 217 453Q240 453 266 440.50Q292 428 303 408Q276 366 276 307Q276 215 324.50 166Q373 117 446 117Q517 117 578.50 165Q640 213 684.50 297Q729 381 761 489Q793 597 811 725L797 725Z"  horiz-adv-x="1138" vert-adv-y="2048"  />

      
      <glyph glyph-name="uni042E" unicode="&#x042E;" d="M532 1466Q403 1466 341 1407Q279 1348 279 1266Q279 1193 319 1147Q272 1126 231 1126Q156 1126 111 1183.50Q66 1241 66 1321Q66 1372 85.50 1419Q105 1466 144.50 1507Q184 1548 251.50 1572.50Q319 1597 406 1597Q461 1597 533 1583.50Q605 1570 653 1558Q701 1546 757.50 1542Q814 1538 838 1556Q866 1539 866 1503Q866 1471 847 1447Q828 1423 795 1423L776 1423L662 881Q732 881 858 889Q892 1030 951.50 1150.50Q1011 1271 1092.50 1363.50Q1174 1456 1282 1508.50Q1390 1561 1511 1561Q1621 1561 1703 1514.50Q1785 1468 1834 1383.50Q1883 1299 1904.50 1185.50Q1926 1072 1921 932Q1916 787 1883 648Q1850 509 1789 387.50Q1728 266 1647 173.50Q1566 81 1458 28Q1350-25 1229-25Q1076-25 977 56.50Q878 138 840.50 277.50Q803 417 821 604Q824 688 836 770Q724 747 631 741L498 115Q484 48 435 16Q386-16 322-16Q250-16 213 10L543 1466L532 1466M1120 530Q1120 389 1177 312.50Q1234 236 1323 236Q1378 236 1434.50 266Q1491 296 1545 360.50Q1599 425 1641 515Q1683 605 1709 735.50Q1735 866 1735 1018Q1735 1203 1675 1302Q1615 1401 1524 1401Q1470 1401 1414 1366Q1358 1331 1305 1258.50Q1252 1186 1211 1085Q1170 984 1145 840Q1120 696 1120 530Z"  horiz-adv-x="1937" vert-adv-y="2048"  />

      
      <glyph glyph-name="uni042F" unicode="&#x042F;" d="M721 281L805 684Q764 684 698 692Q549 310 411.50 147Q274-16 123-16Q44-16-4.50 57.50Q-53 131-53 264Q-53 418 121 418Q179 418 223 383Q180 285 180 172L180 154Q225 171 268.50 205.50Q312 240 363 302.50Q414 365 471 470Q528 575 588 717Q457 758 393.50 843Q330 928 330 1040Q330 1172 383 1276Q436 1380 529 1445Q622 1510 742.50 1543.50Q863 1577 1004 1577Q1052 1577 1104.50 1572Q1157 1567 1222 1551.50Q1287 1536 1336.50 1512Q1386 1488 1420 1445Q1454 1402 1454 1346Q1454 1310 1424 1277.50Q1394 1245 1348 1235Q1296 1379 1214 1430L979 330Q947 178 1047 178Q1092 178 1152 210.50Q1212 243 1255 281Q1290 266 1290 231Q1290 207 1272 186Q1169 90 1083 37Q997-16 915-16Q875-16 842.50-8Q810 0 779 19.50Q748 39 732 72.50Q716 106 710 158Q704 210 721 281M582 1057Q582 945 642 870Q702 795 827 784L973 1477Q802 1474 692 1365Q582 1256 582 1057Z"  horiz-adv-x="1239" vert-adv-y="2048"  />

      
      <glyph glyph-name="uni0430" unicode="&#x0430;" d="M494 1042Q629 1042 705 975Q755 1034 844 1034Q899 1034 940 1008L797 330Q764 178 858 178Q912 178 971.50 208.50Q1031 239 1073 281Q1108 266 1108 231Q1108 207 1090 186Q1015 101 915.50 42.50Q816-16 735-16Q652-16 598 31Q544 78 545 190Q477 95 397 39.50Q317-16 233-16Q172-16 125 7.50Q78 31 50.50 67Q23 103 6 151Q-11 199-17 241.50Q-23 284-23 328Q-23 506 46 670.50Q115 835 235.50 938.50Q356 1042 494 1042M549 324L664 872Q614 889 567 889Q479 889 411 836Q343 783 305.50 698Q268 613 249.50 522.50Q231 432 231 342Q231 269 261.50 232Q292 195 342 195Q392 195 450 231Q508 267 549 324Z"  horiz-adv-x="1073" vert-adv-y="2048"  />

      
      <glyph glyph-name="uni0431" unicode="&#x0431;" d="M412 1434Q481 1434 592 1426Q703 1418 780.50 1418Q858 1418 915 1434Q940 1396 930 1333Q916 1272 872.50 1227Q829 1182 762 1182Q688 1182 555 1208.50Q422 1235 358 1239Q420 1193 459 1161.50Q498 1130 553.50 1074.50Q609 1019 641 968.50Q673 918 697 848.50Q721 779 721 705Q721 615 700.50 516.50Q680 418 638 323.50Q596 229 539 153Q482 77 403 30.50Q324-16 236-16Q159-16 100.50 12Q42 40 7.50 89Q-27 138-44 199.50Q-61 261-61 334Q-61 441-23 555Q15 669 79.50 764Q144 859 240 920Q336 981 442 981Q480 981 510 975Q480 1011 437 1047.50Q394 1084 361.50 1105.50Q329 1127 280.50 1158Q232 1189 215 1200Q215 1239 217 1264.50Q219 1290 230 1325.50Q241 1361 260.50 1382Q280 1403 318.50 1418.50Q357 1434 412 1434M598 743Q598 800 578 858Q545 866 487 866Q424 866 368.50 820.50Q313 775 277.50 704.50Q242 634 221.50 552Q201 470 201 395Q201 312 231.50 260.50Q262 209 322 209Q385 209 439.50 264Q494 319 527.50 402Q561 485 579.50 575Q598 665 598 743Z"  horiz-adv-x="802" vert-adv-y="2048"  />

      
      <glyph glyph-name="uni0432" unicode="&#x0432;" d="M803 1264Q799 1179 726 1061Q653 943 498 758Q562 780 621 780Q706 780 757 721Q808 662 801 565Q789 415 702 279.50Q615 144 487.50 64Q360-16 233-16Q115-16 52 78Q-11 172 0 377Q6 512 33.50 656.50Q61 801 112.50 946Q164 1091 233 1205Q302 1319 400.50 1390.50Q499 1462 610 1462Q706 1462 757.50 1411Q809 1360 803 1264M565 600Q535 676 432 682Q355 590 242 461Q238 425 238 410Q225 154 356 154Q401 154 439 179Q477 204 502.50 243.50Q528 283 546 332.50Q564 382 571.50 431.50Q579 481 577.50 525.50Q576 570 565 600M604 1335Q552 1335 498 1266Q444 1197 400 1087.50Q356 978 321 855.50Q286 733 264 612Q463 862 555.50 1012Q648 1162 653 1241Q655 1289 644.50 1312Q634 1335 604 1335Z"  horiz-adv-x="860" vert-adv-y="2048"  />

      
      </font>
</defs>
</svg>
